<svg width="62" height="70" viewBox="0 0 62 70" fill="none" xmlns="http://www.w3.org/2000/svg">
<path d="M60.9132 57.5485C55.1011 51.7635 52.1551 44.9166 52.1551 37.1977V25.9623C52.2087 17.3965 46.4577 11.7151 41.5162 9.45282C40.1006 8.80448 38.6413 8.3048 37.1584 7.93378V7.21674C37.1584 3.77267 34.3608 0.970703 30.9222 0.970703C27.4836 0.970703 24.686 3.77267 24.686 7.21674V8.04246C23.3502 8.40349 22.0369 8.87444 20.7622 9.46406C15.3006 11.985 9.76786 18.0611 9.71797 25.9548V37.1977C9.71797 45.1776 6.90421 52.0246 1.35527 57.5485C1.02475 57.8783 0.905015 58.3643 1.04471 58.8102C1.1844 59.2562 1.56231 59.586 2.02254 59.6659L13.86 61.7134C16.0651 62.0944 18.0956 62.4067 20.0276 62.664C22.2053 66.9363 26.4795 69.6771 31.1492 69.6771C35.8201 69.6771 40.0956 66.9338 42.2708 62.659C44.1952 62.403 46.2158 62.0919 48.4084 61.7122L60.2447 59.6647C60.7049 59.586 61.0815 59.255 61.2225 58.809C61.3634 58.3643 61.2437 57.8783 60.9132 57.5485ZM27.1792 7.21674C27.1792 5.15055 28.858 3.46912 30.9209 3.46912C32.9839 3.46912 34.6626 5.15055 34.6626 7.21674V7.44409C32.1769 7.08682 29.655 7.10181 27.1792 7.50281V7.21674ZM31.1492 67.1787C27.9912 67.1787 25.0402 65.6072 23.1457 63.0376C25.9333 63.3249 28.535 63.4698 31.1355 63.4698C33.7459 63.4698 36.3564 63.3249 39.1552 63.0338C37.2594 65.6059 34.3072 67.1787 31.1492 67.1787ZM47.9843 59.25C45.5909 59.6635 43.397 59.9995 41.3241 60.2643H41.3166C40.4037 60.3805 39.5156 60.4817 38.6463 60.5691C38.6376 60.5704 38.6276 60.5704 38.6189 60.5716C37.8244 60.6516 37.0474 60.7153 36.2791 60.7715C36.1331 60.7827 35.9885 60.7915 35.8425 60.8015C35.1765 60.8452 34.518 60.8802 33.8632 60.9052C33.7285 60.9102 33.5938 60.9177 33.4591 60.9214C31.9075 60.9739 30.3771 60.9739 28.8268 60.9227C28.6896 60.9177 28.55 60.9114 28.4128 60.9052C27.7667 60.8802 27.1156 60.8464 26.4583 60.8027C26.3037 60.7927 26.149 60.7827 25.9931 60.7715C25.2448 60.7178 24.4877 60.6541 23.7132 60.5779C23.6857 60.5754 23.6595 60.5729 23.6334 60.5704C22.7703 60.4842 21.8885 60.383 20.9817 60.2681C20.978 60.2681 20.9743 60.2681 20.9705 60.2681C18.8901 60.0045 16.6888 59.6659 14.2841 59.2512L4.72903 57.5973C9.69677 51.9084 12.2124 45.0577 12.2124 37.1977V25.9623C12.2548 19.1729 17.0617 13.9237 21.8049 11.7326C23.2155 11.0818 24.6785 10.5958 26.1665 10.2548C26.179 10.2523 26.1927 10.2536 26.2052 10.2511C29.2783 9.559 32.5498 9.52777 35.6592 10.1661C35.6754 10.1699 35.6916 10.1624 35.7078 10.1649C37.3342 10.5047 38.9357 11.0193 40.4785 11.7251C45.0795 13.8325 49.703 19.0467 49.6594 25.9561V37.199C49.6594 44.7354 52.3721 51.7435 57.5332 57.5998L47.9843 59.25Z" fill="#462E8D"/>
</svg>
