<svg width="53" height="55" viewBox="0 0 53 55" fill="none" xmlns="http://www.w3.org/2000/svg">
<path d="M52.5092 20.7454C52.0967 20.3343 51.43 20.3343 51.0175 20.7454L22.2235 49.4379C20.1009 51.553 17.2684 52.7167 14.2449 52.7167C11.2203 52.7167 8.38667 51.553 6.26515 49.4379C4.14363 47.3228 2.97474 44.5002 2.97474 41.4863C2.97474 38.4735 4.14258 35.6498 6.26515 33.5358L35.0581 4.84222C38.1143 1.79783 42.9123 1.9839 46.2185 5.27638C49.5237 8.56991 49.7115 13.352 46.6553 16.3974L19.6061 43.3523C18.0944 44.8587 15.6321 44.8597 14.1172 43.3523C12.6044 41.8437 12.6044 39.3901 14.1172 37.8827L32.4408 19.6237C32.8532 19.2127 32.8532 18.5483 32.4408 18.1372C32.0283 17.7262 31.3615 17.7262 30.949 18.1372L12.6255 36.3952C10.2898 38.7226 10.2898 42.5092 12.6255 44.8377C14.9633 47.1672 18.7643 47.163 21.0979 44.8377L48.148 17.8828C52.0545 13.989 51.8667 7.92971 47.7113 3.78888C43.5568 -0.350904 37.475 -0.539076 33.5675 3.35471L4.77239 32.0483C2.25104 34.5597 0.86377 37.911 0.86377 41.4863C0.86377 45.0616 2.25104 48.414 4.77239 50.9254C7.29268 53.4378 10.6559 54.8202 14.2449 54.8202C17.8317 54.8202 21.196 53.4378 23.7163 50.9254L52.5092 22.2318C52.9217 21.8208 52.9217 21.1553 52.5092 20.7454Z" fill="white"/>
</svg>
