<svg width="54" height="44" viewBox="0 0 54 44" fill="none" xmlns="http://www.w3.org/2000/svg">
<path d="M53.125 5.30549C51.174 6.18675 49.0685 6.77975 46.8654 7.0433C49.1173 5.67611 50.8407 3.51826 51.6617 0.932134C49.5562 2.20049 47.2231 3.11469 44.7437 3.60886C42.752 1.46748 39.923 0.125 36.7851 0.125C30.7694 0.125 25.8837 5.07488 25.8837 11.1696C25.8837 12.0344 25.9813 12.8744 26.1682 13.6898C17.1122 13.2286 9.08043 8.83053 3.69883 2.15108C2.76396 3.78182 2.2193 5.67611 2.2193 7.70218C2.2193 11.532 4.14594 14.917 7.06436 16.8936C5.27592 16.836 3.59315 16.3418 2.12988 15.51C2.12988 15.5594 2.12988 15.6006 2.12988 15.65C2.12988 21.0034 5.88562 25.4674 10.877 26.4804C9.96653 26.7357 8.99914 26.8675 8.00736 26.8675C7.30011 26.8675 6.61725 26.8016 5.95878 26.6699C7.34889 31.0597 11.3729 34.247 16.1448 34.3376C12.4134 37.3026 7.71471 39.0651 2.60138 39.0651C1.72341 39.0651 0.853577 39.0157 0 38.9087C4.82068 42.0466 10.5518 43.875 16.7057 43.875C36.7526 43.875 47.719 27.0487 47.719 12.4544C47.719 11.9767 47.7109 11.499 47.6865 11.0296C49.8164 9.4647 51.6617 7.52099 53.125 5.30549Z" fill="white"/>
</svg>
