<svg width="61" height="71" viewBox="0 0 61 71" fill="none" xmlns="http://www.w3.org/2000/svg">
<g clip-path="url(#clip0)">
<path d="M9.23247 68.6188V69.1188H9.73247H54.9528C57.1539 69.1188 58.9313 67.3221 58.9313 65.1134V6.69049C58.9313 4.48179 57.1539 2.68506 54.9528 2.68506H9.73247H9.23247V3.18506V58.3038C9.23247 58.6763 8.93365 58.9718 8.57343 58.9718C8.21322 58.9718 7.91439 58.6763 7.91439 58.3038V3.18506V2.68506H7.41439H6.25535C4.05425 2.68506 2.27686 4.48179 2.27686 6.69049V65.1134C2.27686 67.3221 4.05425 69.1188 6.25535 69.1188H7.41439H7.91439V68.6188V61.6079C7.91439 61.2355 8.21322 60.9399 8.57343 60.9399C8.93365 60.9399 9.23247 61.2355 9.23247 61.6079V68.6188ZM42.9561 13.6263V13.6274C42.9561 13.9998 42.6573 14.2954 42.2971 14.2954H31.8616C31.5014 14.2954 31.2026 13.9998 31.2026 13.6274C31.2026 13.255 31.5014 12.9594 31.8616 12.9594H42.2971C42.6592 12.9594 42.9569 13.2553 42.9561 13.6263ZM42.9562 17.3577V17.3588C42.9562 17.7312 42.6573 18.0268 42.2971 18.0268H26.2906C25.9304 18.0268 25.6316 17.7312 25.6316 17.3588C25.6316 16.9863 25.9304 16.6907 26.2906 16.6907H42.2971C42.6593 16.6907 42.9569 16.9867 42.9562 17.3577ZM42.9562 21.0645V21.0655C42.9562 21.438 42.6573 21.7335 42.2971 21.7335H26.2906C25.9304 21.7335 25.6316 21.438 25.6316 21.0655C25.6316 20.6931 25.9304 20.3975 26.2906 20.3975H42.2971C42.6593 20.3975 42.9569 20.6934 42.9562 21.0645ZM6.25399 1.34766H54.9528C56.3557 1.34766 57.7037 1.91017 58.6973 2.91148C59.6911 3.91296 60.2507 5.27194 60.2507 6.69049V65.1134C60.2507 68.0683 57.8744 70.4562 54.9528 70.4562H6.25399C3.33103 70.4562 0.956055 68.0683 0.956055 65.1147V6.69049C0.956055 3.73553 3.3311 1.34766 6.25399 1.34766ZM26.0651 12.9594H27.2241C27.5843 12.9594 27.8831 13.255 27.8831 13.6274C27.8831 13.9998 27.5843 14.2954 27.2241 14.2954H26.0651C25.7048 14.2954 25.406 13.9998 25.406 13.6274C25.406 13.255 25.7048 12.9594 26.0651 12.9594Z" fill="#462E8D" stroke="#462E8D"/>
<path d="M46.2754 25.9532H22.6162C21.5904 25.9532 20.7588 25.1151 20.7588 24.0813V10.6511C20.7588 9.61731 21.5904 8.7793 22.6162 8.7793H46.2754C47.3013 8.7793 48.1329 9.61731 48.1329 10.6511V24.0799C48.1329 25.1151 47.3013 25.9532 46.2754 25.9532Z" stroke="#462E8D" stroke-miterlimit="10" stroke-linecap="round" stroke-linejoin="round"/>
</g>
<defs>
<clipPath id="clip0">
<rect x="0.456055" y="0.847656" width="60.2934" height="70.1086" fill="white"/>
</clipPath>
</defs>
</svg>
