<svg width="73" height="67" viewBox="0 0 73 67" fill="none" xmlns="http://www.w3.org/2000/svg">
<path d="M6.82939 6.36402H12.7887C13.1047 6.36388 13.408 6.49011 13.6316 6.71492C13.855 6.93959 13.9806 7.24443 13.9806 7.56233C13.9806 9.54754 15.5815 11.157 17.5561 11.157C19.5308 11.157 21.1317 9.54754 21.1317 7.56233C21.1315 7.24457 21.2571 6.93973 21.4807 6.71492C21.7042 6.49025 22.0074 6.36402 22.3236 6.36402H50.9276C51.2437 6.36388 51.5469 6.49011 51.7705 6.71492C51.994 6.93959 52.1196 7.24443 52.1196 7.56233C52.1196 9.54754 53.7203 11.157 55.6951 11.157C57.6699 11.157 59.2706 9.54754 59.2706 7.56233C59.2705 7.24457 59.3961 6.93973 59.6197 6.71492C59.8431 6.49025 60.1464 6.36402 60.4626 6.36402H66.4216C69.7112 6.36795 72.3769 9.04794 72.3808 12.3552V60.2839C72.3769 63.5912 69.7112 66.2711 66.4216 66.2751H6.82925C3.53976 66.2711 0.874028 63.5912 0.870117 60.2839V12.3552C0.874028 9.04794 3.53976 6.36795 6.82939 6.36402ZM3.25385 21.9408H8.02119C8.67945 21.9408 9.21299 22.4772 9.21299 23.139C9.21299 23.8008 8.67945 24.3373 8.02119 24.3373H3.25385V60.2839C3.25595 62.2683 4.85558 63.8765 6.82939 63.8786H66.4216C68.3954 63.8765 69.995 62.2683 69.9971 60.2839V24.3373H15.1723C14.514 24.3373 13.9805 23.8009 13.9805 23.1391C13.9805 22.4774 14.514 21.941 15.1723 21.941H69.9971V12.3552C69.995 10.3708 68.3954 8.76261 66.4216 8.76051H61.5343C60.9676 11.55 58.5268 13.5533 55.695 13.5533C52.8632 13.5533 50.4223 11.5499 49.8557 8.76051H23.3953C22.8287 11.55 20.3878 13.5533 17.556 13.5533C14.7241 13.5533 12.2833 11.5499 11.7167 8.76051H6.82939C4.85558 8.76261 3.25595 10.3708 3.25385 12.3552V21.9408Z" fill="#462E8D"/>
<path d="M55.695 8.76054C55.0368 8.76054 54.5032 8.22415 54.5032 7.56237V1.57122C54.5032 0.909438 55.0368 0.373047 55.695 0.373047C56.3533 0.373047 56.8868 0.909438 56.8868 1.57122V7.56237C56.887 8.22401 56.3533 8.76054 55.695 8.76054Z" fill="#462E8D"/>
<path d="M17.556 8.76054C16.8977 8.76054 16.3642 8.22415 16.3642 7.56237V1.57122C16.3642 0.909438 16.8979 0.373047 17.556 0.373047C18.2143 0.373047 18.7478 0.909438 18.7478 1.57122V7.56237C18.7478 8.22401 18.2141 8.76054 17.556 8.76054Z" fill="#462E8D"/>
<path d="M53.3114 27.932H62.846C64.8198 27.9341 66.4195 29.5423 66.4216 31.5267V38.716C66.4195 40.7004 64.8198 42.3085 62.846 42.3107H53.3112C51.3374 42.3085 49.7378 40.7004 49.7357 38.716V31.5267C49.7379 29.5423 51.3375 27.9341 53.3114 27.932ZM52.1194 38.716C52.1201 39.3775 52.6532 39.9136 53.3112 39.9142H62.846C63.504 39.9135 64.0373 39.3775 64.0378 38.716V31.5267C64.0371 30.8652 63.504 30.3291 62.846 30.3285H53.3112C52.6532 30.3292 52.12 30.8652 52.1194 31.5267V38.716Z" fill="#462E8D"/>
<path d="M31.8582 27.932H41.393C43.3668 27.9341 44.9665 29.5423 44.9686 31.5267V38.716C44.9665 40.7004 43.3668 42.3085 41.393 42.3107H31.8582C29.8844 42.3085 28.2848 40.7004 28.2827 38.716V31.5267C28.2848 29.5423 29.8844 27.9341 31.8582 27.932ZM30.6663 38.716C30.667 39.3775 31.2001 39.9136 31.8581 39.9142H41.3929C42.0509 39.9135 42.5841 39.3775 42.5847 38.716V31.5267C42.584 30.8652 42.0509 30.3291 41.3929 30.3285H31.8581C31.2001 30.3292 30.6668 30.8652 30.6663 31.5267V38.716Z" fill="#462E8D"/>
<path d="M19.9396 27.932C21.9134 27.9341 23.513 29.5423 23.5151 31.5267V38.716C23.513 40.7004 21.9134 42.3085 19.9396 42.3107H10.4048C8.43097 42.3085 6.83133 40.7004 6.82924 38.716V31.5267C6.83133 29.5423 8.43097 27.9341 10.4048 27.932H19.9396ZM9.21298 31.5267V38.716C9.21368 39.3775 9.74679 39.9136 10.4048 39.9142H19.9396C20.5976 39.9135 21.1308 39.3775 21.1314 38.716V31.5267C21.1307 30.8652 20.5976 30.3291 19.9396 30.3285H10.4048C9.74693 30.3291 9.21368 30.8652 9.21298 31.5267Z" fill="#462E8D"/>
<path d="M53.3114 45.9053H62.846C64.8198 45.9074 66.4195 47.5156 66.4216 49.5V56.6893C66.4195 58.6736 64.8198 60.2818 62.846 60.2839H53.3112C51.3374 60.2818 49.7378 58.6736 49.7357 56.6893V49.5C49.7379 47.5156 51.3375 45.9074 53.3114 45.9053ZM52.1194 56.6893C52.1201 57.3508 52.6532 57.8869 53.3112 57.8875H62.846C63.504 57.8867 64.0373 57.3508 64.0378 56.6893V49.5C64.0371 48.8385 63.504 48.3023 62.846 48.3018H53.3112C52.6532 48.3025 52.12 48.8385 52.1194 49.5V56.6893Z" fill="#462E8D"/>
<path d="M31.8582 45.9053H41.393C43.3668 45.9074 44.9665 47.5156 44.9686 49.5V56.6893C44.9665 58.6736 43.3668 60.2818 41.393 60.2839H31.8582C29.8844 60.2818 28.2848 58.6736 28.2827 56.6893V49.5C28.2848 47.5156 29.8844 45.9074 31.8582 45.9053ZM30.6663 56.6893C30.667 57.3508 31.2001 57.8869 31.8581 57.8875H41.3929C42.0509 57.8867 42.5841 57.3508 42.5847 56.6893V49.5C42.584 48.8385 42.0509 48.3023 41.3929 48.3018H31.8581C31.2001 48.3025 30.6668 48.8385 30.6663 49.5V56.6893Z" fill="#462E8D"/>
<path d="M10.4049 45.9053H19.9397C21.9135 45.9074 23.5132 47.5156 23.5153 49.5V56.6893C23.5132 58.6736 21.9135 60.2818 19.9397 60.2839H10.4049C8.43109 60.2818 6.83145 58.6736 6.82936 56.6893V49.5C6.83145 47.5156 8.43109 45.9074 10.4049 45.9053ZM9.21296 56.6893C9.21366 57.3508 9.74678 57.8869 10.4048 57.8875H19.9396C20.5976 57.8867 21.1308 57.3508 21.1314 56.6893V49.5C21.1307 48.8385 20.5976 48.3023 19.9396 48.3018H10.4048C9.74678 48.3025 9.21352 48.8385 9.21296 49.5V56.6893Z" fill="#462E8D"/>
</svg>
