<svg width="74" height="56" viewBox="0 0 74 56" fill="none" xmlns="http://www.w3.org/2000/svg">
<path d="M68.5364 0.460938H5.87261C3.04723 0.460938 0.748047 2.81238 0.748047 5.70197V49.9046C0.748047 52.7942 3.04723 55.1456 5.87261 55.1456H68.5364C71.3618 55.1456 73.6609 52.7942 73.6609 49.9046V5.70197C73.6609 2.81238 71.3618 0.460938 68.5364 0.460938ZM71.2305 49.9046C71.2305 51.4233 70.0226 52.6599 68.5364 52.6599H5.87261C4.3864 52.6599 3.17848 51.4233 3.17848 49.9046V5.70197C3.17848 4.18322 4.3864 2.9466 5.87261 2.9466H68.5364C70.0226 2.9466 71.2305 4.18322 71.2305 5.70197V49.9046Z" fill="#462E8D"/>
<path d="M11.0841 30.2889H29.2988C30.9772 30.2889 32.3436 28.8515 32.3436 27.086V13.6066C32.3436 11.841 30.9772 10.4036 29.2988 10.4036H11.0841C9.40578 10.4036 8.03934 11.841 8.03934 13.6066V27.086C8.03934 28.8515 9.40578 30.2889 11.0841 30.2889ZM16.1408 21.7667H10.7398V18.9259H16.1408V21.7667ZM10.7398 27.086V24.6074H16.1408V27.086C16.1408 27.2096 16.1624 27.3274 16.1759 27.4482H11.0841C10.8937 27.4482 10.7398 27.2863 10.7398 27.086ZM29.6432 21.7667H24.2422V19.2881C24.2422 19.0878 24.3961 18.9259 24.5865 18.9259H29.2988C29.4163 18.9259 29.5284 18.9032 29.6432 18.889V21.7667ZM29.2988 27.4482H24.2071C24.2206 27.3274 24.2422 27.2096 24.2422 27.086V24.6074H29.6432V27.086C29.6432 27.2863 29.4892 27.4482 29.2988 27.4482ZM29.2988 13.2444C29.4892 13.2444 29.6432 13.4063 29.6432 13.6066V15.7229C29.6432 15.9232 29.4892 16.0851 29.2988 16.0851H24.5865C22.9082 16.0851 21.5417 17.5226 21.5417 19.2881V27.086C21.5417 27.2863 21.3878 27.4482 21.1974 27.4482H19.1856C18.9952 27.4482 18.8412 27.2863 18.8412 27.086V13.6066C18.8412 13.4063 18.9952 13.2444 19.1856 13.2444H29.2988ZM11.0841 13.2444H16.1759C16.1624 13.3651 16.1408 13.483 16.1408 13.6066V16.0851H10.7398V13.6066C10.7398 13.4063 10.8937 13.2444 11.0841 13.2444Z" fill="#462E8D"/>
<path d="M8.03934 42.7173C8.03934 42.0309 8.58341 41.4744 9.25455 41.4744H14.1154C14.7866 41.4744 15.3306 42.0309 15.3306 42.7173C15.3306 43.4037 14.7866 43.9601 14.1154 43.9601H9.25455C8.5834 43.9601 8.03934 43.4037 8.03934 42.7173Z" fill="#462E8D"/>
<path d="M16.5459 42.7172C16.5459 42.0308 17.0899 41.4744 17.7611 41.4744H22.6219C23.2931 41.4744 23.8372 42.0308 23.8372 42.7172C23.8372 43.4036 23.2931 43.96 22.6219 43.96H17.7611C17.0899 43.96 16.5459 43.4036 16.5459 42.7172Z" fill="#462E8D"/>
<path d="M25.0524 42.7172C25.0524 42.0308 25.5964 41.4744 26.2676 41.4744H31.1285C31.7996 41.4744 32.3437 42.0308 32.3437 42.7172C32.3437 43.4036 31.7996 43.96 31.1285 43.96H26.2676C25.5964 43.96 25.0524 43.4036 25.0524 42.7172Z" fill="#462E8D"/>
<path d="M33.5589 42.7172C33.5589 42.0308 34.103 41.4744 34.7741 41.4744H39.635C40.3061 41.4744 40.8502 42.0308 40.8502 42.7172C40.8502 43.4036 40.3061 43.96 39.635 43.96H34.7741C34.1029 43.96 33.5589 43.4036 33.5589 42.7172Z" fill="#462E8D"/>
<path d="M42.0654 42.7172C42.0654 42.0308 42.6095 41.4744 43.2806 41.4744H48.1415C48.8126 41.4744 49.3567 42.0308 49.3567 42.7172C49.3567 43.4036 48.8126 43.96 48.1415 43.96H43.2806C42.6095 43.96 42.0654 43.4036 42.0654 42.7172Z" fill="#462E8D"/>
</svg>
