<svg width="41" height="72" viewBox="0 0 41 72" fill="none" xmlns="http://www.w3.org/2000/svg">
<path d="M34.9769 0.287109H5.88932C3.08563 0.287109 0.802734 2.64339 0.802734 5.53719V66.5466C0.802734 69.4415 3.08563 71.7978 5.88932 71.7978H34.9758C37.7806 71.7978 40.0635 69.4415 40.0635 66.5477V5.53719C40.0635 2.64339 37.7806 0.287109 34.9769 0.287109ZM3.11219 9.82187H37.7541V55.112H3.11219V9.82187ZM5.88932 2.6708H34.9758C36.5081 2.6708 37.7541 3.9568 37.7541 5.53719V7.43818H3.11219V5.53719C3.11219 3.9568 4.35815 2.6708 5.88932 2.6708ZM34.9769 69.4141H5.88932C4.35815 69.4141 3.11219 68.1281 3.11219 66.5477V57.4957H37.7541V66.5477C37.7541 68.1281 36.5081 69.4141 34.9769 69.4141Z" fill="#462E8D"/>
<path d="M20.4331 58.6875C17.8858 58.6875 15.8142 60.8257 15.8142 63.4549C15.8142 66.0841 17.8858 68.2223 20.4331 68.2223C22.9805 68.2223 25.052 66.0841 25.052 63.4549C25.052 60.8257 22.9805 58.6875 20.4331 58.6875ZM20.4331 65.8386C19.1595 65.8386 18.1237 64.7695 18.1237 63.4549C18.1237 62.1403 19.1595 61.0712 20.4331 61.0712C21.7068 61.0712 22.7426 62.1403 22.7426 63.4549C22.7426 64.7695 21.7068 65.8386 20.4331 65.8386Z" fill="#462E8D"/>
<path d="M18.1237 6.24634H22.7426C23.3812 6.24634 23.8973 5.71358 23.8973 5.05449C23.8973 4.3954 23.3812 3.86264 22.7426 3.86264H18.1237C17.4851 3.86264 16.9689 4.3954 16.9689 5.05449C16.9689 5.71358 17.4851 6.24634 18.1237 6.24634Z" fill="#462E8D"/>
</svg>
