<svg width="66" height="70" viewBox="0 0 66 70" fill="none" xmlns="http://www.w3.org/2000/svg">
<path d="M35.0755 44.1909C36.2657 44.0981 37.3507 43.4901 38.055 42.5202L48.7598 27.6979C49.0879 27.2433 49.0388 26.6158 48.6409 26.2173C48.243 25.8199 47.6165 25.7707 47.1626 26.0982L32.3613 36.8233C31.3964 37.5264 30.7893 38.6131 30.6966 39.8051C30.604 40.9972 31.0351 42.164 31.8777 43.008C32.6448 43.7775 33.6795 44.2035 34.7554 44.2035C34.8617 44.2035 34.9681 44.1989 35.0755 44.1909ZM32.9764 39.9838C33.0164 39.4605 33.284 38.9829 33.7047 38.6761L42.7334 32.1341L36.204 41.1747C35.8953 41.5995 35.4185 41.8663 34.896 41.9075C34.3758 41.9419 33.8648 41.761 33.4932 41.3888C33.125 41.0189 32.9352 40.5059 32.9764 39.9838Z" fill="#462E8D"/>
<path d="M60.6857 23.0923C60.6743 23.0683 60.6743 23.0431 60.6617 23.019C60.648 22.9961 60.6263 22.9835 60.6114 22.9618C59.4555 20.9762 58.0881 19.1291 56.5355 17.455L58.9913 14.9964L60.608 16.6156L65.4579 11.7569L60.608 6.89936L55.7569 11.7569L57.3747 13.3772L54.9188 15.8358C53.2473 14.2807 51.4043 12.91 49.4207 11.7523C49.3989 11.7374 49.3864 11.7157 49.3635 11.7019C49.3395 11.6882 49.3143 11.6893 49.2903 11.6767C45.7541 9.63617 41.7811 8.27693 37.5451 7.77881V6.41499H39.2601C40.8367 6.41499 42.1183 5.13132 42.1183 3.55222C42.1183 1.97312 40.8355 0.689453 39.2589 0.689453H28.9691C27.3925 0.689453 26.1108 1.97312 26.1108 3.55222C26.1108 5.13132 27.3925 6.41499 28.9691 6.41499H30.6841V7.73873C29.4493 7.87042 28.2168 8.07195 26.9981 8.35136C26.383 8.49221 25.9977 9.10713 26.1394 9.7232C26.2801 10.3393 26.894 10.7263 27.5091 10.5832C28.561 10.3416 29.6231 10.1595 30.6875 10.037L31.9143 9.94191C32.2893 9.91328 32.6346 9.89267 32.9707 9.87664V12.1405C32.9707 12.7738 33.4818 13.2856 34.114 13.2856C34.7463 13.2856 35.2573 12.7738 35.2573 12.1405V9.88466C39.5573 10.0828 43.6092 11.2393 47.2118 13.1425L46.0845 15.0972C45.7689 15.6457 45.9564 16.3453 46.5029 16.6614C46.6824 16.7656 46.8791 16.8148 47.0734 16.8148C47.469 16.8148 47.8532 16.6099 48.0647 16.2423L49.1886 14.2922C52.766 16.5652 55.8049 19.6089 58.0744 23.1919L56.1273 24.3176C55.582 24.6336 55.3945 25.3333 55.7112 25.8818C55.9238 26.2494 56.3068 26.4543 56.7024 26.4543C56.8968 26.4543 57.0934 26.4051 57.2729 26.3009L59.2245 25.1718C61.151 28.8316 62.3092 32.9563 62.4818 37.3317H60.2238C59.5916 37.3317 59.0805 37.8436 59.0805 38.4768C59.0805 39.1101 59.5916 39.6219 60.2238 39.6219H62.4818C62.3092 43.9974 61.151 48.122 59.2245 51.7818L57.2729 50.6527C56.7264 50.3367 56.0267 50.5222 55.7112 51.0718C55.3956 51.6203 55.5831 52.32 56.1296 52.6361L58.0767 53.7617C55.8072 57.3447 52.7683 60.3884 49.1909 62.6615L48.067 60.7113C47.7503 60.1617 47.0494 59.975 46.5052 60.2922C45.9576 60.6083 45.7701 61.3091 46.0868 61.8565L47.2141 63.8112C43.6115 65.7143 39.5596 66.8709 35.2596 67.069V64.8154C35.2596 64.1822 34.7486 63.6703 34.1163 63.6703C33.4841 63.6703 32.973 64.1822 32.973 64.8154V67.0781C31.1471 67.0152 29.3155 66.7861 27.5125 66.3716C26.8974 66.2239 26.2835 66.6155 26.1429 67.2316C26.0011 67.8476 26.3864 68.4626 27.0015 68.6034C29.2835 69.1302 31.6147 69.3958 33.9277 69.3958C33.9837 69.3958 34.0374 69.3924 34.0934 69.3913C34.1014 69.3913 34.1072 69.3958 34.114 69.3958C34.1232 69.3958 34.1312 69.3901 34.1403 69.3901C39.6362 69.3523 44.7925 67.866 49.2537 65.2986C49.2892 65.2826 49.3269 65.2746 49.3612 65.254C49.3841 65.2402 49.3967 65.2185 49.4184 65.2036C54.0362 62.508 57.8949 58.6479 60.5919 54.0262C60.6137 53.9953 60.6411 53.9713 60.6605 53.9369C60.6743 53.9128 60.6731 53.8877 60.6846 53.8636C63.2959 49.329 64.797 44.0775 64.797 38.478C64.797 32.8784 63.2959 27.6269 60.6857 23.0923ZM60.6068 10.1377L62.2235 11.7569L60.6068 13.3772L58.989 11.7569L60.6068 10.1377ZM32.9707 7.58414V4.12477H28.9691C28.6547 4.12477 28.3975 3.86712 28.3975 3.55222C28.3975 3.23731 28.6547 2.97967 28.9691 2.97967H39.2589C39.5733 2.97967 39.8306 3.23731 39.8306 3.55222C39.8306 3.86712 39.5733 4.12477 39.2589 4.12477H35.2573V7.58414C34.8595 7.56811 34.4799 7.56009 34.114 7.56009C34.082 7.56009 34.0454 7.56238 34.0134 7.56238C33.9848 7.56238 33.9562 7.56009 33.9277 7.56009C33.7402 7.56009 33.5527 7.57269 33.3652 7.57612C33.2325 7.57956 33.1079 7.57841 32.9707 7.58414Z" fill="#462E8D"/>
<path d="M23.8242 16.7209H18.1077C17.4754 16.7209 16.9644 17.2328 16.9644 17.866C16.9644 18.4993 17.4754 19.0112 18.1077 19.0112H23.8242C24.4565 19.0112 24.9675 18.4993 24.9675 17.866C24.9675 17.2328 24.4565 16.7209 23.8242 16.7209Z" fill="#462E8D"/>
<path d="M23.8242 24.7367H12.3911C11.7589 24.7367 11.2478 25.2485 11.2478 25.8818C11.2478 26.515 11.7589 27.0269 12.3911 27.0269H23.8242C24.4565 27.0269 24.9675 26.515 24.9675 25.8818C24.9675 25.2485 24.4565 24.7367 23.8242 24.7367Z" fill="#462E8D"/>
<path d="M23.8242 32.7524H6.67456C6.04231 32.7524 5.53125 33.2643 5.53125 33.8975C5.53125 34.5308 6.04231 35.0426 6.67456 35.0426H23.8242C24.4565 35.0426 24.9675 34.5308 24.9675 33.8975C24.9675 33.2643 24.4565 32.7524 23.8242 32.7524Z" fill="#462E8D"/>
<path d="M23.8242 40.7682H2.10132C1.46907 40.7682 0.958008 41.28 0.958008 41.9133C0.958008 42.5465 1.46907 43.0584 2.10132 43.0584H23.8242C24.4565 43.0584 24.9675 42.5465 24.9675 41.9133C24.9675 41.28 24.4565 40.7682 23.8242 40.7682Z" fill="#462E8D"/>
<path d="M23.8242 48.7839H8.96118C8.32893 48.7839 7.81787 49.2958 7.81787 49.929C7.81787 50.5623 8.32893 51.0741 8.96118 51.0741H23.8242C24.4565 51.0741 24.9675 50.5623 24.9675 49.929C24.9675 49.2958 24.4565 48.7839 23.8242 48.7839Z" fill="#462E8D"/>
<path d="M23.8242 56.7997H15.821C15.1888 56.7997 14.6777 57.3115 14.6777 57.9448C14.6777 58.578 15.1888 59.0899 15.821 59.0899H23.8242C24.4565 59.0899 24.9675 58.578 24.9675 57.9448C24.9675 57.3115 24.4565 56.7997 23.8242 56.7997Z" fill="#462E8D"/>
</svg>
