<svg width="64" height="70" viewBox="0 0 64 70" fill="none" xmlns="http://www.w3.org/2000/svg">
<path d="M63.3509 11.08C61.8896 5.72087 51.0128 0.449219 31.9863 0.449219C12.9599 0.449219 2.08183 5.72087 0.621745 11.08C0.515741 11.2636 0.4375 11.4647 0.4375 11.6921V57.9127C0.4375 58.1151 0.491764 58.3062 0.585149 58.4761C2.07552 64.591 15.4093 69.1556 31.9863 69.1556C48.5255 69.1556 61.8379 64.6097 63.3774 58.5174C63.4784 58.3387 63.5352 58.1326 63.5352 57.9127V11.6921C63.5352 11.4647 63.4569 11.2636 63.3509 11.08ZM60.9116 42.9035C60.8763 43.0547 60.827 43.2046 60.7652 43.357C60.7147 43.4807 60.6529 43.6043 60.5847 43.728C60.5002 43.8817 60.4055 44.0353 60.2932 44.189C60.2099 44.3051 60.1153 44.4201 60.0169 44.535C59.8768 44.6986 59.7279 44.8623 59.5588 45.0247C59.4565 45.1234 59.3442 45.2208 59.2307 45.3195C59.0237 45.4981 58.8079 45.6755 58.5669 45.8517C58.4634 45.9279 58.3523 46.0016 58.2426 46.0765C57.9574 46.2714 57.6595 46.465 57.3327 46.6549C57.2469 46.7061 57.1547 46.7548 57.0651 46.8048C56.6891 47.0147 56.2966 47.2233 55.8726 47.4257C55.8183 47.4519 55.7616 47.4769 55.706 47.5019C55.2328 47.723 54.7381 47.9403 54.2094 48.1502C54.1942 48.1564 54.1791 48.1614 54.1639 48.1677C51.298 49.3007 47.632 50.2539 43.3603 50.8785C43.3389 50.881 43.3174 50.8835 43.296 50.8872C42.4656 51.0084 41.6138 51.1158 40.7393 51.2108C40.5967 51.2257 40.4465 51.2357 40.3026 51.2507C39.5391 51.3294 38.7668 51.4019 37.9718 51.4593C37.6083 51.4856 37.2272 51.4981 36.8575 51.5206C36.2593 51.5555 35.6675 51.5943 35.0542 51.6155C34.0522 51.6467 33.03 51.6667 31.9863 51.6667C30.9427 51.6667 29.9205 51.6467 28.9173 51.6117C28.304 51.5905 27.7121 51.5505 27.1139 51.5168C26.7442 51.4956 26.3631 51.4818 25.9996 51.4556C25.2046 51.3981 24.4323 51.3257 23.6688 51.247C23.5249 51.232 23.3748 51.222 23.2322 51.207C22.3576 51.1121 21.5058 51.0034 20.6755 50.8835C20.654 50.881 20.6325 50.8785 20.6111 50.8747C16.3394 50.2501 12.6734 49.297 9.80751 48.1639C9.79236 48.1589 9.77722 48.1527 9.76208 48.1464C9.23332 47.9366 8.73737 47.7192 8.2654 47.4981C8.21114 47.4719 8.15309 47.4469 8.09882 47.4219C7.67481 47.2195 7.28234 47.0122 6.90627 46.801C6.81794 46.7511 6.72455 46.7024 6.63874 46.6511C6.31189 46.4613 6.01407 46.2676 5.72887 46.0728C5.62034 45.9978 5.50803 45.9241 5.40455 45.8479C5.16352 45.6718 4.94772 45.4944 4.74076 45.3157C4.62845 45.2183 4.51487 45.1209 4.41265 45.0209C4.24355 44.8585 4.09464 44.6961 3.95457 44.5312C3.85613 44.4163 3.76149 44.3014 3.6782 44.1852C3.56714 44.0316 3.4725 43.8779 3.38669 43.7242C3.31854 43.6006 3.25797 43.4769 3.20623 43.3532C3.14439 43.2021 3.09517 43.0509 3.05984 42.8998C3.01315 42.7011 2.96141 42.4988 2.96141 42.2977C2.96141 42.1565 2.97781 42.0153 3.00053 41.8754C3.03208 41.6868 3.01441 41.4982 2.96141 41.3195V32.0454C2.99674 32.0779 3.04091 32.1091 3.07751 32.1416C3.35261 32.3815 3.63277 32.6201 3.94826 32.8499C8.70203 36.4089 18.2083 39.1746 31.9863 39.1746C45.7063 39.1746 55.1886 36.4314 59.9626 32.8936C60.3437 32.6188 60.687 32.3352 61.01 32.0467L61.0113 32.0454V41.3195C60.9583 41.4982 60.9406 41.6868 60.9722 41.8754C60.9961 42.0153 61.0113 42.1565 61.0113 42.2977C61.0113 42.4988 60.9595 42.7012 60.9116 42.9035ZM61.0113 17.0549V26.329C60.9583 26.5077 60.9406 26.6963 60.9722 26.8849C60.9961 27.0249 61.0113 27.166 61.0113 27.3072C61.0113 27.5083 60.9595 27.7107 60.9116 27.913C60.8763 28.0642 60.827 28.2141 60.7652 28.3665C60.7147 28.4902 60.6529 28.6138 60.5847 28.7375C60.5002 28.8912 60.4055 29.0448 60.2932 29.1985C60.2099 29.3146 60.1153 29.4296 60.0169 29.5445C59.8768 29.7081 59.7279 29.8718 59.5588 30.0342C59.4565 30.1329 59.3442 30.2303 59.2307 30.329C59.0237 30.5076 58.8079 30.685 58.5669 30.8612C58.4634 30.9374 58.3523 31.0111 58.2426 31.086C57.9574 31.2809 57.6595 31.4745 57.3327 31.6644C57.2469 31.7156 57.1547 31.7643 57.0651 31.8143C56.6891 32.0242 56.2966 32.2328 55.8726 32.4352C55.8183 32.4614 55.7616 32.4864 55.706 32.5114C55.2328 32.7325 54.7381 32.9498 54.2094 33.1597C54.1942 33.166 54.1791 33.1709 54.1639 33.1772C51.298 34.3102 47.632 35.2634 43.3603 35.888C43.3389 35.8905 43.3174 35.893 43.296 35.8967C42.4656 36.0179 41.6138 36.1253 40.7393 36.2203C40.5967 36.2353 40.4465 36.2452 40.3026 36.2602C39.5391 36.3389 38.7668 36.4114 37.9718 36.4689C37.6083 36.4951 37.2272 36.5076 36.8575 36.5301C36.2593 36.565 35.6675 36.6038 35.0542 36.625C34.0522 36.6562 33.03 36.6762 31.9863 36.6762C30.9427 36.6762 29.9205 36.6562 28.9173 36.6213C28.304 36.6 27.7121 36.56 27.1139 36.5263C26.7442 36.5051 26.3631 36.4913 25.9996 36.4651C25.2046 36.4076 24.4323 36.3352 23.6688 36.2565C23.5249 36.2415 23.3748 36.2315 23.2322 36.2165C22.3576 36.1216 21.5058 36.0129 20.6755 35.893C20.654 35.8905 20.6325 35.888 20.6111 35.8842C16.3394 35.2596 12.6734 34.3065 9.80751 33.1734C9.79236 33.1685 9.77722 33.1622 9.76208 33.156C9.23332 32.9461 8.73737 32.7287 8.2654 32.5076C8.21114 32.4814 8.15309 32.4564 8.09882 32.4314C7.67481 32.229 7.28234 32.0217 6.90627 31.8106C6.81794 31.7606 6.72455 31.7119 6.63874 31.6607C6.31189 31.4708 6.01407 31.2772 5.72887 31.0823C5.62034 31.0073 5.50803 30.9336 5.40455 30.8574C5.16352 30.6813 4.94772 30.5039 4.74076 30.3253C4.62845 30.2278 4.51487 30.1304 4.41265 30.0304C4.24355 29.868 4.09464 29.7057 3.95457 29.5408C3.85613 29.4258 3.76149 29.3109 3.6782 29.1947C3.56714 29.0411 3.4725 28.8874 3.38669 28.7338C3.31854 28.6101 3.25797 28.4864 3.20623 28.3628C3.14439 28.2116 3.09517 28.0604 3.05984 27.9093C3.01315 27.7107 2.96141 27.5083 2.96141 27.3072C2.96141 27.166 2.97781 27.0249 3.00053 26.8849C3.03208 26.6963 3.01441 26.5077 2.96141 26.329V17.0549C3.11284 17.1911 3.28573 17.3248 3.44978 17.4597C3.54064 17.5346 3.6252 17.6096 3.7211 17.6845C4.09969 17.9793 4.50856 18.2704 4.95151 18.554C5.04363 18.6127 5.14711 18.6702 5.24302 18.7289C5.61403 18.9575 6.0065 19.1811 6.41916 19.4009C6.57186 19.4821 6.72455 19.5621 6.8823 19.642C7.34291 19.8744 7.82624 20.1005 8.33481 20.3191C8.4181 20.3553 8.49381 20.3928 8.57836 20.4278C9.17022 20.6764 9.79867 20.9137 10.4524 21.1436C10.6328 21.2073 10.8221 21.2673 11.0076 21.3297C11.5275 21.5034 12.0651 21.6695 12.6217 21.8306C12.8223 21.8881 13.0192 21.9481 13.2249 22.003C13.9631 22.2054 14.7253 22.3978 15.5254 22.5752C15.6352 22.6002 15.7538 22.6201 15.8649 22.6439C16.5703 22.7963 17.3022 22.9374 18.0544 23.0699C18.3093 23.1148 18.568 23.1573 18.828 23.1998C19.5435 23.316 20.2805 23.4221 21.0364 23.5196C21.2307 23.5446 21.4162 23.5733 21.6131 23.597C22.552 23.7095 23.5237 23.8056 24.5219 23.8881C24.768 23.9081 25.0241 23.9231 25.274 23.9406C26.0728 23.998 26.8893 24.0455 27.7247 24.083C28.0289 24.0967 28.3317 24.1105 28.6422 24.1217C29.73 24.1579 30.838 24.1842 31.9863 24.1842C33.1347 24.1842 34.2427 24.1579 35.3305 24.1217C35.6397 24.1105 35.9426 24.0967 36.248 24.083C37.0834 24.0455 37.8999 23.998 38.6987 23.9406C38.9485 23.9218 39.2035 23.9081 39.4508 23.8881C40.449 23.8069 41.4207 23.7095 42.3596 23.597C42.5565 23.5733 42.742 23.5446 42.9363 23.5196C43.6922 23.4221 44.4279 23.316 45.1447 23.1998C45.4047 23.1573 45.6634 23.1148 45.9183 23.0699C46.6704 22.9374 47.4024 22.7963 48.1078 22.6439C48.2189 22.6201 48.3375 22.5989 48.4473 22.5752C49.2473 22.3978 50.0096 22.2042 50.7478 22.003C50.9535 21.9468 51.1504 21.8881 51.351 21.8306C51.9075 21.6695 52.4451 21.5034 52.9651 21.3297C53.1506 21.2673 53.3399 21.2073 53.5203 21.1436C54.174 20.9137 54.8037 20.6764 55.3943 20.4278C55.4789 20.3928 55.5546 20.3553 55.6379 20.3191C56.1464 20.0992 56.6298 19.8744 57.0904 19.642C57.2481 19.5621 57.4021 19.4821 57.5535 19.4009C57.9662 19.1823 58.3587 18.9587 58.7297 18.7289C58.8256 18.6702 58.9291 18.6127 59.0212 18.554C59.4641 18.2704 59.873 17.9806 60.2516 17.6845C60.3462 17.6096 60.4308 17.5346 60.5229 17.4597C60.687 17.3248 60.8598 17.1911 61.0113 17.0549ZM31.9863 2.94763C49.0921 2.94763 61.0113 7.8845 61.0113 12.3167C61.0113 16.7489 49.0921 21.6857 31.9863 21.6857C14.8806 21.6857 2.96141 16.7489 2.96141 12.3167C2.96141 7.8845 14.8806 2.94763 31.9863 2.94763ZM61.0113 57.5417C60.9936 57.5967 60.981 57.6529 60.9709 57.7104C60.2554 62.0314 48.4372 66.6572 31.9863 66.6572C15.5355 66.6572 3.71732 62.0314 3.00179 57.7104C2.99169 57.6542 2.97781 57.5992 2.96141 57.5467V47.0359C2.99674 47.0684 3.04091 47.0996 3.07751 47.1321C3.35261 47.3719 3.63277 47.6105 3.94826 47.8404C8.70203 51.3994 18.2083 54.1651 31.9863 54.1651C45.7063 54.1651 55.1886 51.4219 59.9626 47.8841C60.3437 47.6093 60.687 47.3257 61.01 47.0371L61.0113 47.0359V57.5417Z" fill="#462E8D"/>
</svg>
