<svg width="64" height="73" viewBox="0 0 64 73" fill="none" xmlns="http://www.w3.org/2000/svg">
<path d="M33.1525 27.8028C28.2669 27.8028 24.3347 31.7359 24.3347 36.6225C24.3347 41.5091 28.2669 45.4422 33.1525 45.4422C38.0381 45.4422 41.9704 41.5091 41.9704 36.6225C41.9704 31.7359 38.0381 27.8028 33.1525 27.8028ZM33.1525 43.0585C29.5777 43.0585 26.7179 40.1981 26.7179 36.6225C26.7179 33.047 29.5777 30.1866 33.1525 30.1866C36.7273 30.1866 39.5871 33.047 39.5871 36.6225C39.5871 40.1981 36.7273 43.0585 33.1525 43.0585Z" fill="#462E8D"/>
<path d="M63.6573 22.5588C64.1339 20.1751 63.6573 18.0298 62.3465 16.3613C61.1929 14.6831 59.3005 13.6518 56.7517 13.3471C56.6264 12.5776 56.3314 11.8657 55.9119 11.2362C55.1969 10.1636 54.0054 9.44848 52.6946 9.21006C51.2647 8.97164 49.9539 9.3292 48.8814 10.0443C47.4435 11.104 46.7279 12.7406 46.793 14.3739C46.0226 14.5931 45.2404 14.8366 44.4474 15.1058C41.9018 6.41122 37.8211 0.867188 33.1525 0.867188C28.5794 0.867188 24.5469 6.3527 22.0103 14.9664C13.9404 12.1505 6.99735 11.935 3.95836 16.1227C2.80633 17.694 2.48348 19.8181 3.06927 22.4133C2.53878 22.7569 2.06777 23.2048 1.69437 23.7506C0.0260935 26.0151 0.621938 29.2331 2.88592 30.7826C3.71999 31.3785 4.67332 31.7361 5.74575 31.7361C5.98412 31.7361 6.3416 31.7361 6.69907 31.6169C6.99581 31.563 7.28598 31.4833 7.56652 31.3819C8.80722 33.0997 10.2475 34.8528 11.8612 36.6064C6.86022 41.9871 3.57575 47.313 2.88606 51.5208C2.52858 53.7853 2.88606 55.6923 3.83939 57.1225C5.38841 59.2678 8.12913 60.4596 12.0614 60.4596C14.8444 60.4596 18.1889 59.835 22.0394 58.496C24.5575 66.9842 28.5483 72.3779 33.1525 72.3779C35.2619 72.3779 37.1842 71.3491 38.9201 69.4604C39.5285 69.7264 40.1973 69.875 40.8979 69.875C43.6386 69.875 45.9026 67.6106 45.9026 64.8693C45.9026 63.1298 44.9903 61.5834 43.624 60.6847C43.9016 59.8778 44.1649 59.0454 44.4129 58.1882C48.6491 59.6547 52.5433 60.4594 55.6738 60.4594C56.6271 60.4594 57.5803 60.3402 58.4145 60.1018C60.4403 59.7443 61.7509 58.7907 62.5851 57.4798C65.6993 52.234 62.8954 44.8459 55.0267 36.6726C59.9915 31.4949 63.0418 26.5948 63.6573 22.5588ZM50.3115 11.9514C50.7881 11.5938 51.2648 11.4747 51.8605 11.4747C51.9796 11.4747 52.218 11.5938 52.3371 11.4747C53.052 11.5938 53.6479 11.9514 54.0054 12.5473C54.2619 12.868 54.414 13.2233 54.482 13.5944V14.3351C54.482 14.4407 54.4761 14.5463 54.4646 14.6512C54.331 15.2304 53.9797 15.8998 53.4095 16.242C52.218 17.0762 50.5497 16.838 49.7156 15.646C48.8816 14.4541 49.1199 12.7856 50.3115 11.9514ZM47.4075 16.6121C47.493 16.7699 47.5865 16.9251 47.69 17.0762C47.8852 17.3412 48.1007 17.5807 48.3314 17.7964C48.3361 17.8008 48.3407 17.8055 48.3455 17.8099C48.392 17.8531 48.4395 17.8947 48.4872 17.9358C49.4648 18.7917 50.6623 19.2216 51.8605 19.2216C52.8138 19.2216 53.8863 18.864 54.7203 18.268C54.9866 18.1016 55.224 17.8969 55.4371 17.6665C56.0019 17.0799 56.4121 16.3371 56.6363 15.5284C58.3 15.7681 59.6075 16.4824 60.44 17.5531C61.3933 18.7449 61.6315 20.1751 61.3933 21.9629C60.8525 25.5463 57.9333 30.0888 53.2684 34.9155C51.3937 33.1079 49.28 31.2676 46.9369 29.4085C46.5954 25.0268 45.9472 20.9561 45.05 17.3405C45.848 17.0709 46.6346 16.8278 47.4075 16.6121ZM39.8255 46.1574C37.6109 47.713 35.4229 49.129 33.2867 50.3988C31.0885 49.1443 28.8471 47.7316 26.5988 46.1574C24.9217 44.9832 23.3111 43.7693 21.7759 42.5301C21.6576 40.6332 21.5941 38.6623 21.5941 36.6226C21.5941 34.5837 21.6576 32.6136 21.7757 30.7173C23.3111 29.4828 24.9228 28.2681 26.5988 27.0877C28.7702 25.5416 30.9756 24.1212 33.1767 22.8428C35.3629 24.1154 37.5901 25.5332 39.8255 27.0877C41.4875 28.2526 43.0628 29.4174 44.5506 30.5768C44.6669 32.5161 44.7235 34.5332 44.7111 36.6226C44.7111 38.6765 44.6421 40.7094 44.5089 42.7011C43.0224 43.8601 41.4591 45.015 39.8255 46.1574ZM44.2141 46.1048C43.8795 49.2312 43.38 52.2158 42.7303 54.9713C40.5268 54.098 38.2044 53.0361 35.8117 51.7812C37.4938 50.7595 39.2284 49.6432 41.017 48.422C42.1161 47.6522 43.1819 46.8793 44.2141 46.1048ZM30.8533 51.7939C28.338 53.1836 25.9122 54.3574 23.6194 55.3022C22.9348 52.4734 22.3939 49.295 22.0437 45.8233C23.0965 46.6267 24.1782 47.4152 25.288 48.1835C27.1076 49.4717 28.9732 50.6772 30.8533 51.7939ZM19.286 40.4407C17.8338 39.1729 16.4645 37.8875 15.1891 36.598C16.4612 35.3274 17.8317 34.0543 19.2879 32.7931C19.2372 34.0497 19.2108 35.3268 19.2108 36.6226C19.2108 37.9144 19.2365 39.1877 19.286 40.4407ZM22.0398 27.4602C22.3843 24.0287 22.9152 20.8838 23.587 18.0785C25.8979 19.0146 28.3348 20.171 30.8448 21.5317C28.9513 22.6569 27.053 23.8762 25.1689 25.1808C24.0996 25.9251 23.0561 26.6865 22.0398 27.4602ZM35.5928 21.4962C38.0331 20.1924 40.4498 19.0734 42.7906 18.163C43.4486 20.9248 43.9664 24.0135 44.298 27.3794C43.3177 26.6483 42.3044 25.9152 41.2554 25.1808C39.4081 23.8829 37.5097 22.6481 35.5928 21.4962ZM47.1302 32.6552C48.7314 33.9908 50.2115 35.3147 51.562 36.6185C50.2005 37.9314 48.7182 39.2591 47.1271 40.5887C47.1837 39.2812 47.2134 37.9582 47.2134 36.6226C47.2133 35.2794 47.1845 33.9563 47.1302 32.6552ZM33.1525 3.25092C36.4636 3.25092 39.9411 7.95946 42.2063 15.9216C39.3116 17.0424 36.3049 18.4637 33.2645 20.1439C30.2118 18.431 27.145 16.9489 24.1907 15.7795C26.447 7.90387 29.8612 3.25092 33.1525 3.25092ZM4.19673 28.8755C3.00518 28.0413 2.76681 26.3726 3.60088 25.1808C3.77236 24.9236 3.99048 24.7134 4.23778 24.5487L4.91154 24.3464C5.74561 24.108 6.57982 24.2273 7.29478 24.704C7.87205 25.0504 8.22353 25.6216 8.35325 26.3073C8.45477 26.975 8.30577 27.6864 7.89049 28.2795C7.53301 28.8755 6.93716 29.2331 6.22221 29.3522C5.50725 29.4713 4.79257 29.2331 4.19673 28.8755ZM9.91638 29.7099C10.0615 29.4681 10.1909 29.2212 10.3044 28.9706C11.4656 26.7711 10.7891 23.9716 8.72469 22.5588C7.70798 21.8095 6.49925 21.5183 5.33549 21.6283C4.93361 19.9411 5.17895 18.5822 5.86487 17.5531C8.05708 14.4696 13.9126 14.578 21.3926 17.2422C20.4813 20.9025 19.824 25.0338 19.4813 29.4834C17.3374 31.244 15.3439 33.0519 13.5356 34.8669C12.0492 33.2544 10.7157 31.6454 9.55877 30.0675C9.67802 29.9482 9.79727 29.829 9.91638 29.7099ZM5.865 55.692C5.26916 54.7385 5.03093 53.4276 5.26916 51.8781C5.87632 48.0997 8.88989 43.29 13.5088 38.3355C15.3266 40.1797 17.3269 42.0106 19.4785 43.7869C19.8209 48.2911 20.482 52.4676 21.4028 56.1601C13.9553 58.8441 8.20328 58.8564 5.865 55.692ZM40.8979 67.3722C39.4881 67.3722 38.3123 66.213 38.2795 64.8097C38.3123 63.4063 39.4881 62.2471 40.8979 62.2471C41.2554 62.2471 41.4938 62.2471 41.8512 62.3663L42.1913 62.4797C42.9793 62.9358 43.5194 63.7881 43.5194 64.75C43.5194 66.1804 42.3278 67.3722 40.8979 67.3722ZM41.3745 59.7444C38.3956 59.3868 35.774 61.7706 35.774 64.7502C35.774 65.942 36.2506 67.1339 36.9655 67.9681C35.6547 69.2792 34.4632 69.9943 33.1524 69.9943C29.8897 69.9943 26.5062 65.4221 24.2495 57.6707C27.0519 56.5534 30.0937 55.0825 33.3583 53.2256C36.3149 54.8456 39.2736 56.2292 42.1185 57.3411C41.8852 58.1686 41.637 58.971 41.3745 59.7444ZM60.6784 56.288C60.2018 57.0031 59.3676 57.5991 58.0569 57.8374C55.2922 58.4385 50.6472 57.7957 45.0408 55.8339C45.9318 52.2046 46.568 48.2165 46.9131 44.0144C49.2692 42.1286 51.4141 40.2436 53.3245 38.3855C60.2649 45.6152 63.0564 52.0858 60.6784 56.288Z" fill="#462E8D"/>
</svg>
