<svg width="68" height="70" viewBox="0 0 68 70" fill="none" xmlns="http://www.w3.org/2000/svg">
<path d="M65.5996 53.6941L51.977 44.4194C50.2483 43.2519 47.931 43.6361 46.6529 45.3022L42.6848 50.5109C42.1748 51.1974 41.2478 51.3965 40.5101 50.9781L39.7552 50.5533C37.253 49.1609 34.1396 47.4274 27.8666 41.021C21.5937 34.6146 19.8923 31.4337 18.5284 28.8839L18.1145 28.1133C17.699 27.3602 17.8904 26.4098 18.5631 25.885L23.6617 21.8352C25.293 20.5303 25.6698 18.1652 24.5275 16.3997L15.4428 2.49233C14.2721 0.69456 11.9234 0.154881 10.1111 1.26711L4.41458 4.76054C2.62471 5.8348 1.31155 7.5746 0.750459 9.61537C-1.30083 17.2458 0.242334 30.4146 19.244 49.8158C34.3595 65.2461 45.6122 69.3956 53.3466 69.3956C55.1266 69.4034 56.8996 69.167 58.618 68.6927C60.6174 68.1205 62.3218 66.7798 63.3734 64.9519L66.7987 59.1399C67.8898 57.2892 67.3614 54.8899 65.5996 53.6941ZM64.8661 57.965L61.4487 63.7805C60.6936 65.0998 59.4677 66.0698 58.0279 66.4874C51.128 68.4213 39.0734 66.8195 20.831 48.1957C2.58856 29.572 1.01964 17.2664 2.914 10.2212C3.32354 8.74949 4.27486 7.49637 5.5687 6.72429L11.2652 3.23543C12.0516 2.75237 13.071 2.98652 13.579 3.76665L22.6559 17.6729C23.152 18.4386 22.989 19.465 22.2813 20.0316L17.1816 24.0815C15.6296 25.293 15.1864 27.4852 16.1419 29.225L16.5469 29.9761C17.9803 32.66 19.7624 35.9989 26.2686 42.6401C32.7749 49.2811 36.0443 51.1006 38.6721 52.5639L39.4089 52.9784C41.1129 53.9537 43.2603 53.5014 44.447 51.917L48.414 46.7106C48.9692 45.9886 49.9741 45.8223 50.7245 46.3282L64.3459 55.6028C65.1106 56.121 65.3399 57.1623 64.8661 57.965Z" fill="#462E8D"/>
<path d="M38.1985 12.1434C48.7239 12.1554 57.2534 20.8634 57.2653 31.6088C57.2653 32.2412 57.7673 32.7538 58.3868 32.7538C59.0062 32.7538 59.5083 32.2412 59.5083 31.6088C59.4953 19.5991 49.9623 9.86664 38.1985 9.85349C37.5791 9.85349 37.077 10.3661 37.077 10.9985C37.077 11.6309 37.5791 12.1434 38.1985 12.1434Z" fill="#462E8D"/>
<path d="M38.1985 19.0134C45.0089 19.0216 50.5278 24.6559 50.5358 31.6086C50.5358 32.241 51.038 32.7536 51.6574 32.7536C52.2768 32.7536 52.7789 32.241 52.7789 31.6086C52.7696 23.3916 46.2471 16.7328 38.1985 16.7234C37.5791 16.7234 37.077 17.236 37.077 17.8684C37.077 18.5008 37.5791 19.0134 38.1985 19.0134Z" fill="#462E8D"/>
<path d="M38.1985 25.8837C41.2941 25.8874 43.8026 28.4484 43.8064 31.6088C43.8064 32.2412 44.3086 32.7538 44.9279 32.7538C45.5473 32.7538 46.0495 32.2412 46.0495 31.6088C46.0445 27.1843 42.5324 23.5987 38.1985 23.5937C37.5791 23.5937 37.077 24.1063 37.077 24.7387C37.077 25.3711 37.5791 25.8837 38.1985 25.8837Z" fill="#462E8D"/>
</svg>
