<svg width="67" height="72" viewBox="0 0 67 72" fill="none" xmlns="http://www.w3.org/2000/svg">
<path d="M33.4491 10.8305C21.0938 10.8305 11.0424 20.9294 11.0424 33.3431C11.0424 42.7614 16.8299 51.1043 25.5408 54.3991V66.45C25.5408 67.1823 26.13 67.7742 26.8589 67.7742H28.1769V70.4228C28.1769 71.1551 28.7661 71.7471 29.4949 71.7471H37.4032C38.1321 71.7471 38.7212 71.1551 38.7212 70.4228V67.7742H40.0393C40.7682 67.7742 41.3573 67.1823 41.3573 66.45V54.3991C50.0682 51.1043 55.8558 42.7614 55.8558 33.3431C55.8558 20.9294 45.8044 10.8305 33.4491 10.8305ZM37.4032 65.1257C36.6743 65.1257 36.0852 65.7176 36.0852 66.45V69.0985H30.813V66.45C30.813 65.7176 30.2238 65.1257 29.4949 65.1257H28.1769V58.5043H38.7212V65.1257H37.4032ZM39.628 52.2034C39.0863 52.3822 38.7212 52.8907 38.7212 53.4615V55.8558H28.1769V53.4615C28.1769 52.8894 27.8118 52.3822 27.2701 52.2034C19.1417 49.5178 13.6785 41.9377 13.6785 33.3431C13.6785 22.3901 22.5476 13.4791 33.4491 13.4791C44.3506 13.4791 53.2197 22.3901 53.2197 33.3431C53.2197 41.9377 47.7564 49.5178 39.628 52.2034Z" fill="#462E8D"/>
<path d="M33.4491 8.18196C34.1779 8.18196 34.7671 7.59001 34.7671 6.85769V1.5606C34.7671 0.828278 34.1779 0.236328 33.4491 0.236328C32.7202 0.236328 32.131 0.828278 32.131 1.5606V6.85769C32.131 7.59001 32.7202 8.18196 33.4491 8.18196Z" fill="#462E8D"/>
<path d="M65.0821 32.0189H59.8099C59.081 32.0189 58.4918 32.6108 58.4918 33.3431C58.4918 34.0755 59.081 34.6674 59.8099 34.6674H65.0821C65.8109 34.6674 66.4001 34.0755 66.4001 33.3431C66.4001 32.6108 65.8109 32.0189 65.0821 32.0189Z" fill="#462E8D"/>
<path d="M7.08825 32.0189H1.81609C1.08721 32.0189 0.498047 32.6108 0.498047 33.3431C0.498047 34.0755 1.08721 34.6674 1.81609 34.6674H7.08825C7.81713 34.6674 8.40629 34.0755 8.40629 33.3431C8.40629 32.6108 7.81713 32.0189 7.08825 32.0189Z" fill="#462E8D"/>
<path d="M54.8857 9.93265L51.1583 13.6777C50.6429 14.1955 50.6429 15.0324 51.1583 15.5502C51.4153 15.8085 51.7527 15.9382 52.0901 15.9382C52.4275 15.9382 52.765 15.8085 53.022 15.5502L56.7494 11.8052C57.2648 11.2874 57.2648 10.4504 56.7494 9.93265C56.234 9.41486 55.3997 9.41619 54.8857 9.93265Z" fill="#462E8D"/>
<path d="M13.8762 51.1361L10.1487 54.8811C9.63339 55.3989 9.63339 56.2359 10.1487 56.7536C10.4058 57.0119 10.7432 57.1417 11.0806 57.1417C11.418 57.1417 11.7554 57.0119 12.0125 56.7536L15.7399 53.0086C16.2552 52.4908 16.2552 51.6539 15.7399 51.1361C15.2245 50.6183 14.3915 50.6183 13.8762 51.1361Z" fill="#462E8D"/>
<path d="M53.022 51.1361C52.5066 50.6183 51.6736 50.6183 51.1583 51.1361C50.6429 51.6539 50.6429 52.4908 51.1583 53.0086L54.8857 56.7536C55.1427 57.0119 55.4801 57.1417 55.8175 57.1417C56.155 57.1417 56.4924 57.0119 56.7494 56.7536C57.2648 56.2359 57.2648 55.3989 56.7494 54.8811L53.022 51.1361Z" fill="#462E8D"/>
<path d="M13.8762 15.5502C14.1332 15.8085 14.4706 15.9382 14.808 15.9382C15.1454 15.9382 15.4829 15.8085 15.7399 15.5502C16.2552 15.0324 16.2552 14.1955 15.7399 13.6777L12.0125 9.93265C11.4971 9.41486 10.6641 9.41486 10.1487 9.93265C9.63339 10.4504 9.63339 11.2874 10.1487 11.8052L13.8762 15.5502Z" fill="#462E8D"/>
<path d="M46.2508 28.8617C46.7549 28.3437 46.7549 27.504 46.2508 26.9861C45.7467 26.4682 44.9294 26.4682 44.4253 26.9861L29.2649 42.5619C28.7608 43.0798 28.7608 43.9195 29.265 44.4374C29.7691 44.9554 30.5864 44.9554 31.0905 44.4374L46.2508 28.8617Z" fill="#462E8D"/>
<path d="M23.5934 34.8708C23.0893 34.3529 22.272 34.3529 21.7679 34.8708C21.2638 35.3888 21.2638 36.2285 21.7679 36.7464L29.2679 44.4355C29.772 44.9534 30.5894 44.9534 31.0935 44.4355C31.5976 43.9176 31.5976 43.0779 31.0935 42.56L23.5934 34.8708Z" fill="#462E8D"/>
</svg>
