<svg width="67" height="50" viewBox="0 0 67 50" fill="none" xmlns="http://www.w3.org/2000/svg">
<path d="M63.2437 0.03125H3.93182C2.11205 0.03125 0.636719 1.46415 0.636719 3.23186V45.9066C0.636719 47.6742 2.11192 49.1072 3.93182 49.1072H63.2437C65.0634 49.1072 66.5388 47.6743 66.5388 45.9066V3.23186C66.5388 1.46427 65.0636 0.03125 63.2437 0.03125ZM64.342 45.9068C64.342 46.496 63.8503 46.9736 63.2437 46.9736H3.93182C3.32519 46.9736 2.8335 46.496 2.8335 45.9068V3.23186C2.8335 2.64262 3.32519 2.16503 3.93182 2.16503H63.2437C63.8503 2.16503 64.342 2.64262 64.342 3.23186V45.9068Z" fill="#462E8D"/>
<path d="M64.5475 1.36647C64.2573 1.34184 63.9688 1.43023 63.7458 1.61227L35.0012 25.2243C34.184 25.8916 32.9912 25.8916 32.1739 25.2243L3.48881 1.71216C3.18826 1.46711 2.77586 1.39635 2.40709 1.52663C2.03832 1.6569 1.76905 1.96846 1.70083 2.34391C1.63261 2.71935 1.77574 3.10155 2.07629 3.3466L30.7616 26.8576C32.3947 28.1933 34.7806 28.1933 36.4138 26.8576L65.1582 3.2467C65.3814 3.06479 65.5209 2.80424 65.5462 2.52232C65.5716 2.24039 65.4806 1.96021 65.2932 1.74354C65.106 1.52662 64.8378 1.3911 64.5475 1.36647Z" fill="#462E8D"/>
<path d="M21.762 26.711C21.3731 26.6267 20.9679 26.7535 20.7028 27.0423L5.32561 43.0453C5.04733 43.3221 4.94513 43.7237 5.05866 44.0945C5.17219 44.4655 5.48355 44.7475 5.87227 44.8318C6.26111 44.9161 6.66631 44.7893 6.93146 44.5005L22.3086 28.4974C22.5869 28.2206 22.6891 27.819 22.5756 27.4482C22.4621 27.0774 22.1508 26.7952 21.762 26.711Z" fill="#462E8D"/>
<path d="M46.4729 27.0423C46.2079 26.7535 45.8025 26.6267 45.4137 26.711C45.0248 26.7952 44.7136 27.0774 44.6001 27.4482C44.4865 27.8192 44.5888 28.2206 44.867 28.4974L60.2442 44.5005C60.6613 44.9153 61.3429 44.9308 61.7794 44.5352C62.2159 44.1397 62.2473 43.478 61.8501 43.0452L46.4729 27.0423Z" fill="#462E8D"/>
</svg>
