<svg width="70" height="75" viewBox="0 0 70 75" fill="none" xmlns="http://www.w3.org/2000/svg">
<path d="M68.7387 8.91004H40.0943C39.8967 8.14511 39.5198 7.45203 39.0123 6.87652V1.47878C39.0123 0.793827 38.4588 0.240234 37.7738 0.240234H32.8195C32.1345 0.240234 31.5809 0.793827 31.5809 1.47878V6.87638C31.0735 7.45189 30.6966 8.14496 30.499 8.90989H1.85475C1.1698 8.90989 0.616211 9.46479 0.616211 10.1484C0.616211 10.8321 1.1698 11.387 1.85475 11.387H11.1914L3.19055 31.9609C3.19026 31.9615 3.19011 31.9622 3.18982 31.9628L3.17763 31.9943C3.17502 32.0011 3.17342 32.0079 3.17081 32.0148C3.16006 32.0439 3.15005 32.0734 3.14134 32.1034C3.138 32.1152 3.13524 32.127 3.13234 32.1387C3.12552 32.1659 3.11913 32.1931 3.11405 32.221C3.11115 32.2367 3.10912 32.2522 3.10694 32.2679C3.1036 32.2918 3.10026 32.3158 3.09823 32.3402C3.09664 32.3593 3.09605 32.3783 3.09533 32.3974C3.09475 32.4127 3.09301 32.4277 3.09301 32.4432C3.09301 32.4512 3.09388 32.4591 3.09388 32.4672C3.09402 32.4771 3.0946 32.4869 3.09504 32.4968C3.13974 35.944 7.47414 38.6362 13.0016 38.6362C18.5203 38.6362 22.8471 35.9539 22.9075 32.5158C22.9087 32.4955 22.9097 32.4752 22.9098 32.4546C22.9098 32.4508 22.9103 32.447 22.9103 32.4432C22.9103 32.436 22.9093 32.4289 22.9091 32.4216C22.9085 32.391 22.9074 32.3603 22.9045 32.3296C22.9033 32.3162 22.9014 32.303 22.8997 32.2898C22.8963 32.2635 22.8927 32.2374 22.8876 32.2111C22.8843 32.1933 22.8801 32.1759 22.8759 32.1583C22.8708 32.1371 22.8657 32.1159 22.8596 32.0949C22.8534 32.0737 22.8461 32.0531 22.8389 32.0325C22.8344 32.0198 22.8312 32.0071 22.8262 31.9944L14.8126 11.3871H30.499C30.6966 12.1521 31.0735 12.8451 31.5809 13.4206V67.1237H26.6265C23.2117 67.1237 20.4335 69.9019 20.4335 73.3168C20.4335 74.0004 20.9871 74.5553 21.672 74.5553H48.921C49.6059 74.5553 50.1595 74.0004 50.1595 73.3168C50.1595 69.902 47.3814 67.1237 43.9665 67.1237H39.0122V13.4208C39.5196 12.8453 39.8966 12.1522 40.0941 11.3873H55.7805L47.7798 31.9608C47.7795 31.9615 47.7793 31.9624 47.779 31.9631L47.7669 31.9941C47.7643 32.0008 47.7627 32.0076 47.7602 32.0143C47.7494 32.0436 47.7393 32.0731 47.7308 32.1034C47.7274 32.1151 47.7248 32.1267 47.7218 32.1383C47.7148 32.1656 47.7084 32.193 47.7033 32.221C47.7004 32.2365 47.6984 32.2521 47.6962 32.2676C47.6927 32.2917 47.6896 32.3156 47.6875 32.3402C47.6859 32.3592 47.6853 32.3782 47.6846 32.3972C47.684 32.4126 47.6823 32.4277 47.6823 32.4431C47.6823 32.4512 47.6832 32.4591 47.6832 32.467C47.6833 32.4768 47.6839 32.4865 47.6843 32.4964C47.7289 35.9438 52.0633 38.6359 57.5909 38.6359C63.1096 38.6359 67.4364 35.9536 67.4968 32.5155C67.498 32.4952 67.499 32.4747 67.4991 32.4543C67.4991 32.4505 67.4996 32.4469 67.4996 32.4431C67.4996 32.4358 67.4985 32.4289 67.4984 32.4216C67.4978 32.3908 67.4967 32.3602 67.4938 32.3293C67.4926 32.3159 67.4907 32.3029 67.489 32.2897C67.4856 32.2634 67.482 32.2371 67.4769 32.2108C67.4736 32.193 67.4694 32.1756 67.4652 32.158C67.4601 32.1368 67.455 32.1156 67.4489 32.0946C67.4427 32.0734 67.4354 32.0528 67.4282 32.0322C67.4237 32.0195 67.4205 32.0068 67.4155 31.9941L59.4019 11.3871H68.7387C69.4236 11.3871 69.9772 10.8322 69.9772 10.1486C69.9772 9.46494 69.4236 8.91004 68.7387 8.91004ZM13.0021 13.5652L19.8616 31.2047H6.14255L13.0021 13.5652ZM13.0016 36.159C9.64627 36.159 7.07005 35.0096 6.04937 33.6818H19.9551C18.9332 35.0096 16.357 36.159 13.0016 36.159ZM57.5914 13.5652L64.4509 31.2047H50.7318L57.5914 13.5652ZM57.5909 36.159C54.2356 36.159 51.6593 35.0096 50.6387 33.6818H64.5444C63.5225 35.0096 60.9463 36.159 57.5909 36.159ZM33.7391 12.0725C33.6801 12.0069 33.6143 11.9478 33.5426 11.896C33.096 11.4478 32.8195 10.8299 32.8195 10.1486C32.8195 9.46726 33.096 8.84937 33.5426 8.40115C33.6143 8.34948 33.6799 8.2904 33.7389 8.22494C34.1647 7.87935 34.7067 7.67135 35.2967 7.67135C35.8867 7.67135 36.4286 7.87935 36.8546 8.22494C36.9135 8.2904 36.9793 8.34948 37.0508 8.40115C37.4974 8.84937 37.774 9.46711 37.774 10.1486C37.774 10.83 37.4974 11.4478 37.0508 11.896C36.9791 11.9477 36.9134 12.0069 36.8543 12.0725C36.4284 12.418 35.8867 12.6258 35.2969 12.6258C34.7068 12.6258 34.165 12.418 33.7391 12.0725ZM36.5353 2.71747V5.35088C36.1393 5.24855 35.7242 5.19412 35.2967 5.19412C34.8691 5.19412 34.4541 5.24855 34.0582 5.35088V2.71747H36.5353ZM47.4707 72.0782H23.1225C23.634 70.6365 25.0113 69.601 26.6265 69.601H32.8196H37.774H43.9668C45.5819 69.601 46.9592 70.6365 47.4707 72.0782ZM34.058 67.1237V14.9461C34.454 15.0485 34.8691 15.1029 35.2966 15.1029C35.7242 15.1029 36.1392 15.0485 36.5351 14.9461V67.1237H34.058Z" fill="#462E8D"/>
</svg>
