<svg width="53" height="82" viewBox="0 0 53 82" fill="none" xmlns="http://www.w3.org/2000/svg">
<path d="M52.1411 33.171C52.1411 25.1337 48.4129 17.9459 42.5842 13.2195V1.996C42.5842 1.24787 41.974 0.640625 41.219 0.640625H11.1828C10.4278 0.640625 9.81761 1.24787 9.81761 1.996V13.2195C3.9889 17.9459 0.260742 25.1337 0.260742 33.171C0.260742 41.2083 3.9889 48.3961 9.81761 53.1225V80.6112C9.81761 81.1587 10.1494 81.6535 10.66 81.8636C11.1705 82.0723 11.7577 81.9572 12.1481 81.5694L26.2009 67.6179L40.2537 81.5694C40.5145 81.8284 40.8639 81.9665 41.219 81.9665C41.3951 81.9665 41.5726 81.9327 41.7418 81.8636C42.2524 81.6535 42.5842 81.1588 42.5842 80.6112V53.1225C48.4129 48.3961 52.1411 41.2083 52.1411 33.171ZM12.5482 3.35154H39.8538V11.2827C38.3458 10.3522 36.7358 9.57027 35.0436 8.95938C35.0045 8.94524 34.965 8.93206 34.9258 8.91808C34.725 8.84676 34.5233 8.77782 34.3202 8.71111C34.2249 8.67982 34.1295 8.64885 34.0338 8.61867C33.8751 8.56863 33.7155 8.52066 33.5555 8.47365C33.3847 8.42329 33.2136 8.37516 33.0419 8.32847C32.8998 8.28987 32.7577 8.25127 32.6145 8.21505C32.4784 8.18059 32.3418 8.14786 32.205 8.11562C32.0922 8.08894 31.9791 8.0632 31.8658 8.03811C31.7266 8.00713 31.5874 7.97616 31.4477 7.94757C31.2885 7.91501 31.1284 7.88514 30.9682 7.85544C30.7833 7.82129 30.5978 7.7892 30.4118 7.75903C30.2785 7.73726 30.1451 7.71598 30.0111 7.69644C29.886 7.67818 29.7607 7.66054 29.6352 7.64403C29.475 7.6229 29.3144 7.604 29.1533 7.58573C29.0561 7.57477 28.9592 7.56238 28.8619 7.55253C28.6123 7.52712 28.3614 7.50615 28.1098 7.48789C28.0216 7.48153 27.9331 7.47661 27.8448 7.47121C27.6525 7.45914 27.4596 7.44929 27.2661 7.4415C27.1818 7.43817 27.0977 7.43452 27.0133 7.43197C26.7434 7.42371 26.4729 7.41816 26.2009 7.41816C25.9289 7.41816 25.6584 7.42371 25.3885 7.43197C25.3041 7.43452 25.2198 7.43817 25.1357 7.4415C24.9422 7.44929 24.7494 7.45929 24.557 7.47121C24.4687 7.47661 24.3802 7.48153 24.292 7.48789C24.0404 7.50615 23.7896 7.52728 23.5401 7.55253C23.4426 7.56238 23.3457 7.57477 23.2485 7.58573C23.0876 7.604 22.927 7.6229 22.7668 7.64403C22.6412 7.66054 22.5159 7.67802 22.3908 7.69644C22.2569 7.71614 22.1235 7.73742 21.9904 7.75903C21.8038 7.78936 21.6179 7.82145 21.4325 7.85576C21.2728 7.8853 21.1131 7.91516 20.9544 7.94757C20.8146 7.97616 20.6754 8.00729 20.536 8.03827C20.4228 8.06336 20.3098 8.08909 20.1972 8.11562C20.0604 8.14802 19.9236 8.18059 19.7874 8.21521C19.6445 8.25143 19.5025 8.29003 19.3604 8.32862C19.1886 8.37532 19.0172 8.42361 18.8465 8.47396C18.6865 8.52098 18.527 8.56895 18.3684 8.61898C18.2728 8.64916 18.1772 8.68014 18.0817 8.71159C17.8789 8.77814 17.6771 8.84708 17.4763 8.9184C17.4371 8.93237 17.3976 8.94556 17.3586 8.95969C15.6663 9.57075 14.0563 10.3527 12.5484 11.283L12.5482 3.35154ZM39.8536 77.3391L27.1661 64.7431C26.8999 64.4788 26.5503 64.346 26.2009 64.346C25.8513 64.346 25.5019 64.4788 25.2357 64.7431L12.5482 77.3391V55.0593C14.0561 55.9896 15.666 56.7716 17.3581 57.3826C17.3976 57.3969 17.4376 57.4102 17.4773 57.4244C17.6774 57.4955 17.8787 57.5643 18.0811 57.6307C18.1766 57.6622 18.2723 57.6931 18.3681 57.7235C18.5267 57.7735 18.6862 57.8213 18.8462 57.8683C19.0169 57.9187 19.1882 57.967 19.3601 58.0137C19.5022 58.0523 19.6441 58.0907 19.7871 58.1271C19.9233 58.1617 20.06 58.1943 20.1968 58.2267C20.3095 58.2532 20.4224 58.2789 20.5357 58.304C20.6751 58.335 20.8143 58.366 20.9541 58.3947C21.1128 58.4273 21.2725 58.457 21.4321 58.4865C21.6176 58.5209 21.8037 58.5529 21.99 58.5833C22.1233 58.605 22.2566 58.6262 22.3905 58.6459C22.5156 58.6641 22.6409 58.6818 22.7665 58.6983C22.9265 58.7194 23.0873 58.7383 23.2482 58.7566C23.3455 58.7675 23.4423 58.7799 23.5397 58.7898C23.7893 58.8152 24.0402 58.8361 24.2917 58.8544C24.3799 58.8608 24.4683 58.8657 24.5567 58.8711C24.749 58.8832 24.9419 58.893 25.1353 58.9008C25.2197 58.9041 25.3038 58.9078 25.3881 58.9103C25.658 58.9186 25.9286 58.9241 26.2006 58.9241C26.4726 58.9241 26.7431 58.9186 27.013 58.9103C27.0973 58.9078 27.1817 58.9041 27.2658 58.9008C27.4592 58.893 27.652 58.883 27.8445 58.8711C27.9328 58.8657 28.0213 58.8608 28.1095 58.8544C28.3611 58.8361 28.6118 58.815 28.8616 58.7898C28.959 58.7799 29.0558 58.7675 29.1529 58.7566C29.3139 58.7383 29.4747 58.7194 29.6348 58.6983C29.7604 58.6818 29.8857 58.6643 30.0108 58.6459C30.1447 58.6262 30.2782 58.6049 30.4114 58.5833C30.5973 58.5531 30.7829 58.521 30.9679 58.4869C31.1281 58.4572 31.2882 58.4273 31.4474 58.3947C31.5872 58.3661 31.7263 58.335 31.8655 58.3042C31.9787 58.2791 32.0918 58.2534 32.2046 58.2267C32.3414 58.1944 32.4781 58.1617 32.6142 58.1272C32.7573 58.091 32.8993 58.0524 33.0416 58.0138C33.2132 57.9671 33.3844 57.9188 33.5551 57.8687C33.7151 57.8216 33.8746 57.7737 34.0334 57.7236C34.1292 57.6933 34.2247 57.6625 34.3202 57.631C34.5228 57.5646 34.7241 57.4959 34.9244 57.4247C34.964 57.4106 35.0039 57.3972 35.0436 57.3829C36.7358 56.7719 38.3457 55.9901 39.8534 55.0596L39.8536 77.3391ZM40.5326 51.2838C40.4812 51.3135 40.4312 51.3459 40.3833 51.3826C38.3669 52.9326 36.1598 54.1229 33.8252 54.9347C33.7753 54.952 33.7259 54.9701 33.6758 54.987C33.6182 55.0065 33.5601 55.025 33.5023 55.044C33.3822 55.0836 33.262 55.123 33.1411 55.1608C33.1012 55.1731 33.0614 55.1852 33.0216 55.1975C32.8765 55.2418 32.7309 55.2851 32.5845 55.3267C32.5619 55.3331 32.5395 55.3396 32.5169 55.346C31.6107 55.6007 30.6825 55.8023 29.7353 55.9465C29.7326 55.947 29.73 55.9473 29.7273 55.9478C29.164 56.0334 28.5939 56.0985 28.0183 56.143C27.9824 56.1457 27.9466 56.1481 27.9106 56.1506C27.7655 56.1611 27.6199 56.1703 27.474 56.1781C27.4212 56.181 27.3684 56.1837 27.3156 56.1862C27.1804 56.1926 27.0449 56.1975 26.909 56.2016C26.8569 56.2032 26.8047 56.2051 26.7524 56.2064C26.5689 56.2107 26.3851 56.2134 26.2007 56.2134C26.0163 56.2134 25.8324 56.2107 25.6489 56.2064C25.5966 56.2051 25.5445 56.2032 25.4923 56.2016C25.3565 56.1975 25.2209 56.1926 25.0857 56.1862C25.033 56.1837 24.9802 56.181 24.9274 56.1781C24.7814 56.1702 24.636 56.1611 24.4907 56.1506C24.4549 56.1481 24.4189 56.1457 24.3831 56.143C23.8072 56.0985 23.2373 56.0334 22.674 55.9478C22.6713 55.9473 22.6687 55.947 22.666 55.9465C21.7189 55.8023 20.7904 55.6006 19.8842 55.3458C19.8618 55.3395 19.8394 55.3331 19.817 55.3267C19.6706 55.2851 19.5249 55.2418 19.3798 55.1973C19.3399 55.1851 19.3001 55.1731 19.2604 55.1608C19.1394 55.1231 19.0191 55.0837 18.8991 55.044C18.8414 55.025 18.7833 55.0065 18.7257 54.987C18.6756 54.97 18.6262 54.9519 18.5763 54.9347C16.2417 54.1229 14.0345 52.9324 12.0182 51.3826C11.9698 51.3453 11.919 51.3122 11.867 51.2822C6.46543 47.0596 2.99102 40.5107 2.99102 33.171C2.99102 25.8342 6.46288 19.2874 11.8609 15.0647C11.9151 15.0336 11.9679 14.9986 12.0182 14.9594C14.0345 13.4094 16.2417 12.2191 18.5763 11.4073C18.6262 11.3899 18.6756 11.3718 18.7257 11.355C18.7833 11.3355 18.8414 11.317 18.8991 11.298C19.0193 11.2584 19.1394 11.219 19.2604 11.1812C19.3001 11.1688 19.3401 11.1568 19.3798 11.1447C19.525 11.1002 19.6706 11.0569 19.817 11.0152C19.8394 11.0089 19.8618 11.0025 19.8842 10.9962C20.7904 10.7414 21.7187 10.5398 22.666 10.3954C22.6687 10.395 22.6713 10.3947 22.674 10.3942C23.2373 10.3086 23.8074 10.2434 24.3831 10.199C24.4189 10.1963 24.4547 10.1939 24.4907 10.1913C24.6358 10.1809 24.7814 10.1716 24.9274 10.1639C24.9802 10.161 25.033 10.1583 25.0857 10.1558C25.2209 10.1494 25.3565 10.1445 25.4923 10.1403C25.5445 10.1388 25.5966 10.1369 25.6489 10.1356C25.8324 10.1313 26.0163 10.1286 26.2007 10.1286C26.3852 10.1286 26.569 10.1313 26.7524 10.1356C26.8047 10.1369 26.8569 10.1388 26.909 10.1403C27.0449 10.1445 27.1804 10.1494 27.3156 10.1558C27.3684 10.1583 27.4212 10.161 27.474 10.1639C27.6199 10.1718 27.7653 10.1809 27.9106 10.1913C27.9464 10.1939 27.9824 10.1963 28.0183 10.199C28.5941 10.2434 29.164 10.3086 29.7273 10.3942C29.73 10.3947 29.7326 10.395 29.7353 10.3954C30.6825 10.5397 31.6109 10.7414 32.5169 10.996C32.5395 11.0024 32.5619 11.0087 32.5845 11.0152C32.7309 11.0569 32.8763 11.1002 33.0216 11.1445C33.0614 11.1568 33.1014 11.1687 33.1411 11.1812C33.262 11.2189 33.3823 11.2583 33.5023 11.298C33.5601 11.317 33.6182 11.3355 33.6758 11.355C33.7259 11.372 33.7753 11.3901 33.8252 11.4073C36.1598 12.2191 38.3669 13.4096 40.3833 14.9594C40.4316 14.9969 40.4824 15.0296 40.5344 15.0596C45.9361 19.2822 49.4105 25.8312 49.4105 33.1708C49.4106 40.5115 45.9354 47.0612 40.5326 51.2838Z" fill="#462E8D"/>
<path d="M43.8787 27.317C43.7161 26.8386 43.2971 26.4875 42.7946 26.4102L32.3421 24.7918L27.4243 14.9486C26.9629 14.0256 25.4393 14.0256 24.9777 14.9486L20.06 24.7918L9.60751 26.4102C9.10513 26.4874 8.68595 26.8386 8.52356 27.317C8.36245 27.7968 8.48116 28.3255 8.83491 28.69L16.2429 36.317L13.9465 46.4272C13.8333 46.9247 14.0121 47.4437 14.4079 47.769C14.8039 48.0958 15.35 48.1715 15.8237 47.9682L26.201 43.4845L36.5785 47.9682C36.7532 48.0442 36.939 48.0807 37.1233 48.0807C37.4359 48.0807 37.7445 47.9736 37.9943 47.7689C38.3903 47.4436 38.5691 46.9245 38.4557 46.427L36.1593 36.3169L43.5673 28.6898C43.9209 28.3253 44.0398 27.7967 43.8787 27.317ZM33.6828 34.9602C33.3647 35.2896 33.2323 35.7546 33.3347 36.199L35.1997 44.4156L26.746 40.7641C26.5713 40.6896 26.387 40.6516 26.2012 40.6516C26.0154 40.6516 25.8311 40.6896 25.6564 40.7641L17.2027 44.4156L19.0677 36.199C19.1701 35.7544 19.0377 35.2895 18.7196 34.9602L12.625 28.6859L21.1798 27.3616C21.618 27.2938 21.9963 27.0187 22.1914 26.6243L26.201 18.6002L30.2108 26.6243C30.406 27.0187 30.7842 27.294 31.2224 27.3616L39.7773 28.6859L33.6828 34.9602Z" fill="#462E8D"/>
</svg>
