<svg width="60" height="51" viewBox="0 0 60 51" fill="none" xmlns="http://www.w3.org/2000/svg">
<path d="M50.5464 16.6273C50.0292 7.86625 42.7484 0.863281 33.9701 0.863281C28.6413 0.863281 23.4812 3.45557 20.2839 7.68519C20.2113 7.64722 20.1338 7.62191 20.0602 7.58589C19.8659 7.49244 19.6686 7.40289 19.4664 7.32404C19.3536 7.28023 19.2407 7.24032 19.1269 7.20041C18.9286 7.1313 18.7285 7.07094 18.5233 7.01546C18.4095 6.98528 18.2966 6.95413 18.1808 6.92784C17.961 6.8782 17.7373 6.84023 17.5106 6.80714C17.4105 6.79254 17.3123 6.77307 17.2113 6.76139C16.8874 6.72634 16.5577 6.70395 16.223 6.70395C11.3535 6.70395 7.3907 10.6338 7.3907 15.465C7.3907 15.5905 7.39757 15.7132 7.4064 15.8358C3.32489 18.0426 0.521118 22.6675 0.521118 27.2962C0.521118 34.1911 6.17576 39.8011 13.1268 39.8011H18.1858C18.7275 39.8011 19.1671 39.366 19.1671 38.8276C19.1671 38.2893 18.7275 37.8542 18.1858 37.8542H13.1268C7.25821 37.8542 2.48386 33.1184 2.48386 27.2962C2.48386 23.2525 5.13846 19.055 8.79602 17.3155L9.35344 17.0517V16.4384C9.35344 16.3187 9.36129 16.196 9.36816 16.0734L9.37699 15.903L9.36521 15.72C9.36031 15.6353 9.35344 15.5506 9.35344 15.465C9.35344 11.7084 12.4349 8.65084 16.223 8.65084C16.5263 8.65084 16.8256 8.67713 17.1229 8.71606C17.1995 8.7258 17.275 8.73845 17.3506 8.75111C17.6136 8.79394 17.8727 8.8504 18.1279 8.92341C18.1612 8.93314 18.1956 8.93898 18.228 8.94872C18.5086 9.03341 18.7824 9.14146 19.0503 9.26217C19.1181 9.29234 19.1848 9.32544 19.2515 9.35854C19.489 9.47438 19.7216 9.60287 19.9453 9.74694C21.8364 10.9628 23.0926 13.0693 23.0926 15.465C23.0926 16.0033 23.5322 16.4384 24.074 16.4384C24.6157 16.4384 25.0553 16.0033 25.0553 15.465C25.0553 12.7841 23.8325 10.3845 21.915 8.77642C24.7276 5.126 29.3616 2.81017 33.9701 2.81017C41.5698 2.81017 47.8839 8.78226 48.5414 16.3284C47.5385 16.2583 46.036 16.2223 44.5345 16.4501C43.9987 16.5309 43.6307 17.0273 43.7121 17.5588C43.7857 18.0407 44.2038 18.3863 44.6807 18.3863C44.7298 18.3863 44.7799 18.3824 44.8299 18.3746C47.0125 18.0475 49.2883 18.3541 49.4266 18.3726C53.9959 19.2341 57.4405 23.4092 57.4405 28.0925C57.4405 33.4747 53.0253 37.8542 47.5993 37.8542H43.7013C43.1596 37.8542 42.72 38.2893 42.72 38.8276C42.72 39.366 43.1596 39.8011 43.7013 39.8011H47.5993C54.1078 39.8011 59.4032 34.5484 59.4032 28.0925C59.4032 22.7493 55.6475 17.957 50.5464 16.6273Z" fill="white"/>
<path d="M31.6384 26.4591C31.5481 26.3685 31.4391 26.2975 31.3184 26.2478C31.079 26.1495 30.8081 26.1495 30.5687 26.2478C30.448 26.2975 30.34 26.3685 30.2487 26.4591L22.3988 34.2456C22.0151 34.6263 22.0151 35.2415 22.3988 35.6221C22.5901 35.8119 22.8414 35.9073 23.0926 35.9073C23.3438 35.9073 23.5951 35.8119 23.7864 35.6221L29.9622 29.4962V49.5355C29.9622 50.0739 30.4018 50.509 30.9435 50.509C31.4853 50.509 31.9249 50.0739 31.9249 49.5355V29.4962L38.1007 35.6221C38.292 35.8119 38.5433 35.9073 38.7945 35.9073C39.0457 35.9073 39.297 35.8119 39.4883 35.6221C39.872 35.2415 39.872 34.6263 39.4883 34.2456L31.6384 26.4591Z" fill="white"/>
</svg>
