<svg width="57" height="48" viewBox="0 0 57 48" fill="none" xmlns="http://www.w3.org/2000/svg">
<path d="M1.73291 24.3652V46.3567H55.9968V24.3652" stroke="white" stroke-width="2" stroke-linecap="round" stroke-linejoin="round"/>
<path d="M30.304 0.547252C30.1876 0.428624 30.047 0.335506 29.8913 0.270452C29.5823 0.14162 29.2329 0.14162 28.924 0.270452C28.7682 0.335506 28.629 0.428624 28.5112 0.547252L18.3835 10.7505C17.8884 11.2493 17.8884 12.0554 18.3835 12.5542C18.6304 12.8029 18.9545 12.9279 19.2786 12.9279C19.6028 12.9279 19.9269 12.8029 20.1738 12.5542L28.1415 4.52703V30.7859C28.1415 31.4913 28.7087 32.0614 29.4076 32.0614C30.1065 32.0614 30.6737 31.4913 30.6737 30.7859V4.52703L38.6415 12.5542C38.8883 12.8029 39.2125 12.9279 39.5366 12.9279C39.8607 12.9279 40.1849 12.8029 40.4318 12.5542C40.9268 12.0554 40.9268 11.2493 40.4318 10.7505L30.304 0.547252Z" fill="white"/>
</svg>
