<svg width="70" height="70" viewBox="0 0 70 70" fill="none" xmlns="http://www.w3.org/2000/svg">
<path d="M67.7798 31.9854C69.1322 30.6097 69.6096 28.5907 69.0262 26.7139C68.4415 24.8371 66.9185 23.4973 65.0475 23.213L48.4114 20.69C47.7029 20.5823 47.0906 20.1185 46.7742 19.4479L39.3367 3.71386C38.5016 1.94618 36.8066 0.847656 34.9176 0.847656C33.0301 0.847656 31.3351 1.94618 30.5 3.71386L23.0611 19.4479C22.7447 20.1185 22.1311 20.5823 21.4225 20.69L4.78647 23.2144C2.91677 23.4973 1.39377 24.8371 0.809058 26.7139C0.225723 28.5907 0.703122 30.6097 2.05552 31.9854L14.0923 44.2314C14.6055 44.7541 14.8407 45.5065 14.7197 46.2417L11.8787 63.5352C11.5595 65.4781 12.3093 67.4037 13.8378 68.564C15.3649 69.7257 17.3529 69.8764 19.0273 68.956L33.9051 60.791C34.5393 60.4435 35.296 60.4435 35.9302 60.791L50.8094 68.956C51.5358 69.3552 52.3228 69.5519 53.1056 69.5519C54.1223 69.5519 55.1349 69.2202 55.9989 68.564C57.5274 67.4037 58.2772 65.4781 57.958 63.5352L55.1156 46.2432C54.9946 45.5065 55.2298 44.7555 55.743 44.2328L67.7798 31.9854ZM52.4053 46.7285L55.2463 64.0205C55.3894 64.8907 55.0661 65.7222 54.381 66.242C53.6944 66.7604 52.8401 66.8236 52.0903 66.4157L37.2111 58.2494C36.4943 57.8573 35.7046 57.6592 34.9176 57.6592C34.1307 57.6592 33.3424 57.8573 32.6242 58.2508L17.7478 66.4157C16.9952 66.8236 16.1409 66.7604 15.4557 66.242C14.7706 65.7222 14.4486 64.8922 14.5903 64.0205L17.4314 46.7285C17.7051 45.0599 17.1755 43.3568 16.0143 42.1765L3.97613 29.929C3.3694 29.3116 3.16304 28.4414 3.42581 27.6013C3.68721 26.7598 4.34346 26.1826 5.18132 26.0548L21.816 23.5318C23.4215 23.2891 24.8097 22.238 25.5265 20.7187L32.9654 4.9847C33.3396 4.19204 34.0702 3.71961 34.9163 3.71961C35.7638 3.71961 36.4929 4.19204 36.8685 4.9847L44.3074 20.7187C45.0242 22.238 46.411 23.2891 48.0165 23.5318L64.6526 26.0548C65.4905 26.1826 66.1467 26.7598 66.4081 27.6013C66.6695 28.4414 66.4645 29.3116 65.8578 29.929L53.821 42.175C52.6598 43.3568 52.1302 45.0585 52.4053 46.7285Z" fill="#462E8D"/>
</svg>
