<svg width="65" height="70" viewBox="0 0 65 70" fill="none" xmlns="http://www.w3.org/2000/svg">
<path d="M32.0467 30.8807C31.431 31.0596 31.0755 31.7032 31.2533 32.32C31.2846 32.4281 34.3863 43.4617 33.5325 67.9686C33.5092 68.611 34.0111 69.1488 34.6523 69.1698C34.6663 69.1709 34.6802 69.1709 34.6942 69.1709C35.3168 69.1709 35.8315 68.6772 35.8535 68.0499C36.7213 43.1736 33.6173 32.1318 33.486 31.6741C33.3083 31.0573 32.6659 30.7064 32.0467 30.8807Z" fill="#462E8D"/>
<path d="M61.2572 19.7762C56.3363 8.14774 44.9983 0.632812 32.3708 0.632812C28.2038 0.632812 24.1403 1.44715 20.2939 3.0526C18.1634 3.94128 16.1502 4.99842 14.3101 6.19379C13.7723 6.54462 13.6189 7.2637 13.9686 7.80156C14.3194 8.33942 15.0397 8.49276 15.5763 8.14309C17.2991 7.02323 19.1869 6.03231 21.1884 5.19706C24.7513 3.70895 28.5129 2.95618 32.3708 2.95618C44.062 2.95618 54.5613 9.9135 59.1162 20.6823C61.0098 25.1594 62.0332 33.4027 62.4747 37.9193C62.5339 38.5199 63.0381 38.9672 63.6294 38.9672C63.6665 38.9672 63.7049 38.9649 63.7444 38.9614C64.3821 38.8986 64.8491 38.3306 64.7864 37.6916C64.2323 32.0157 63.1705 24.2986 61.2572 19.7762Z" fill="#462E8D"/>
<path d="M10.8669 11.9139C11.3246 11.4643 11.3281 10.7278 10.8785 10.2713C10.4289 9.81475 9.69358 9.8101 9.23588 10.2597C2.98834 16.4143 -3.23479 27.8603 2.59453 47.43C2.74439 47.9354 3.20558 48.2606 3.70743 48.2606C3.81663 48.2606 3.92815 48.2444 4.03851 48.2118C4.65304 48.0295 5.00387 47.3824 4.82032 46.7679C0.467493 32.1516 2.55736 20.1003 10.8669 11.9139Z" fill="#462E8D"/>
<path d="M33.263 7.61916C29.7082 7.48092 26.2487 8.12101 22.9786 9.48483C11.5871 14.2373 5.53011 26.7637 8.89086 38.6245C9.22659 39.8106 9.57045 41.0721 9.75516 42.3291C10.171 45.174 10.1931 50.4097 10.1931 58.7146C10.1931 59.357 10.7124 59.8763 11.3548 59.8763C11.9972 59.8763 12.5165 59.357 12.5165 58.7146C12.5165 50.0508 12.4944 45.0021 12.0541 41.991C11.8497 40.5947 11.4837 39.2495 11.1259 37.9902C8.08582 27.2609 13.5655 15.9275 23.8731 11.6281C26.8331 10.3933 29.9824 9.83217 33.1805 9.93904C41.4412 10.2364 50.8044 17.5179 53.6284 25.8413C56.0726 33.0426 56.0935 45.3111 55.7903 56.3599C55.7729 57.0011 56.2794 57.5355 56.9206 57.5529C57.5503 57.5413 58.0963 57.0662 58.1137 56.4226C58.4215 45.1671 58.3902 32.6418 55.8287 25.0932C52.6724 15.7916 42.5495 7.9514 33.263 7.61916Z" fill="#462E8D"/>
<path d="M32.3708 14.573C31.108 14.573 29.8511 14.7089 28.6325 14.9784C28.0063 15.1167 27.6102 15.7358 27.7484 16.3632C27.8867 16.9893 28.4989 17.3773 29.1332 17.2472C30.1868 17.0149 31.2765 16.8964 32.3696 16.8964C38.4487 16.8964 43.9086 20.5139 46.2773 26.1143C49.1002 32.7824 49.2849 43.485 48.6332 62.1602C48.61 62.8014 49.1118 63.3404 49.7531 63.3614C49.767 63.3625 49.7809 63.3625 49.7949 63.3625C50.4175 63.3625 50.9322 62.8688 50.9542 62.2415C51.6327 42.8147 51.4259 32.3189 48.416 25.2082C45.6848 18.7481 39.3862 14.573 32.3708 14.573Z" fill="#462E8D"/>
<path d="M23.743 19.6112C24.2681 19.243 24.3958 18.5181 24.0264 17.993C23.6593 17.4679 22.9333 17.339 22.4082 17.7095C16.4255 21.9102 13.8257 29.9804 15.9434 37.8009C15.9678 37.8857 18.326 46.4693 18.326 59.8775C18.326 60.5199 18.8453 61.0392 19.4877 61.0392C20.1301 61.0392 20.6494 60.5199 20.6494 59.8775C20.6494 46.1545 18.2819 37.536 18.1832 37.184C16.3233 30.3138 18.5584 23.2519 23.743 19.6112Z" fill="#462E8D"/>
<path d="M43.8831 56.4006C43.8877 55.7581 43.3719 55.2354 42.7295 55.2307H42.7214C42.0836 55.2307 41.5644 55.7454 41.5597 56.3843C41.5539 57.2579 41.5829 58.5334 41.6143 59.9112C41.6596 61.9151 41.7107 64.1861 41.6608 65.6464C41.6375 66.2876 42.1394 66.8255 42.7818 66.8464C42.7957 66.8476 42.8085 66.8476 42.8225 66.8476C43.4451 66.8476 43.9597 66.3538 43.9818 65.7254C44.0353 64.2001 43.983 61.893 43.9365 59.8577C43.9051 58.5078 43.8773 57.2567 43.8831 56.4006Z" fill="#462E8D"/>
<path d="M32.3708 22.7048C31.1371 22.7048 29.9336 22.9464 28.7917 23.4227C24.2704 25.3093 22.0736 30.4102 23.6802 35.2881C24.5562 37.9472 25.2961 51.8677 25.2961 65.6859C25.2961 66.3283 25.8154 66.8476 26.4578 66.8476C27.1002 66.8476 27.6195 66.3283 27.6195 65.6859C27.6195 53.2477 26.9574 37.8113 25.8886 34.5621C24.6642 30.8482 26.2987 26.9809 29.6873 25.5672C30.5435 25.2094 31.4461 25.0282 32.3708 25.0282C35.1763 25.0282 37.696 26.6987 38.7937 29.2915C40.9626 34.425 41.6073 43.7185 41.7653 50.6119C41.7804 51.2438 42.2974 51.7469 42.927 51.7469C42.9351 51.7469 42.9456 51.7469 42.9537 51.7469C43.595 51.7318 44.1026 51.1997 44.0887 50.5585C43.9249 43.4652 43.2453 33.8593 40.9289 28.3784C39.4722 24.9317 36.1126 22.7048 32.3708 22.7048Z" fill="#462E8D"/>
</svg>
