<svg width="43" height="75" viewBox="0 0 43 75" fill="none" xmlns="http://www.w3.org/2000/svg">
<path d="M42.7683 25.9797C42.5213 25.4843 42.1507 25.2366 41.6568 25.2366H27.083L41.5333 2.32272C41.7804 1.95115 41.7804 1.45576 41.5333 1.08418C41.2862 0.712609 40.9157 0.464844 40.4217 0.464844H20.6607C20.1668 0.464844 19.7962 0.712609 19.5492 1.08418L1.02319 38.2417C0.776125 38.6133 0.776125 39.1087 1.02319 39.4802C1.27025 39.8518 1.76423 40.0996 2.13475 40.0996H14.8559L1.02319 73.1698C0.776125 73.6652 1.02319 74.2845 1.51717 74.6561C1.64062 74.7799 1.88768 74.7799 2.13475 74.7799C2.50527 74.7799 2.87579 74.6561 3.12285 74.4083L42.645 27.3421C42.8919 26.9705 43.0154 26.4751 42.7683 25.9797ZM6.45738 66.4814L17.82 39.2326C17.9435 38.8611 17.9435 38.4895 17.6966 38.1179C17.4495 37.8701 17.079 37.6225 16.7085 37.6225H4.1108L21.4018 2.94206H38.1986L23.6249 25.8558C23.3778 26.2273 23.3778 26.7227 23.6249 27.0943C23.872 27.4659 24.2425 27.7137 24.7365 27.7137H39.0633L6.45738 66.4814Z" fill="#462E8D"/>
</svg>
