<svg width="56" height="55" viewBox="0 0 56 55" fill="none" xmlns="http://www.w3.org/2000/svg">
<path d="M55.6694 0.56198C55.3528 0.233697 54.8645 0.142209 54.4513 0.33272L1.17994 24.8517C0.751707 25.0497 0.501637 25.5029 0.563886 25.9721C0.626135 26.4414 0.985678 26.8138 1.4504 26.8913L25.3444 30.9071L28.0759 53.5511C28.1338 54.0225 28.4934 54.4025 28.9602 54.4821C29.0214 54.4929 29.0815 54.4983 29.1416 54.4983C29.5441 54.4983 29.9208 54.2712 30.1033 53.8998L55.8615 1.789C56.0633 1.38107 55.986 0.889187 55.6694 0.56198ZM29.7748 49.7161L27.3793 29.8502C27.3214 29.3766 26.9597 28.9966 26.4907 28.9181L5.24867 25.3468L52.5913 3.55743L29.7748 49.7161Z" fill="white"/>
</svg>
