<svg width="70" height="66" viewBox="0 0 70 66" fill="none" xmlns="http://www.w3.org/2000/svg">
<path d="M69.2549 20.0809C68.252 8.93532 60.4388 0.84899 50.6607 0.84899C44.1464 0.84899 38.1818 4.38851 34.8256 10.0614C31.4997 4.31513 25.7795 0.847656 19.3696 0.847656C9.59287 0.847656 1.77835 8.93399 0.776755 20.0795C0.697473 20.5718 0.372419 23.1628 1.3608 27.3881C2.78522 33.4825 6.07541 39.0259 10.8733 43.4153L34.8097 65.3475L59.1571 43.4166C63.955 39.0259 67.2451 33.4838 68.6696 27.3881C69.6579 23.1641 69.3329 20.5732 69.2549 20.0809ZM66.0969 26.777C64.7967 32.3431 61.7826 37.4143 57.3891 41.4327L34.8256 61.7586L12.6492 41.4381C8.24773 37.4116 5.23502 32.3418 3.93348 26.7757C2.99796 22.7772 3.38248 20.5185 3.3838 20.5038L3.40362 20.3691C4.2625 10.6044 10.9763 3.51597 19.3696 3.51597C25.5628 3.51597 31.0148 7.35835 33.602 13.5422L34.819 16.4546L36.0359 13.5422C38.5822 7.45307 44.3222 3.51731 50.6621 3.51731C59.054 3.51731 65.7692 10.6057 66.6452 20.4971C66.6479 20.5185 67.0324 22.7785 66.0969 26.777Z" fill="#462E8D"/>
</svg>
