<svg width="69" height="70" viewBox="0 0 69 70" fill="none" xmlns="http://www.w3.org/2000/svg">
<path d="M68.5784 32.1984L34.6027 0.847656L0.62812 32.1984C0.149538 32.6411 0.121107 33.3862 0.56652 33.863C1.00956 34.3386 1.76179 34.3656 2.24037 33.9242L6.17209 30.2961V69.554H63.0333V30.2949L66.965 33.923C67.1924 34.1337 67.4827 34.2373 67.7717 34.2373C68.0904 34.2373 68.4067 34.1114 68.6388 33.8618C69.0854 33.3862 69.057 32.6411 68.5784 32.1984ZM27.495 67.1997V48.3647C27.495 44.4694 30.6828 41.3016 34.6027 41.3016C38.5226 41.3016 41.7103 44.4694 41.7103 48.3647V67.1997H27.495ZM60.6641 67.1997H44.0795V48.3647C44.0795 43.1722 39.828 38.9472 34.6027 38.9472C29.3774 38.9472 25.1258 43.1722 25.1258 48.3647V67.1997H8.5413V28.1089L34.6027 4.06019L60.6641 28.1089V67.1997Z" fill="#462E8D"/>
</svg>
