<svg width="50" height="66" viewBox="0 0 50 66" fill="none" xmlns="http://www.w3.org/2000/svg">
<rect x="0.56543" y="0.541016" width="48.076" height="5.27432" rx="2.63716" stroke="#462E8D"/>
<rect x="0.56543" y="60.168" width="48.076" height="5.27432" rx="2.63716" stroke="#462E8D"/>
<path d="M43.2994 59.6684V48.1704C43.2994 45.1328 41.7337 42.3089 39.1046 40.6213L26.7071 32.6672L39.1046 24.7131C41.7337 23.0255 43.2994 20.2017 43.2994 17.164V5.66602H40.9625V17.164C40.9625 19.4479 39.7823 21.5742 37.8076 22.8343L24.6038 31.3172L11.4 22.8343C9.42532 21.5742 8.24516 19.4479 8.24516 17.164V5.66602H5.9082V17.164C5.9082 20.2017 7.47396 23.0255 10.103 24.7131L22.5006 32.6672L10.103 40.6213C7.47396 42.3089 5.9082 45.1328 5.9082 48.1704V59.6684H8.24516V48.1704C8.24516 45.8866 9.42532 43.7602 11.4 42.5002L24.6038 34.0173L37.8076 42.4889C39.7823 43.7602 40.9625 45.8753 40.9625 48.1592V59.6684H43.2994Z" fill="#462E8D"/>
</svg>
