<svg width="70" height="70" viewBox="0 0 70 70" fill="none" xmlns="http://www.w3.org/2000/svg">
<path d="M35.1872 0.689453C16.2448 0.689453 0.833984 16.1003 0.833984 35.0426C0.833984 53.985 16.2448 69.3958 35.1872 69.3958C54.1295 69.3958 69.5404 53.985 69.5404 35.0426C69.5404 16.1003 54.1295 0.689453 35.1872 0.689453ZM35.1872 67.1056C17.5079 67.1056 3.1242 52.7219 3.1242 35.0426C3.1242 17.3633 17.5079 2.97967 35.1872 2.97967C52.8665 2.97967 67.2501 17.3633 67.2501 35.0426C67.2501 52.7219 52.8665 67.1056 35.1872 67.1056Z" fill="#462E8D"/>
<path d="M36.3323 30.4863V18.8726C36.3323 18.2393 35.8193 17.7275 35.1872 17.7275C34.5551 17.7275 34.0421 18.2393 34.0421 18.8726V30.4863C32.4401 30.9031 31.1862 32.157 30.7694 33.759H22.591C21.9589 33.759 21.4459 34.2708 21.4459 34.9041C21.4459 35.5373 21.9589 36.0492 22.591 36.0492H30.7694C31.2812 38.0188 33.0596 39.4845 35.1872 39.4845C37.7133 39.4845 39.7676 37.4302 39.7676 34.9041C39.7676 32.7753 38.3019 30.9981 36.3323 30.4863ZM35.1872 37.1943C33.9241 37.1943 32.897 36.1671 32.897 34.9041C32.897 33.641 33.9241 32.6139 35.1872 32.6139C36.4502 32.6139 37.4774 33.641 37.4774 34.9041C37.4774 36.1671 36.4502 37.1943 35.1872 37.1943Z" fill="#462E8D"/>
<path d="M35.1872 12.002C35.8193 12.002 36.3323 11.4901 36.3323 10.8568V9.71174C36.3323 9.0785 35.8193 8.56663 35.1872 8.56663C34.5551 8.56663 34.0421 9.0785 34.0421 9.71174V10.8568C34.0421 11.4901 34.5551 12.002 35.1872 12.002Z" fill="#462E8D"/>
<path d="M35.1872 57.8062C34.5551 57.8062 34.0421 58.3181 34.0421 58.9513V60.0964C34.0421 60.7297 34.5551 61.2415 35.1872 61.2415C35.8193 61.2415 36.3323 60.7297 36.3323 60.0964V58.9513C36.3323 58.3181 35.8193 57.8062 35.1872 57.8062Z" fill="#462E8D"/>
<path d="M60.3795 33.759H59.2344C58.6023 33.759 58.0893 34.2708 58.0893 34.9041C58.0893 35.5373 58.6023 36.0492 59.2344 36.0492H60.3795C61.0116 36.0492 61.5246 35.5373 61.5246 34.9041C61.5246 34.2708 61.0116 33.759 60.3795 33.759Z" fill="#462E8D"/>
<path d="M11.1399 33.759H9.99483C9.36274 33.759 8.84973 34.2708 8.84973 34.9041C8.84973 35.5373 9.36274 36.0492 9.99483 36.0492H11.1399C11.772 36.0492 12.285 35.5373 12.285 34.9041C12.285 34.2708 11.772 33.759 11.1399 33.759Z" fill="#462E8D"/>
<path d="M52.1908 16.2801L51.3813 17.0897C50.9335 17.5374 50.9335 18.2611 51.3813 18.7088C51.6046 18.9321 51.8977 19.0444 52.1908 19.0444C52.484 19.0444 52.7771 18.9321 53.0004 18.7088L53.81 17.8993C54.2578 17.4515 54.2578 16.7278 53.81 16.2801C53.3623 15.8323 52.6386 15.8335 52.1908 16.2801Z" fill="#462E8D"/>
<path d="M17.3739 51.0982L16.5643 51.9078C16.1166 52.3555 16.1166 53.0792 16.5643 53.5269C16.7876 53.7502 17.0808 53.8625 17.3739 53.8625C17.667 53.8625 17.9602 53.7502 18.1835 53.5269L18.9931 52.7174C19.4408 52.2696 19.4408 51.5459 18.9931 51.0982C18.5453 50.6504 17.8205 50.6516 17.3739 51.0982Z" fill="#462E8D"/>
<path d="M53.0004 51.0982C52.5527 50.6504 51.829 50.6504 51.3813 51.0982C50.9335 51.5459 50.9335 52.2696 51.3813 52.7174L52.1908 53.5269C52.4141 53.7502 52.7073 53.8625 53.0004 53.8625C53.2936 53.8625 53.5867 53.7502 53.81 53.5269C54.2578 53.0792 54.2578 52.3555 53.81 51.9078L53.0004 51.0982Z" fill="#462E8D"/>
<path d="M18.1835 16.2801C17.7358 15.8323 17.012 15.8323 16.5643 16.2801C16.1166 16.7278 16.1166 17.4515 16.5643 17.8993L17.3739 18.7088C17.5972 18.9321 17.8903 19.0444 18.1835 19.0444C18.4766 19.0444 18.7698 18.9321 18.9931 18.7088C19.4408 18.2611 19.4408 17.5374 18.9931 17.0897L18.1835 16.2801Z" fill="#462E8D"/>
</svg>
