<svg width="67" height="73" viewBox="0 0 67 73" fill="none" xmlns="http://www.w3.org/2000/svg">
<path d="M33.1678 11.4301C20.8125 11.4301 10.7611 21.529 10.7611 33.9428C10.7611 43.361 16.5486 51.7039 25.2596 54.9987V67.0496C25.2596 67.7819 25.8487 68.3738 26.5776 68.3738H27.8957V71.0224C27.8957 71.7547 28.4848 72.3467 29.2137 72.3467H37.1219C37.8508 72.3467 38.44 71.7547 38.44 71.0224V68.3738H39.758C40.4869 68.3738 41.0761 67.7819 41.0761 67.0496V54.9987C49.787 51.7039 55.5745 43.361 55.5745 33.9428C55.5745 21.529 45.5231 11.4301 33.1678 11.4301ZM37.1219 65.7253C36.3931 65.7253 35.8039 66.3173 35.8039 67.0496V69.6981H30.5317V67.0496C30.5317 66.3173 29.9426 65.7253 29.2137 65.7253H27.8957V59.1039H38.44V65.7253H37.1219ZM39.3468 52.803C38.8051 52.9818 38.44 53.4903 38.44 54.0611V56.4554H27.8957V54.0611C27.8957 53.489 27.5306 52.9818 26.9888 52.803C18.8605 50.1174 13.3972 42.5373 13.3972 33.9428C13.3972 22.9897 22.2663 14.0787 33.1678 14.0787C44.0693 14.0787 52.9384 22.9897 52.9384 33.9428C52.9384 42.5373 47.4752 50.1174 39.3468 52.803Z" fill="#462E8D"/>
<path d="M33.1678 8.78157C33.8967 8.78157 34.4859 8.18962 34.4859 7.4573V2.16021C34.4859 1.42789 33.8967 0.835938 33.1678 0.835938C32.4389 0.835938 31.8498 1.42789 31.8498 2.16021V7.4573C31.8498 8.18962 32.4389 8.78157 33.1678 8.78157Z" fill="#462E8D"/>
<path d="M64.8008 32.6185H59.5286C58.7998 32.6185 58.2106 33.2104 58.2106 33.9428C58.2106 34.6751 58.7998 35.267 59.5286 35.267H64.8008C65.5297 35.267 66.1188 34.6751 66.1188 33.9428C66.1188 33.2104 65.5297 32.6185 64.8008 32.6185Z" fill="#462E8D"/>
<path d="M6.807 32.6185H1.53484C0.805961 32.6185 0.216797 33.2104 0.216797 33.9428C0.216797 34.6751 0.805961 35.267 1.53484 35.267H6.807C7.53588 35.267 8.12504 34.6751 8.12504 33.9428C8.12504 33.2104 7.53588 32.6185 6.807 32.6185Z" fill="#462E8D"/>
<path d="M54.6044 10.5323L50.877 14.2773C50.3617 14.7951 50.3617 15.632 50.877 16.1498C51.134 16.4081 51.4715 16.5378 51.8089 16.5378C52.1463 16.5378 52.4837 16.4081 52.7407 16.1498L56.4682 12.4048C56.9835 11.887 56.9835 11.0501 56.4682 10.5323C55.9528 10.0145 55.1185 10.0158 54.6044 10.5323Z" fill="#462E8D"/>
<path d="M13.5949 51.7357L9.86749 55.4807C9.35214 55.9985 9.35214 56.8355 9.86749 57.3533C10.1245 57.6115 10.4619 57.7413 10.7993 57.7413C11.1368 57.7413 11.4742 57.6115 11.7312 57.3533L15.4586 53.6082C15.974 53.0904 15.974 52.2535 15.4586 51.7357C14.9433 51.2179 14.1103 51.2179 13.5949 51.7357Z" fill="#462E8D"/>
<path d="M52.7407 51.7357C52.2254 51.2179 51.3924 51.2179 50.877 51.7357C50.3617 52.2535 50.3617 53.0904 50.877 53.6082L54.6044 57.3533C54.8615 57.6115 55.1989 57.7413 55.5363 57.7413C55.8737 57.7413 56.2111 57.6115 56.4682 57.3533C56.9835 56.8355 56.9835 55.9985 56.4682 55.4807L52.7407 51.7357Z" fill="#462E8D"/>
<path d="M13.5949 16.1498C13.8519 16.4081 14.1893 16.5378 14.5268 16.5378C14.8642 16.5378 15.2016 16.4081 15.4586 16.1498C15.974 15.632 15.974 14.7951 15.4586 14.2773L11.7312 10.5323C11.2158 10.0145 10.3828 10.0145 9.86749 10.5323C9.35214 11.0501 9.35214 11.887 9.86749 12.4048L13.5949 16.1498Z" fill="#462E8D"/>
</svg>
