<svg width="60" height="51" viewBox="0 0 60 51" fill="none" xmlns="http://www.w3.org/2000/svg">
<path d="M50.6918 16.6273C50.1736 7.86625 42.8928 0.863281 34.1145 0.863281C28.7857 0.863281 23.6256 3.45557 20.4293 7.68519C20.3557 7.64722 20.2782 7.62094 20.2036 7.58589C20.0093 7.49244 19.812 7.40386 19.6108 7.32404C19.499 7.28023 19.3871 7.24032 19.2742 7.20138C19.075 7.13227 18.8729 7.07094 18.6668 7.01545C18.5539 6.98528 18.442 6.95413 18.3282 6.92882C18.1074 6.87917 17.8817 6.84121 17.654 6.80714C17.5549 6.79254 17.4577 6.77307 17.3576 6.76236C17.0318 6.72634 16.7021 6.70395 16.3674 6.70395C11.4969 6.70395 7.53511 10.6338 7.53511 15.465C7.53511 15.5905 7.54296 15.7132 7.55179 15.8358C3.4693 18.0426 0.665527 22.6675 0.665527 27.2962C0.665527 34.1911 6.32017 39.8011 13.2712 39.8011H18.3302C18.8729 39.8011 19.3115 39.366 19.3115 38.8276C19.3115 38.2893 18.8729 37.8542 18.3302 37.8542H13.2712C7.40262 37.8542 2.62826 33.1184 2.62826 27.2962C2.62826 23.2525 5.28287 19.055 8.94141 17.3155L9.49784 17.0517V16.4384C9.49784 16.3216 9.5057 16.2028 9.51257 16.0831L9.52336 15.903L9.5106 15.7142C9.50471 15.6314 9.49784 15.5487 9.49784 15.465C9.49784 11.7084 12.5803 8.65084 16.3674 8.65084C16.6707 8.65084 16.97 8.67713 17.2673 8.71606C17.3439 8.7258 17.4204 8.73845 17.496 8.75111C17.758 8.79394 18.0161 8.8504 18.2703 8.92341C18.3046 8.93314 18.34 8.93996 18.3743 8.94969C18.654 9.03438 18.9268 9.14146 19.1938 9.26217C19.2634 9.29332 19.3312 9.32739 19.3999 9.36048C19.6354 9.47632 19.866 9.60287 20.0888 9.74597C21.9799 10.9608 23.237 13.0683 23.237 15.465C23.237 16.0033 23.6757 16.4384 24.2184 16.4384C24.7611 16.4384 25.1997 16.0033 25.1997 15.465C25.1997 12.7841 23.977 10.3845 22.0594 8.77642C24.8729 5.126 29.506 2.81017 34.1145 2.81017C41.7152 2.81017 48.0283 8.78226 48.6868 16.3294C47.6849 16.2593 46.1824 16.2233 44.6799 16.4501C44.1441 16.5309 43.7761 17.0273 43.8575 17.5588C43.9311 18.0407 44.3492 18.3863 44.8261 18.3863C44.8752 18.3863 44.9253 18.3824 44.9743 18.3746C47.1598 18.0465 49.4376 18.3541 49.5711 18.3726C54.1403 19.2341 57.5849 23.4092 57.5849 28.0925C57.5849 33.4747 53.1697 37.8542 47.7437 37.8542H43.8457C43.3031 37.8542 42.8644 38.2893 42.8644 38.8276C42.8644 39.366 43.3031 39.8011 43.8457 39.8011H47.7437C54.2522 39.8011 59.5476 34.5484 59.5476 28.0925C59.5476 22.7492 55.7919 17.957 50.6918 16.6273Z" fill="white"/>
<path d="M38.2451 41.0598L32.0693 47.1856V27.1463C32.0693 26.608 31.6307 26.1729 31.088 26.1729C30.5453 26.1729 30.1066 26.608 30.1066 27.1463V47.1856L23.9308 41.0598C23.5471 40.6791 22.9269 40.6791 22.5432 41.0598C22.1595 41.4404 22.1595 42.0556 22.5432 42.4362L30.3931 50.2228C30.4834 50.3133 30.5924 50.3844 30.7131 50.434C30.8328 50.4837 30.9604 50.509 31.088 50.509C31.2155 50.509 31.3431 50.4837 31.4628 50.434C31.5835 50.3844 31.6925 50.3133 31.7828 50.2228L39.6327 42.4362C40.0164 42.0556 40.0164 41.4404 39.6327 41.0598C39.249 40.6791 38.6288 40.6791 38.2451 41.0598Z" fill="white"/>
</svg>
