<svg width="58" height="48" viewBox="0 0 58 48" fill="none" xmlns="http://www.w3.org/2000/svg">
<path d="M1.88135 24.3652V46.3567H56.1453V24.3652" stroke="white" stroke-width="2" stroke-linecap="round" stroke-linejoin="round"/>
<path d="M28.6596 31.6871C28.7761 31.8057 28.9166 31.8989 29.0723 31.9639C29.3813 32.0928 29.7307 32.0928 30.0396 31.9639C30.1954 31.8989 30.3347 31.8057 30.4524 31.6871L40.5801 21.4838C41.0752 20.9851 41.0752 20.1789 40.5801 19.6802C40.3332 19.4314 40.0091 19.3064 39.685 19.3064C39.3609 19.3064 39.0367 19.4314 38.7898 19.6802L30.8221 27.7073L30.8221 1.44847C30.8221 0.74308 30.2549 0.172897 29.556 0.172897C28.8571 0.172897 28.2899 0.74308 28.2899 1.44847L28.2899 27.7073L20.3222 19.6802C20.0753 19.4314 19.7511 19.3064 19.427 19.3064C19.1029 19.3064 18.7788 19.4314 18.5319 19.6802C18.0368 20.1789 18.0368 20.9851 18.5319 21.4838L28.6596 31.6871Z" fill="white"/>
</svg>
