<svg width="44" height="41" viewBox="0 0 44 41" fill="none" xmlns="http://www.w3.org/2000/svg">
<path d="M0.173032 40.75H8.9083V11.7403H0.173032V40.75ZM34.1983 10.7352C29.9588 10.7352 26.1675 12.2764 23.4778 15.6813V11.6446H14.7137V40.75H23.481V25.0118C23.481 21.6868 26.5389 18.4415 30.3686 18.4415C34.1983 18.4415 35.1429 21.6868 35.1429 24.9321V40.75H43.875V24.2843C43.8718 12.8444 38.4379 10.7352 34.1983 10.7352ZM4.49904 8.8397C6.9134 8.8397 8.87308 6.88679 8.87308 4.48076C8.87308 2.07472 6.9134 0.125 4.49904 0.125C2.08467 0.125 0.125 2.07791 0.125 4.48394C0.125 6.88998 2.08467 8.8397 4.49904 8.8397Z" fill="white"/>
</svg>
