<svg width="73" height="54" viewBox="0 0 73 54" fill="none" xmlns="http://www.w3.org/2000/svg">
<path d="M71.3201 11.0472C70.5783 10.3507 69.5857 10.0072 68.5854 10.1007L62.5219 10.6672C60.0556 10.903 57.6155 9.99496 55.8672 8.19094L52.0036 5.3814C51.7853 5.22433 51.557 5.08244 51.3204 4.9566L48.1709 2.77288C45.6131 0.995428 42.5958 0.0472874 39.5085 0.0507909H29.1078C27.5134 0.0494771 26.0244 0.868863 25.1411 2.23334L24.1215 3.80555L17.1223 4.70537C15.9206 4.86011 14.7028 4.82522 13.5113 4.60187L5.18869 3.0463C4.14558 2.85127 3.07207 3.14236 2.258 3.84073C1.44407 4.5391 0.973633 5.57293 0.973633 6.66282V28.232C0.974769 29.6491 1.7674 30.9398 3.01158 31.55L2.92539 31.8156C2.3476 33.5765 2.79433 35.5218 4.07713 36.8311L10.4577 43.3906C11.6362 44.5996 13.0713 45.5115 14.6501 46.0547L23.6396 49.1352C25.758 49.8611 28.0446 49.8857 30.1773 49.2051L32.3445 51.3158C33.6672 52.6102 35.4231 53.3325 37.2492 53.3333C37.8386 53.333 38.4256 53.2584 38.9973 53.1114L47.4433 50.9402C49.3756 50.4467 51.1854 49.541 52.7555 48.2821L57.1655 44.7558C59.2906 43.0442 60.2987 40.2491 59.7726 37.527L69.4879 33.9694C71.3019 33.2303 72.4909 31.4249 72.4843 29.4189V13.7614C72.4845 12.7287 72.0619 11.7437 71.3201 11.0472ZM24.3933 46.8104L15.4039 43.73C14.176 43.3074 13.0599 42.5982 12.1432 41.6581L5.76264 35.0986C5.12138 34.4437 4.89816 33.4711 5.18713 32.5907L5.40836 31.908H11.4675C12.0777 31.9073 12.6646 32.1479 13.1069 32.5798L28.0713 47.1542C26.8358 47.3234 25.579 47.2059 24.3933 46.8104ZM55.7026 42.8211L55.3655 43.0907L46.087 27.5902C45.8643 27.2167 45.4645 26.9938 45.0383 27.0057C44.6122 27.0177 44.2248 27.2628 44.0223 27.6483C43.8198 28.0339 43.8331 28.5013 44.0571 28.8741L53.473 44.604L51.2926 46.3474C50.3767 47.0774 49.3616 47.6652 48.2796 48.0919L41.3265 36.1786C40.9877 35.5983 40.2556 35.4103 39.6913 35.7586C39.1268 36.1069 38.9439 36.8596 39.2827 37.4397L45.9169 48.8067L40.803 50.1214L35.3155 42.2236C35.0681 41.8673 34.6545 41.6737 34.2306 41.7159C33.8067 41.7581 33.437 42.0294 33.2605 42.4278C33.084 42.8262 33.1277 43.2911 33.3752 43.6475L38.313 50.7544C36.7627 51.1207 35.137 50.6636 33.984 49.5369L14.7463 30.8005C13.8618 29.9364 12.6877 29.4554 11.4675 29.4573H4.54913C3.89126 29.4565 3.3582 28.9084 3.35735 28.2321V6.66282C3.35507 6.29918 3.51227 5.95379 3.78504 5.72227C4.0547 5.48549 4.41452 5.38797 4.7627 5.45717L13.0848 7.01273C14.5145 7.28075 15.9758 7.3225 17.4179 7.13652L22.5338 6.47903L21.864 7.6222C20.6886 9.65191 21.0928 12.2553 22.8246 13.8078C24.5563 15.3603 27.1202 15.418 28.9162 13.9447L32.4157 11.0778H36.5614C37.1452 11.0774 37.7088 11.2978 38.1449 11.6971L47.4347 20.1855C47.6206 20.3556 47.7796 20.5544 47.9061 20.7749L56.8852 36.4672C58.0934 38.591 57.5882 41.306 55.7026 42.8211ZM70.1008 29.4189C70.1079 30.4062 69.5323 31.2996 68.6453 31.678L58.9419 35.2304L58.9395 35.2253L49.9611 19.533C49.7088 19.092 49.3908 18.6944 49.0189 18.3544L39.7292 9.86533C38.8565 9.0677 37.7293 8.62713 36.5616 8.62757H33.1909V7.40221C33.1909 6.72544 32.6573 6.177 31.9991 6.177C31.3408 6.177 30.8073 6.72559 30.8073 7.40221V9.26229L27.4313 12.0282C26.5826 12.7223 25.3851 12.7406 24.5168 12.0724C23.5442 11.3316 23.2795 9.9516 23.9058 8.88653L25.8408 5.58402C25.8456 5.57585 25.8452 5.56651 25.8498 5.55833L27.1246 3.59242C27.5662 2.91011 28.3107 2.50048 29.1079 2.50107H39.5087C42.121 2.49815 44.6741 3.30046 46.8384 4.80449L50.0484 7.0301L50.1818 7.11025C50.3399 7.19141 50.492 7.28469 50.6369 7.38907L54.2578 10.0005C56.5024 12.2679 59.604 13.4045 62.7375 13.108L68.8009 12.5414C69.1345 12.5101 69.4653 12.6245 69.7127 12.8566C69.96 13.0887 70.1009 13.417 70.101 13.7614L70.1008 29.4189Z" fill="#462E8D"/>
</svg>
