<svg width="71" height="73" viewBox="0 0 71 73" fill="none" xmlns="http://www.w3.org/2000/svg">
<path d="M25.0774 35.4209C22.3782 32.3638 18.7793 30.6809 14.9414 30.6809C11.1035 30.6809 7.50457 32.3638 4.80654 35.4209C-0.675097 41.6316 -0.675097 51.7348 4.80654 57.9456L14.9414 69.4266L25.0762 57.9456C30.5591 51.7348 30.5591 41.6316 25.0774 35.4209ZM23.297 56.3652L14.9426 65.8296L6.58701 56.3652C1.87318 51.0269 1.87318 42.3395 6.58701 37.0013C8.82744 34.4626 11.7953 33.0646 14.9414 33.0646C18.0875 33.0646 21.0565 34.4626 23.2958 37.0013C28.0096 42.3395 28.0096 51.0257 23.297 56.3652Z" fill="#462E8D"/>
<path d="M58.0315 30.0933L65.7143 21.4095C69.8481 16.7375 69.8481 9.1383 65.7143 4.46626C63.67 2.15647 60.941 0.884766 58.0303 0.884766C55.1207 0.884766 52.3917 2.15647 50.3474 4.46626C46.2136 9.1383 46.2136 16.7375 50.3474 21.4095L58.0315 30.0933ZM52.1255 6.04903C53.7122 4.25531 55.8088 3.26846 58.0303 3.26846C60.2529 3.26846 62.3495 4.25531 63.9362 6.04903C67.2975 9.84744 67.2975 16.0284 63.9362 19.8268L58.0315 26.5023L52.1255 19.8268C48.7642 16.0284 48.7642 9.84744 52.1255 6.04903Z" fill="#462E8D"/>
<path d="M62.6157 65.8606C61.9751 65.7164 61.3392 66.1192 61.1954 66.7616C61.0587 67.3695 60.7937 67.9285 60.4074 68.4207C60.0021 68.938 60.0901 69.6876 60.6071 70.0941C60.8258 70.2657 61.0837 70.3491 61.3404 70.3491C61.6934 70.3491 62.0417 70.193 62.2758 69.8938C62.8748 69.131 63.3027 68.23 63.5143 67.2861C63.6581 66.6425 63.2564 66.0048 62.6157 65.8606Z" fill="#462E8D"/>
<path d="M38.1207 37.832C37.6061 37.8308 37.1057 37.739 36.6326 37.5578C36.0241 37.3254 35.3335 37.6317 35.0982 38.2467C34.8652 38.8617 35.1731 39.5506 35.7852 39.7854C36.5292 40.0691 37.3125 40.2145 38.1183 40.2157H38.5426C39.1999 40.2157 39.7312 39.6829 39.7312 39.0238C39.7312 38.3647 39.1999 37.832 38.5426 37.832H38.1207Z" fill="#462E8D"/>
<path d="M35.2991 30.2947C35.5142 30.2947 35.7305 30.2363 35.9266 30.1148C36.4531 29.7858 37.0355 29.5844 37.6548 29.5153C38.3073 29.4426 38.778 28.8538 38.7067 28.1995C38.6353 27.5452 38.0518 27.078 37.3945 27.1447C36.4175 27.2532 35.4999 27.5702 34.6679 28.091C34.1105 28.439 33.9417 29.1744 34.2888 29.7334C34.5146 30.0957 34.9021 30.2947 35.2991 30.2947Z" fill="#462E8D"/>
<path d="M21.5629 70.0118H19.1857C18.5285 70.0118 17.9972 70.5446 17.9972 71.2036C17.9972 71.8627 18.5285 72.3955 19.1857 72.3955H21.5629C22.2201 72.3955 22.7514 71.8627 22.7514 71.2036C22.7514 70.5446 22.2189 70.0118 21.5629 70.0118Z" fill="#462E8D"/>
<path d="M42.8725 48.5586C42.7703 48.5586 42.6693 48.561 42.5683 48.5657C41.9122 48.592 41.4035 49.1474 41.4296 49.8053C41.4546 50.4465 41.9823 50.9482 42.6158 50.9482C42.6325 50.9482 42.6491 50.9482 42.6657 50.947L44.9941 50.9423C45.6514 50.9423 46.1827 50.4095 46.1827 49.7504C46.1827 49.0913 45.6514 48.5586 44.9941 48.5586H42.8725Z" fill="#462E8D"/>
<path d="M42.2783 29.4891H44.6554C45.3127 29.4891 45.844 28.9563 45.844 28.2972C45.844 27.6381 45.3127 27.1054 44.6554 27.1054H42.2783C41.621 27.1054 41.0897 27.6381 41.0897 28.2972C41.0897 28.9563 41.621 29.4891 42.2783 29.4891Z" fill="#462E8D"/>
<path d="M56.8797 48.5586C56.2225 48.5586 55.6912 49.0913 55.6912 49.7504C55.6912 50.4095 56.2225 50.9423 56.8797 50.9423H59.2569C59.9141 50.9423 60.4454 50.4095 60.4454 49.7504C60.4454 49.0913 59.9141 48.5586 59.2569 48.5586H56.8797Z" fill="#462E8D"/>
<path d="M61.1265 39.0238C61.1265 38.3647 60.5952 37.832 59.9379 37.832H57.5608C56.9035 37.832 56.3722 38.3647 56.3722 39.0238C56.3722 39.6829 56.9035 40.2157 57.5608 40.2157H59.9379C60.594 40.2157 61.1265 39.6829 61.1265 39.0238Z" fill="#462E8D"/>
<path d="M49.7484 50.9423H52.1255C52.7828 50.9423 53.3141 50.4095 53.3141 49.7504C53.3141 49.0913 52.7828 48.5586 52.1255 48.5586H49.7484C49.0911 48.5586 48.5598 49.0913 48.5598 49.7504C48.5598 50.4095 49.0923 50.9423 49.7484 50.9423Z" fill="#462E8D"/>
<path d="M51.7868 29.4891C52.444 29.4891 52.9753 28.9563 52.9753 28.2972C52.9753 27.6381 52.444 27.1054 51.7868 27.1054H49.4096C48.7524 27.1054 48.2211 27.6381 48.2211 28.2972C48.2211 28.9563 48.7524 29.4891 49.4096 29.4891H51.7868Z" fill="#462E8D"/>
<path d="M43.2981 37.832C42.6408 37.832 42.1095 38.3647 42.1095 39.0238C42.1095 39.6829 42.6408 40.2157 43.2981 40.2157H45.6752C46.3325 40.2157 46.8637 39.6829 46.8637 39.0238C46.8637 38.3647 46.3325 37.832 45.6752 37.832H43.2981Z" fill="#462E8D"/>
<path d="M53.9951 39.0238C53.9951 38.3647 53.4638 37.832 52.8065 37.832H50.4294C49.7722 37.832 49.2409 38.3647 49.2409 39.0238C49.2409 39.6829 49.7722 40.2157 50.4294 40.2157H52.8065C53.4626 40.2157 53.9951 39.6829 53.9951 39.0238Z" fill="#462E8D"/>
<path d="M70.7241 43.3526C70.6195 42.7019 70.0074 42.2573 69.362 42.3646C68.713 42.4683 68.2721 43.0809 68.3767 43.7304C68.41 43.9426 68.429 44.1583 68.4266 44.3883C68.4266 44.7888 68.3696 45.1845 68.2578 45.5659C68.0736 46.1975 68.4337 46.8602 69.0649 47.045C69.1766 47.0771 69.2883 47.0926 69.3988 47.0926C69.9135 47.0926 70.3877 46.7565 70.5399 46.2357C70.7146 45.6362 70.8037 45.0152 70.8037 44.3967C70.8061 44.0534 70.78 43.7018 70.7241 43.3526Z" fill="#462E8D"/>
<path d="M50.0883 70.0118H47.7112C47.0539 70.0118 46.5226 70.5446 46.5226 71.2036C46.5226 71.8627 47.0539 72.3955 47.7112 72.3955H50.0883C50.7456 72.3955 51.2769 71.8627 51.2769 71.2036C51.2769 70.5446 50.7444 70.0118 50.0883 70.0118Z" fill="#462E8D"/>
<path d="M42.9569 70.0118H40.5798C39.9225 70.0118 39.3913 70.5446 39.3913 71.2036C39.3913 71.8627 39.9225 72.3955 40.5798 72.3955H42.9569C43.6142 72.3955 44.1455 71.8627 44.1455 71.2036C44.1455 70.5446 43.613 70.0118 42.9569 70.0118Z" fill="#462E8D"/>
<path d="M56.0323 60.477C56.0323 59.8179 55.501 59.2852 54.8437 59.2852H52.4666C51.8093 59.2852 51.2781 59.8179 51.2781 60.477C51.2781 61.1361 51.8093 61.6689 52.4666 61.6689H54.8437C55.4998 61.6689 56.0323 61.1361 56.0323 60.477Z" fill="#462E8D"/>
<path d="M48.9009 60.477C48.9009 59.8179 48.3696 59.2852 47.7124 59.2852H45.3353C44.678 59.2852 44.1467 59.8179 44.1467 60.477C44.1467 61.1361 44.678 61.6689 45.3353 61.6689H47.7124C48.3685 61.6689 48.9009 61.1361 48.9009 60.477Z" fill="#462E8D"/>
<path d="M57.1353 70.0118H54.8414C54.1841 70.0118 53.6528 70.5446 53.6528 71.2036C53.6528 71.8627 54.1841 72.3955 54.8414 72.3955L57.184 72.3943L57.2185 71.2025V72.3943C57.8757 72.3943 58.3654 71.8615 58.3654 71.2025C58.3654 70.5446 57.7926 70.0118 57.1353 70.0118Z" fill="#462E8D"/>
<path d="M61.3404 63.7177C61.5971 63.7177 61.8574 63.6342 62.0737 63.4626C62.5908 63.055 62.6787 62.3053 62.2734 61.7893C61.6756 61.0277 60.9042 60.3984 60.0401 59.9681C59.4494 59.6737 58.7386 59.9157 58.4463 60.5044C58.1539 61.0944 58.394 61.8095 58.9811 62.1027C59.5314 62.3756 60.0235 62.7773 60.4038 63.2636C60.6392 63.5615 60.9874 63.7177 61.3404 63.7177Z" fill="#462E8D"/>
<path d="M65.8736 48.2356C65.3637 48.4501 64.8241 48.5586 64.2666 48.5586H64.0111C63.3538 48.5586 62.8225 49.0913 62.8225 49.7504C62.8225 50.4095 63.3538 50.9423 64.0111 50.9423H64.2666C65.1414 50.9423 65.9912 50.7706 66.7923 50.4334C67.3985 50.1783 67.6826 49.4799 67.4282 48.8732C67.175 48.2666 66.4738 47.9805 65.8736 48.2356Z" fill="#462E8D"/>
<path d="M33.4069 36.4673C34.0297 36.2611 34.3696 35.5877 34.1652 34.962C34.0285 34.5437 33.9584 34.1063 33.9584 33.6653C33.9596 33.4853 33.9703 33.3053 33.9916 33.1301C34.0737 32.477 33.6125 31.8799 32.9612 31.7988C32.2896 31.7238 31.7144 32.1814 31.6335 32.8322C31.6003 33.1015 31.5824 33.3757 31.5812 33.6593C31.5812 34.3601 31.6906 35.049 31.9057 35.7069C32.0709 36.2087 32.5357 36.5269 33.0349 36.5269C33.1585 36.5269 33.2845 36.509 33.4069 36.4673Z" fill="#462E8D"/>
<path d="M28.6942 70.0118H26.3171C25.6598 70.0118 25.1285 70.5446 25.1285 71.2036C25.1285 71.8627 25.6598 72.3955 26.3171 72.3955H28.6942C29.3515 72.3955 29.8828 71.8627 29.8828 71.2036C29.8828 70.5446 29.3503 70.0118 28.6942 70.0118Z" fill="#462E8D"/>
<path d="M40.6488 61.185C41.1004 61.185 41.5307 60.9264 41.7304 60.489C42.0025 59.8895 41.7411 59.1827 41.1444 58.9098C40.587 58.6535 40.0818 58.2686 39.6848 57.7942C39.2617 57.29 38.5129 57.2245 38.0102 57.6488C37.5074 58.0719 37.442 58.824 37.8652 59.3281C38.488 60.0706 39.2795 60.6761 40.1555 61.0765C40.316 61.1492 40.4836 61.185 40.6488 61.185Z" fill="#462E8D"/>
<path d="M67.5388 38.7116C66.6901 38.2181 65.763 37.9285 64.7849 37.851C64.1323 37.8034 63.5583 38.2884 63.5072 38.9463C63.4561 39.6031 63.9445 40.1763 64.5994 40.2276C65.2199 40.2764 65.8082 40.46 66.3466 40.7734C66.5344 40.8831 66.74 40.9343 66.9421 40.9343C67.3522 40.9343 67.7515 40.721 67.9714 40.3408C68.3006 39.7723 68.1069 39.0429 67.5388 38.7116Z" fill="#462E8D"/>
<path d="M35.8256 70.0118H33.4485C32.7912 70.0118 32.2599 70.5446 32.2599 71.2036C32.2599 71.8627 32.7912 72.3955 33.4485 72.3955H35.8256C36.4829 72.3955 37.0141 71.8627 37.0141 71.2036C37.0141 70.5446 36.4817 70.0118 35.8256 70.0118Z" fill="#462E8D"/>
<path d="M38.7863 54.3259C38.904 53.7133 39.1512 53.1472 39.522 52.6418C39.9107 52.1127 39.7977 51.3666 39.2688 50.9756C38.7399 50.5871 37.9971 50.6991 37.6072 51.2295C37.026 52.0233 36.6362 52.9136 36.4508 53.8778C36.3272 54.5238 36.7491 55.1483 37.3945 55.2734C37.4694 55.2877 37.5454 55.2949 37.6191 55.2949C38.1777 55.2925 38.6757 54.8956 38.7863 54.3259Z" fill="#462E8D"/>
<path d="M58.3238 18.7624C61.9276 18.7624 64.8609 15.821 64.8609 12.2073C64.8609 8.59362 61.9276 5.65215 58.3238 5.65215C54.7201 5.65215 51.7868 8.59362 51.7868 12.2073C51.7868 15.821 54.7201 18.7624 58.3238 18.7624ZM58.3238 8.03584C60.6178 8.03584 62.4838 9.90704 62.4838 12.2073C62.4838 14.5076 60.6178 16.3788 58.3238 16.3788C56.0299 16.3788 54.1639 14.5076 54.1639 12.2073C54.1639 9.90704 56.0311 8.03584 58.3238 8.03584Z" fill="#462E8D"/>
<path d="M14.9414 37.832C11.0085 37.832 7.81004 41.0392 7.81004 44.983C7.81004 48.9269 11.0085 52.1341 14.9414 52.1341C18.8743 52.1341 22.0728 48.9269 22.0728 44.983C22.0728 41.0392 18.8743 37.832 14.9414 37.832ZM14.9414 49.7504C12.3194 49.7504 10.1872 47.6123 10.1872 44.983C10.1872 42.3538 12.3194 40.2157 14.9414 40.2157C17.5634 40.2157 19.6956 42.3538 19.6956 44.983C19.6956 47.6123 17.5634 49.7504 14.9414 49.7504Z" fill="#462E8D"/>
</svg>
