<svg width="64" height="66" viewBox="0 0 64 66" fill="none" xmlns="http://www.w3.org/2000/svg">
<path d="M63.4356 39.8095C63.4356 36.9746 61.8581 35.6486 60.3208 34.9998C61.5254 33.9578 62.2883 32.425 62.2883 30.7195C62.2883 27.5869 59.7151 25.0383 56.5522 25.0383H40.0711L40.9074 21.1638C42.0237 15.995 41.2906 10.124 41.0405 8.44807C40.4462 4.47918 36.9024 0.0410156 33.0489 0.0410156H32.7747C30.9437 0.0410156 27.8714 1.07386 27.8714 7.99471C27.8714 17.1108 25.5747 21.2819 23.6485 23.1749C21.759 25.0315 19.9418 25.0111 19.8408 25.0383H18.6936V22.7659H0.337891V65.943H18.6936V63.6706H50.816C53.979 63.6706 56.5522 61.122 56.5522 57.9894C56.5522 56.6668 56.0933 55.4487 55.3258 54.4818C57.9805 53.9852 59.9939 51.6707 59.9939 48.8994C59.9939 47.5768 59.535 46.3588 58.7675 45.3918C61.4222 44.8953 63.4356 42.5808 63.4356 39.8095ZM2.63235 63.6706V25.0383H16.3991V63.6706H2.63235ZM57.6994 43.2182H45.0799C44.4466 43.2182 43.9327 43.7261 43.9327 44.3545C43.9327 44.9828 44.4466 45.4907 45.0799 45.4907H54.2577C56.1552 45.4907 57.6994 47.0201 57.6994 48.8994C57.6994 50.7788 56.1552 52.3081 54.2577 52.3081H42.7854C42.1522 52.3081 41.6382 52.816 41.6382 53.4444C41.6382 54.0727 42.1522 54.5806 42.7854 54.5806H50.816C52.7136 54.5806 54.2577 56.11 54.2577 57.9894C54.2577 59.8687 52.7136 61.3981 50.816 61.3981H18.6936V27.3108L19.8052 27.3097C19.9165 27.3313 22.5815 27.3665 25.1766 24.8736C28.4875 21.6966 30.1659 16.0177 30.1659 7.99471C30.1659 5.87335 30.5043 2.3135 32.7747 2.3135H33.0489C35.6083 2.3135 38.3353 5.86994 38.7701 8.77985C39.0076 10.3615 39.6994 15.8927 38.6634 20.6877L37.2351 27.3108H56.5522C58.4497 27.3108 59.9939 28.8402 59.9939 30.7195C59.9939 32.5989 58.4497 34.1283 56.5522 34.1283H45.0799C44.4466 34.1283 43.9327 34.6362 43.9327 35.2645C43.9327 35.8929 44.4466 36.4008 45.0799 36.4008H53.1105C54.1235 36.4008 56.3514 36.4462 57.5319 36.6201C60.5273 37.0598 61.1411 38.2131 61.1411 39.8095C61.1411 41.6888 59.5969 43.2182 57.6994 43.2182Z" fill="#462E8D"/>
</svg>
