<svg width="57" height="70" viewBox="0 0 57 70" fill="none" xmlns="http://www.w3.org/2000/svg">
<path d="M49.2658 26.5613V19.4196C49.2658 9.24728 40.116 0.970703 28.8706 0.970703C17.6252 0.970703 8.47535 9.24728 8.47535 19.4196V26.5613C4.1401 27.3069 0.827148 31.0781 0.827148 35.6165V60.4806C0.827148 65.5509 4.961 69.6771 10.042 69.6771H47.6992C52.7801 69.6771 56.914 65.5509 56.914 60.4793V35.6153C56.914 31.0781 53.601 27.3069 49.2658 26.5613ZM11.0248 19.4196C11.0248 10.6494 19.0299 3.51538 28.8706 3.51538C38.7113 3.51538 46.7164 10.6494 46.7164 19.4196V26.4175H11.0248V19.4196ZM54.3646 60.4793C54.3646 64.1475 51.3741 67.1324 47.6992 67.1324H10.042C6.367 67.1324 3.37655 64.1475 3.37655 60.4793V35.6153C3.37655 31.9471 6.367 28.9622 10.042 28.9622H47.6992C51.3741 28.9622 54.3646 31.9471 54.3646 35.6153V60.4793Z" fill="#462E8D"/>
<path d="M28.8706 36.5962C26.0586 36.5962 23.7718 38.8788 23.7718 41.6856V49.3196C23.7718 52.1264 26.0586 54.409 28.8706 54.409C31.6826 54.409 33.9694 52.1264 33.9694 49.3196V41.6856C33.9694 38.8788 31.6826 36.5962 28.8706 36.5962ZM31.42 49.3196C31.42 50.723 30.2766 51.8643 28.8706 51.8643C27.4646 51.8643 26.3212 50.723 26.3212 49.3196V41.6856C26.3212 40.2822 27.4646 39.1409 28.8706 39.1409C30.2766 39.1409 31.42 40.2822 31.42 41.6856V49.3196Z" fill="#462E8D"/>
</svg>
