<svg width="59" height="69" viewBox="0 0 59 69" fill="none" xmlns="http://www.w3.org/2000/svg">
<path d="M58.1769 62.6777C58.1095 62.1983 57.9831 61.728 57.793 61.2842L55.2738 56.2457C55.2252 56.1485 55.1548 56.0519 55.0649 55.9635L41.0744 27.5035V9.4109C43.5936 9.4109 45.6548 7.3497 45.6548 4.83051C45.6549 2.31119 43.5937 0.25 41.0744 0.25H18.1723C15.6532 0.25 13.592 2.31119 13.592 4.83038C13.592 7.34957 15.6532 9.41076 18.1723 9.41076V27.5035L1.45375 61.5131C0.652219 63.1163 0.766685 65.0629 1.79728 66.5517C2.82788 68.0403 4.43107 68.9564 6.2632 68.9564H52.9835C54.8157 68.9564 56.5333 68.2693 57.4494 66.6661C58.1609 65.4211 58.4552 64.0381 58.1769 62.6777ZM15.8821 4.83038C15.8821 3.57072 16.9127 2.54012 18.1723 2.54012H41.0745C42.3342 2.54012 43.3648 3.57072 43.3648 4.83038C43.3648 6.09004 42.3342 7.12064 41.0745 7.12064H18.1725C16.9127 7.12064 15.8821 6.09004 15.8821 4.83038ZM20.348 28.1906C20.4625 28.0761 20.4625 27.9615 20.4625 27.7326V9.4109H38.7841V27.7326C38.7841 27.9616 38.7841 28.0761 38.8986 28.1906L51.7543 54.5185C51.0729 54.1216 50.4485 53.6602 49.8916 53.1539C44.9677 48.23 37.0665 44.3366 31.2264 49.6041L31.112 49.7186C26.417 54.07 19.7754 50.6347 15.424 46.2833C14.573 45.5174 13.5323 44.8151 12.4427 44.2697L20.348 28.1906ZM52.8691 66.6661H6.2632C5.2326 66.6661 4.31647 66.2081 3.74401 65.292C3.17154 64.3759 3.05694 63.3453 3.51494 62.4293L11.4444 46.3007C12.351 46.8651 13.253 47.3221 13.7064 48.1154C18.6303 53.0393 26.5316 56.9328 32.3716 51.6652L32.4861 51.5507C37.1811 47.1993 43.8226 50.6346 48.1741 54.986C49.6627 56.2457 51.3803 57.1617 53.3271 57.8488L55.6173 62.4291C56.0753 63.3453 55.9609 64.3759 55.3883 65.2919C54.8157 66.2079 53.8997 66.6661 52.8691 66.6661Z" fill="#462E8D"/>
<path d="M21.6077 34.6032H28.4784C29.1655 34.6032 29.6235 34.1452 29.6235 33.4581C29.6235 32.7711 29.1655 32.3131 28.4784 32.3131H21.6077C20.9207 32.3131 20.4627 32.7711 20.4627 33.4581C20.4627 34.1452 20.9207 34.6032 21.6077 34.6032Z" fill="#462E8D"/>
<path d="M17.027 43.7641H23.8977C24.5847 43.7641 25.0427 43.3061 25.0427 42.6191C25.0427 41.932 24.5847 41.474 23.8977 41.474H17.027C16.34 41.474 15.882 41.932 15.882 42.6191C15.882 43.3061 16.34 43.7641 17.027 43.7641Z" fill="#462E8D"/>
<path d="M19.3175 39.1836H22.7528C23.4399 39.1836 23.8979 38.7256 23.8979 38.0385C23.8979 37.3514 23.4399 36.8934 22.7528 36.8934H19.3175C18.6304 36.8934 18.1724 37.3514 18.1724 38.0385C18.1724 38.7256 18.6304 39.1836 19.3175 39.1836Z" fill="#462E8D"/>
</svg>
