<svg width="69" height="69" viewBox="0 0 69 69" fill="none" xmlns="http://www.w3.org/2000/svg">
<path d="M62.6789 6.43956C55.2461 -0.995477 43.1486 -0.995477 35.7136 6.43956L6.51293 35.6391C-0.920978 43.073 -0.920978 55.1694 6.51293 62.6044C10.0998 66.1924 14.8879 68.1675 19.9956 68.1675C25.1033 68.1675 29.8903 66.1924 33.4783 62.6044L62.6789 33.4038C66.2669 29.8169 68.242 25.0288 68.242 19.9211C68.242 14.8134 66.2658 10.0264 62.6789 6.43956ZM31.8912 61.0185C28.7283 64.1825 24.5033 65.9243 19.9956 65.9243C15.4879 65.9243 11.2629 64.1825 8.09999 61.0185C1.53979 54.4583 1.53979 43.7852 8.09999 37.2261L22.2321 23.0941L46.0244 46.8864L31.8912 61.0185ZM61.093 31.8178L47.6103 45.3005L23.8169 21.507L37.2995 8.02549C39.1367 6.18832 41.3002 4.88615 43.6017 4.07748C43.5928 4.13356 43.5692 4.18291 43.5692 4.24124C43.5692 4.86036 44.0717 5.36283 44.6908 5.36283C45.3099 5.36283 45.8124 4.86036 45.8124 4.24124C45.8124 3.9642 45.7014 3.71857 45.5342 3.5223C46.7388 3.25536 47.9659 3.10619 49.1963 3.10619C49.7929 3.10619 50.3896 3.14544 50.9829 3.20825C50.5803 3.37873 50.2988 3.7769 50.2988 4.24124C50.2988 4.86036 50.8012 5.36283 51.4204 5.36283C52.0395 5.36283 52.542 4.86036 52.542 4.24124C52.542 3.88008 52.3603 3.57277 52.0944 3.36752C55.1149 3.8913 58.0097 5.24955 60.429 7.42544C60.4189 7.486 60.3931 7.54208 60.3931 7.60489C60.3931 8.22401 60.8956 8.72648 61.5147 8.72648C61.5786 8.72648 61.6347 8.70069 61.6964 8.68947C63.814 11.0437 65.2002 13.9015 65.7352 16.9982C65.53 16.747 65.2294 16.5765 64.8795 16.5765C64.2604 16.5765 63.7579 17.079 63.7579 17.6981C63.7579 18.3172 64.2604 18.8197 64.8795 18.8197C65.3382 18.8197 65.7296 18.5427 65.9035 18.1479C65.9641 18.7322 65.9988 19.3233 65.9988 19.9189C65.9988 21.1672 65.8519 22.3908 65.5917 23.5797C65.3965 23.416 65.1543 23.3061 64.8795 23.3061C64.2604 23.3061 63.7579 23.8085 63.7579 24.4277C63.7579 25.0468 64.2604 25.5492 64.8795 25.5492C64.9356 25.5492 64.9827 25.5257 65.0365 25.5178C64.2155 27.8642 62.8931 30.0165 61.093 31.8178Z" fill="#462E8D"/>
<path d="M34.5965 15.4571C35.2159 15.4571 35.7181 14.955 35.7181 14.3355C35.7181 13.7161 35.2159 13.2139 34.5965 13.2139C33.977 13.2139 33.4749 13.7161 33.4749 14.3355C33.4749 14.955 33.977 15.4571 34.5965 15.4571Z" fill="#462E8D"/>
<path d="M41.326 8.72757C41.9455 8.72757 42.4476 8.22541 42.4476 7.60598C42.4476 6.98654 41.9455 6.48438 41.326 6.48438C40.7066 6.48438 40.2044 6.98654 40.2044 7.60598C40.2044 8.22541 40.7066 8.72757 41.326 8.72757Z" fill="#462E8D"/>
<path d="M41.326 15.4571C41.9455 15.4571 42.4476 14.955 42.4476 14.3355C42.4476 13.7161 41.9455 13.2139 41.326 13.2139C40.7066 13.2139 40.2044 13.7161 40.2044 14.3355C40.2044 14.955 40.7066 15.4571 41.326 15.4571Z" fill="#462E8D"/>
<path d="M48.0556 8.72757C48.675 8.72757 49.1772 8.22541 49.1772 7.60598C49.1772 6.98654 48.675 6.48438 48.0556 6.48438C47.4361 6.48438 46.934 6.98654 46.934 7.60598C46.934 8.22541 47.4361 8.72757 48.0556 8.72757Z" fill="#462E8D"/>
<path d="M48.0556 15.4571C48.675 15.4571 49.1772 14.955 49.1772 14.3355C49.1772 13.7161 48.675 13.2139 48.0556 13.2139C47.4361 13.2139 46.934 13.7161 46.934 14.3355C46.934 14.955 47.4361 15.4571 48.0556 15.4571Z" fill="#462E8D"/>
<path d="M37.9613 12.0923C38.5807 12.0923 39.0828 11.5902 39.0828 10.9708C39.0828 10.3513 38.5807 9.84916 37.9613 9.84916C37.3418 9.84916 36.8397 10.3513 36.8397 10.9708C36.8397 11.5902 37.3418 12.0923 37.9613 12.0923Z" fill="#462E8D"/>
<path d="M44.6908 12.0923C45.3102 12.0923 45.8124 11.5902 45.8124 10.9708C45.8124 10.3513 45.3102 9.84916 44.6908 9.84916C44.0714 9.84916 43.5692 10.3513 43.5692 10.9708C43.5692 11.5902 44.0714 12.0923 44.6908 12.0923Z" fill="#462E8D"/>
<path d="M54.7851 8.72757C55.4046 8.72757 55.9067 8.22541 55.9067 7.60598C55.9067 6.98654 55.4046 6.48438 54.7851 6.48438C54.1657 6.48438 53.6635 6.98654 53.6635 7.60598C53.6635 8.22541 54.1657 8.72757 54.7851 8.72757Z" fill="#462E8D"/>
<path d="M54.7851 15.4571C55.4046 15.4571 55.9067 14.955 55.9067 14.3355C55.9067 13.7161 55.4046 13.2139 54.7851 13.2139C54.1657 13.2139 53.6635 13.7161 53.6635 14.3355C53.6635 14.955 54.1657 15.4571 54.7851 15.4571Z" fill="#462E8D"/>
<path d="M61.5147 15.4571C62.1341 15.4571 62.6363 14.955 62.6363 14.3355C62.6363 13.7161 62.1341 13.2139 61.5147 13.2139C60.8953 13.2139 60.3931 13.7161 60.3931 14.3355C60.3931 14.955 60.8953 15.4571 61.5147 15.4571Z" fill="#462E8D"/>
<path d="M51.4204 12.0923C52.0398 12.0923 52.542 11.5902 52.542 10.9708C52.542 10.3513 52.0398 9.84916 51.4204 9.84916C50.8009 9.84916 50.2988 10.3513 50.2988 10.9708C50.2988 11.5902 50.8009 12.0923 51.4204 12.0923Z" fill="#462E8D"/>
<path d="M58.1499 12.0923C58.7694 12.0923 59.2715 11.5902 59.2715 10.9708C59.2715 10.3513 58.7694 9.84916 58.1499 9.84916C57.5305 9.84916 57.0283 10.3513 57.0283 10.9708C57.0283 11.5902 57.5305 12.0923 58.1499 12.0923Z" fill="#462E8D"/>
<path d="M27.8669 22.1867C28.4864 22.1867 28.9885 21.6845 28.9885 21.0651C28.9885 20.4456 28.4864 19.9435 27.8669 19.9435C27.2475 19.9435 26.7453 20.4456 26.7453 21.0651C26.7453 21.6845 27.2475 22.1867 27.8669 22.1867Z" fill="#462E8D"/>
<path d="M34.5965 22.1867C35.2159 22.1867 35.7181 21.6845 35.7181 21.0651C35.7181 20.4456 35.2159 19.9435 34.5965 19.9435C33.977 19.9435 33.4749 20.4456 33.4749 21.0651C33.4749 21.6845 33.977 22.1867 34.5965 22.1867Z" fill="#462E8D"/>
<path d="M34.5965 28.9162C35.2159 28.9162 35.7181 28.4141 35.7181 27.7946C35.7181 27.1752 35.2159 26.673 34.5965 26.673C33.977 26.673 33.4749 27.1752 33.4749 27.7946C33.4749 28.4141 33.977 28.9162 34.5965 28.9162Z" fill="#462E8D"/>
<path d="M31.2317 18.8219C31.8511 18.8219 32.3533 18.3197 32.3533 17.7003C32.3533 17.0809 31.8511 16.5787 31.2317 16.5787C30.6123 16.5787 30.1101 17.0809 30.1101 17.7003C30.1101 18.3197 30.6123 18.8219 31.2317 18.8219Z" fill="#462E8D"/>
<path d="M31.2317 25.5515C31.8511 25.5515 32.3533 25.0493 32.3533 24.4299C32.3533 23.8104 31.8511 23.3083 31.2317 23.3083C30.6123 23.3083 30.1101 23.8104 30.1101 24.4299C30.1101 25.0493 30.6123 25.5515 31.2317 25.5515Z" fill="#462E8D"/>
<path d="M37.9613 18.8219C38.5807 18.8219 39.0828 18.3197 39.0828 17.7003C39.0828 17.0809 38.5807 16.5787 37.9613 16.5787C37.3418 16.5787 36.8397 17.0809 36.8397 17.7003C36.8397 18.3197 37.3418 18.8219 37.9613 18.8219Z" fill="#462E8D"/>
<path d="M41.326 22.1867C41.9455 22.1867 42.4476 21.6845 42.4476 21.0651C42.4476 20.4456 41.9455 19.9435 41.326 19.9435C40.7066 19.9435 40.2044 20.4456 40.2044 21.0651C40.2044 21.6845 40.7066 22.1867 41.326 22.1867Z" fill="#462E8D"/>
<path d="M41.326 28.9162C41.9455 28.9162 42.4476 28.4141 42.4476 27.7946C42.4476 27.1752 41.9455 26.673 41.326 26.673C40.7066 26.673 40.2044 27.1752 40.2044 27.7946C40.2044 28.4141 40.7066 28.9162 41.326 28.9162Z" fill="#462E8D"/>
<path d="M48.0556 22.1867C48.675 22.1867 49.1772 21.6845 49.1772 21.0651C49.1772 20.4456 48.675 19.9435 48.0556 19.9435C47.4361 19.9435 46.934 20.4456 46.934 21.0651C46.934 21.6845 47.4361 22.1867 48.0556 22.1867Z" fill="#462E8D"/>
<path d="M48.0556 28.9162C48.675 28.9162 49.1772 28.4141 49.1772 27.7946C49.1772 27.1752 48.675 26.673 48.0556 26.673C47.4361 26.673 46.934 27.1752 46.934 27.7946C46.934 28.4141 47.4361 28.9162 48.0556 28.9162Z" fill="#462E8D"/>
<path d="M44.6908 18.8219C45.3102 18.8219 45.8124 18.3197 45.8124 17.7003C45.8124 17.0809 45.3102 16.5787 44.6908 16.5787C44.0714 16.5787 43.5692 17.0809 43.5692 17.7003C43.5692 18.3197 44.0714 18.8219 44.6908 18.8219Z" fill="#462E8D"/>
<path d="M37.9613 25.5515C38.5807 25.5515 39.0828 25.0493 39.0828 24.4299C39.0828 23.8104 38.5807 23.3083 37.9613 23.3083C37.3418 23.3083 36.8397 23.8104 36.8397 24.4299C36.8397 25.0493 37.3418 25.5515 37.9613 25.5515Z" fill="#462E8D"/>
<path d="M44.6908 25.5515C45.3102 25.5515 45.8124 25.0493 45.8124 24.4299C45.8124 23.8104 45.3102 23.3083 44.6908 23.3083C44.0714 23.3083 43.5692 23.8104 43.5692 24.4299C43.5692 25.0493 44.0714 25.5515 44.6908 25.5515Z" fill="#462E8D"/>
<path d="M51.4204 18.8219C52.0398 18.8219 52.542 18.3197 52.542 17.7003C52.542 17.0809 52.0398 16.5787 51.4204 16.5787C50.8009 16.5787 50.2988 17.0809 50.2988 17.7003C50.2988 18.3197 50.8009 18.8219 51.4204 18.8219Z" fill="#462E8D"/>
<path d="M54.7851 22.1867C55.4046 22.1867 55.9067 21.6845 55.9067 21.0651C55.9067 20.4456 55.4046 19.9435 54.7851 19.9435C54.1657 19.9435 53.6635 20.4456 53.6635 21.0651C53.6635 21.6845 54.1657 22.1867 54.7851 22.1867Z" fill="#462E8D"/>
<path d="M54.7851 28.9162C55.4046 28.9162 55.9067 28.4141 55.9067 27.7946C55.9067 27.1752 55.4046 26.673 54.7851 26.673C54.1657 26.673 53.6635 27.1752 53.6635 27.7946C53.6635 28.4141 54.1657 28.9162 54.7851 28.9162Z" fill="#462E8D"/>
<path d="M61.5147 22.1867C62.1341 22.1867 62.6363 21.6845 62.6363 21.0651C62.6363 20.4456 62.1341 19.9435 61.5147 19.9435C60.8953 19.9435 60.3931 20.4456 60.3931 21.0651C60.3931 21.6845 60.8953 22.1867 61.5147 22.1867Z" fill="#462E8D"/>
<path d="M61.5147 28.9162C62.1341 28.9162 62.6363 28.4141 62.6363 27.7946C62.6363 27.1752 62.1341 26.673 61.5147 26.673C60.8953 26.673 60.3931 27.1752 60.3931 27.7946C60.3931 28.4141 60.8953 28.9162 61.5147 28.9162Z" fill="#462E8D"/>
<path d="M58.1499 18.8219C58.7694 18.8219 59.2715 18.3197 59.2715 17.7003C59.2715 17.0809 58.7694 16.5787 58.1499 16.5787C57.5305 16.5787 57.0283 17.0809 57.0283 17.7003C57.0283 18.3197 57.5305 18.8219 58.1499 18.8219Z" fill="#462E8D"/>
<path d="M51.4204 25.5515C52.0398 25.5515 52.542 25.0493 52.542 24.4299C52.542 23.8104 52.0398 23.3083 51.4204 23.3083C50.8009 23.3083 50.2988 23.8104 50.2988 24.4299C50.2988 25.0493 50.8009 25.5515 51.4204 25.5515Z" fill="#462E8D"/>
<path d="M58.1499 25.5515C58.7694 25.5515 59.2715 25.0493 59.2715 24.4299C59.2715 23.8104 58.7694 23.3083 58.1499 23.3083C57.5305 23.3083 57.0283 23.8104 57.0283 24.4299C57.0283 25.0493 57.5305 25.5515 58.1499 25.5515Z" fill="#462E8D"/>
<path d="M37.9613 32.281C38.5807 32.281 39.0828 31.7788 39.0828 31.1594C39.0828 30.54 38.5807 30.0378 37.9613 30.0378C37.3418 30.0378 36.8397 30.54 36.8397 31.1594C36.8397 31.7788 37.3418 32.281 37.9613 32.281Z" fill="#462E8D"/>
<path d="M41.326 35.6458C41.9455 35.6458 42.4476 35.1436 42.4476 34.5242C42.4476 33.9047 41.9455 33.4026 41.326 33.4026C40.7066 33.4026 40.2044 33.9047 40.2044 34.5242C40.2044 35.1436 40.7066 35.6458 41.326 35.6458Z" fill="#462E8D"/>
<path d="M48.0556 35.6458C48.675 35.6458 49.1772 35.1436 49.1772 34.5242C49.1772 33.9047 48.675 33.4026 48.0556 33.4026C47.4361 33.4026 46.934 33.9047 46.934 34.5242C46.934 35.1436 47.4361 35.6458 48.0556 35.6458Z" fill="#462E8D"/>
<path d="M48.0556 42.3753C48.675 42.3753 49.1772 41.8732 49.1772 41.2537C49.1772 40.6343 48.675 40.1321 48.0556 40.1321C47.4361 40.1321 46.934 40.6343 46.934 41.2537C46.934 41.8732 47.4361 42.3753 48.0556 42.3753Z" fill="#462E8D"/>
<path d="M44.6908 32.281C45.3102 32.281 45.8124 31.7788 45.8124 31.1594C45.8124 30.54 45.3102 30.0378 44.6908 30.0378C44.0714 30.0378 43.5692 30.54 43.5692 31.1594C43.5692 31.7788 44.0714 32.281 44.6908 32.281Z" fill="#462E8D"/>
<path d="M44.6908 39.0106C45.3102 39.0106 45.8124 38.5084 45.8124 37.889C45.8124 37.2695 45.3102 36.7674 44.6908 36.7674C44.0714 36.7674 43.5692 37.2695 43.5692 37.889C43.5692 38.5084 44.0714 39.0106 44.6908 39.0106Z" fill="#462E8D"/>
<path d="M51.4204 32.281C52.0398 32.281 52.542 31.7788 52.542 31.1594C52.542 30.54 52.0398 30.0378 51.4204 30.0378C50.8009 30.0378 50.2988 30.54 50.2988 31.1594C50.2988 31.7788 50.8009 32.281 51.4204 32.281Z" fill="#462E8D"/>
<path d="M54.7851 35.6458C55.4046 35.6458 55.9067 35.1436 55.9067 34.5242C55.9067 33.9047 55.4046 33.4026 54.7851 33.4026C54.1657 33.4026 53.6635 33.9047 53.6635 34.5242C53.6635 35.1436 54.1657 35.6458 54.7851 35.6458Z" fill="#462E8D"/>
<path d="M58.1499 32.281C58.7694 32.281 59.2715 31.7788 59.2715 31.1594C59.2715 30.54 58.7694 30.0378 58.1499 30.0378C57.5305 30.0378 57.0283 30.54 57.0283 31.1594C57.0283 31.7788 57.5305 32.281 58.1499 32.281Z" fill="#462E8D"/>
<path d="M51.4204 39.0106C52.0398 39.0106 52.542 38.5084 52.542 37.889C52.542 37.2695 52.0398 36.7674 51.4204 36.7674C50.8009 36.7674 50.2988 37.2695 50.2988 37.889C50.2988 38.5084 50.8009 39.0106 51.4204 39.0106Z" fill="#462E8D"/>
</svg>
