<svg width="73" height="68" viewBox="0 0 73 68" fill="none" xmlns="http://www.w3.org/2000/svg">
<path d="M72.3169 15.064C72.3447 12.176 71.2237 9.4398 69.1561 7.35949C66.9929 5.18006 63.9895 3.93921 60.8966 3.93921C60.8421 3.93921 60.7876 3.93921 60.7331 3.94044C55.983 4.00774 51.2872 4.76889 46.7743 6.20186C46.14 6.40132 45.4113 6.19329 44.8641 5.63895C41.4988 2.23703 37.0246 0.329258 32.2671 0.265625C32.2478 0.265625 32.2308 0.265625 32.2127 0.265625C30.3121 0.265625 28.6912 1.59825 28.4297 3.38609C28.2747 4.45195 28.5822 5.52759 29.2734 6.33524C29.9635 7.14289 30.9646 7.60668 32.0214 7.60668C32.8821 7.60668 34.1132 7.94932 35.5804 8.60033C36.1058 8.83284 36.4435 9.31621 36.4835 9.89258C36.5222 10.4604 36.2595 10.978 35.7801 11.2778C35.262 11.6033 34.75 11.935 34.244 12.2788C32.7852 13.2676 31.0312 13.6506 29.2892 13.3483C28.299 13.1782 27.2918 13.0926 26.2979 13.0926C21.5356 13.0926 17.036 14.9441 13.6247 18.3056C12.2023 19.708 12.0147 21.8801 13.1865 23.3583C13.8801 24.232 14.9115 24.7362 16.0143 24.7399C16.018 24.7399 16.0228 24.7399 16.0276 24.7399C17.1244 24.7399 18.1522 24.2455 18.847 23.3816C19.8663 22.1162 20.9643 21.3135 22.1106 20.9953C23.8224 20.5217 24.792 20.3773 25.3246 20.3455C24.8162 21.1471 23.6916 22.4271 22.9556 23.2678C21.9424 24.4205 20.894 25.6136 20.2246 26.6623C19.9716 27.0576 19.5128 27.2632 19.0213 27.235C18.6255 27.2057 18.226 27.1885 17.8241 27.1885C13.0642 27.1885 8.56825 29.0376 5.15814 32.3954C3.77933 33.7538 3.55296 35.8818 4.62792 37.3429C5.26225 38.2068 6.2319 38.7477 7.28507 38.826C8.35036 38.897 9.37327 38.5164 10.119 37.7602C10.8731 36.9978 12.3524 36.2306 14.3934 35.5416C14.8086 35.4033 15.0846 35.6346 15.1863 35.7398C15.288 35.8451 15.5083 36.1351 15.3594 36.5475C14.9321 37.7308 14.5471 38.9399 14.213 40.1428C13.8753 41.3591 12.9286 42.3357 11.6564 42.7615C7.12528 44.2863 3.42706 47.4899 1.24445 51.7852C0.376483 53.4935 0.83407 55.5677 2.30731 56.609C3.18132 57.2282 4.27202 57.4302 5.29251 57.1671C6.31785 56.904 7.17613 56.2064 7.64824 55.2532C8.03682 54.4663 8.94958 53.8422 10.1516 53.5387C11.1976 53.2732 12.0341 53.3601 12.3972 53.4727C12.4795 57.6431 14.0363 60.8663 16.8 62.5722C23.0863 66.4501 29.3521 64.0602 32.2962 59.6952C32.83 58.9047 33.2888 57.5183 33.7004 55.4575C33.8021 54.9485 34.1302 54.5348 34.6023 54.3219C35.0817 54.1053 35.6119 54.1371 36.0586 54.4015C39.3549 56.3643 41.4189 59.9718 41.4455 63.8192C41.4588 65.7355 42.8388 67.3386 44.6583 67.5466C44.7951 67.5625 44.9331 67.5698 45.0699 67.5698C45.962 67.5698 46.8276 67.2407 47.4958 66.6374C48.2669 65.9423 48.7088 64.9438 48.7088 63.8999C48.7088 55.5432 43.0979 48.2768 35.2378 46.1744C35.7729 44.87 36.6832 43.8837 37.8732 43.3464C39.3997 42.655 41.1731 42.7897 42.8594 43.7233C45.433 45.1477 47.2949 47.4948 48.1023 50.3351C48.6144 52.1364 50.4084 53.3222 52.1879 53.026C53.2144 52.8571 54.1211 52.2563 54.6756 51.3752C55.2324 50.4942 55.391 49.4124 55.1114 48.4053C53.5389 42.7554 49.3286 38.175 43.846 36.151C43.2383 35.9271 42.8013 35.4009 42.6742 34.7437C42.5483 34.0878 42.7505 33.4613 43.2758 32.9853C43.5228 32.7625 43.8182 32.6133 44.1087 32.5655C49.5997 31.6698 55 35.2296 56.3897 40.68C56.863 42.5339 58.6462 43.7894 60.4499 43.5092C61.4692 43.3599 62.3807 42.7811 62.9509 41.9208C63.521 41.0605 63.7062 39.991 63.4593 38.9864C62.4255 34.8062 59.9499 31.1105 56.4841 28.5823C55.8595 28.1259 55.9587 27.4578 56.0047 27.2644C56.0483 27.076 56.2481 26.4519 56.9841 26.3283C58.4392 26.0872 59.9318 25.9636 61.434 25.9636H61.4377C61.9848 25.9636 62.4545 26.1643 62.7269 26.5155C64.2292 28.449 65.033 30.7691 65.0512 33.2239C65.0645 35.1414 66.4445 36.7445 68.2639 36.9525C69.2929 37.0712 70.3304 36.7396 71.1015 36.0433C71.8726 35.3483 72.3144 34.3497 72.3144 33.3059C72.3144 30.2172 71.5324 27.1579 70.0519 24.4572C69.5169 23.4807 69.5508 22.3365 70.1403 21.5423C71.5397 19.659 72.2914 17.4196 72.3169 15.064ZM68.2058 20.0714C67.0437 21.6365 66.9384 23.8221 67.9347 25.6418C69.2179 27.9803 69.8946 30.6308 69.8946 33.3059C69.8946 33.6583 69.7517 33.9838 69.4902 34.2188C69.23 34.4537 68.8874 34.5651 68.5375 34.5198C67.9553 34.4537 67.4783 33.8651 67.4735 33.208C67.4517 30.2038 66.4699 27.3672 64.6311 25.003C63.8963 24.0583 62.733 23.5162 61.4268 23.5162H61.4207C59.801 23.5162 58.1765 23.6496 56.5919 23.9139C55.1198 24.1586 53.9928 25.2269 53.649 26.7027C53.3076 28.17 53.8657 29.6861 55.0702 30.5648C58.0711 32.7564 60.2175 35.9564 61.112 39.5774C61.1956 39.9164 61.1363 40.2651 60.9414 40.5564C60.7489 40.8464 60.4511 41.0361 60.1024 41.0875C59.5153 41.178 58.9028 40.7167 58.7369 40.0681C57.0386 33.4074 50.4483 29.0596 43.7225 30.1499C42.972 30.2747 42.2602 30.6235 41.615 31.206C40.5049 32.2131 40.0134 33.7097 40.3003 35.2087C40.5884 36.7164 41.6041 37.9303 43.018 38.4504C47.7706 40.2052 51.4192 44.1737 52.7811 49.0673C52.8755 49.4075 52.8234 49.7599 52.6358 50.0597C52.4482 50.3559 52.1516 50.5517 51.8005 50.6092C51.2291 50.7095 50.6069 50.2776 50.4302 49.6584C49.4436 46.1855 47.1678 43.3146 44.0228 41.577C41.6876 40.2859 39.0874 40.1171 36.8854 41.1119C34.7185 42.0921 33.1363 44.1211 32.5298 46.7435L32.2913 48.0492L33.5261 48.289C40.9213 49.7257 46.2889 56.2909 46.2889 63.8999C46.2889 64.2524 46.1461 64.5779 45.8846 64.8128C45.6231 65.0478 45.2829 65.1591 44.9319 65.1139C44.3496 65.0478 43.8726 64.4604 43.8678 63.8033C43.8339 59.0993 41.3135 54.689 37.2873 52.293C36.6638 51.9222 35.9593 51.735 35.2523 51.735C34.6955 51.735 34.1374 51.8525 33.6157 52.0862C32.4197 52.6259 31.5844 53.6783 31.3253 54.9729C30.8617 57.2968 30.4501 58.0848 30.2939 58.3149C27.9951 61.7217 23.0573 63.5646 18.0602 60.4821C15.38 58.8276 14.8147 55.5713 14.8135 53.1313C14.8135 52.7556 14.6694 51.4964 12.8306 51.0583C10.7049 50.548 6.86259 51.3642 5.48015 54.1567C5.32278 54.4749 5.03709 54.7074 4.69571 54.7943C4.3495 54.8812 3.9936 54.8163 3.69338 54.6034C3.21401 54.2656 3.08448 53.5167 3.3968 52.9024C5.28888 49.1811 8.49199 46.4033 12.4432 45.0755C14.4539 44.4013 15.9865 42.8056 16.5433 40.8048C16.8605 39.6606 17.2273 38.5116 17.6328 37.3882C18.0565 36.2171 17.7841 34.931 16.9222 34.0352C16.0603 33.1395 14.8014 32.825 13.6259 33.2214C11.1951 34.0401 9.43864 34.9848 8.40483 36.0299C8.15546 36.2819 7.81166 36.4141 7.4606 36.3847C7.10349 36.359 6.78754 36.1804 6.56964 35.883C6.17864 35.3519 6.40259 34.5834 6.84686 34.1478C9.79938 31.239 13.6986 29.636 17.8217 29.636C18.1643 29.636 18.5032 29.6506 18.8385 29.6751C20.2028 29.7804 21.5247 29.1355 22.2571 27.9901C22.8261 27.098 23.8102 25.9758 24.7629 24.8916C27.0448 22.2949 28.6924 20.419 27.7336 18.8587C26.9843 17.6387 25.2847 17.5775 21.4678 18.6336C19.8251 19.09 18.3095 20.1681 16.9658 21.836C16.6462 22.2325 16.2395 22.2925 16.024 22.2925H16.0192C15.8025 22.2912 15.3921 22.23 15.0725 21.8274C14.6452 21.289 14.8595 20.5046 15.3122 20.058C18.8821 16.5386 23.9047 14.9049 28.88 15.7627C31.2273 16.1666 33.612 15.6514 35.5877 14.3114C36.0695 13.9847 36.5561 13.6677 37.0488 13.3594C38.2884 12.5847 38.9953 11.1909 38.8937 9.72003C38.7908 8.24179 37.8913 6.95322 36.5476 6.35849C34.75 5.56308 33.2259 5.16048 32.0165 5.16048C31.6655 5.16048 31.3314 5.00629 31.1002 4.73585C30.8665 4.46174 30.7673 4.10931 30.8205 3.74342C30.9149 3.09485 31.5977 2.71305 32.2102 2.71305C32.2175 2.71305 32.2235 2.71305 32.2308 2.71305C36.3539 2.76689 40.2313 4.42136 43.1608 7.38152C44.3339 8.56974 45.9935 9.0115 47.4958 8.53548C51.7848 7.17349 56.2481 6.45027 60.7622 6.38664C63.2559 6.33279 65.7012 7.33746 67.4444 9.09227C69.0448 10.7027 69.9151 12.8148 69.8921 15.0371C69.8764 16.869 69.2917 18.6091 68.2058 20.0714Z" fill="#462E8D"/>
<path d="M22.6844 50.4366C20.014 50.4366 17.8422 52.632 17.8422 55.3315C17.8422 58.031 20.014 60.2263 22.6844 60.2263C25.3549 60.2263 27.5266 58.031 27.5266 55.3315C27.5266 52.632 25.3549 50.4366 22.6844 50.4366ZM22.6844 57.7789C21.3492 57.7789 20.2633 56.6812 20.2633 55.3315C20.2633 53.9817 21.3492 52.8841 22.6844 52.8841C24.0197 52.8841 25.1055 53.9817 25.1055 55.3315C25.1055 56.6812 24.0185 57.7789 22.6844 57.7789Z" fill="#462E8D"/>
<path d="M25.1055 36.9758C22.4351 36.9758 20.2633 39.1711 20.2633 41.8706C20.2633 44.5702 22.4351 46.7655 25.1055 46.7655C27.776 46.7655 29.9477 44.5702 29.9477 41.8706C29.9477 39.1711 27.776 36.9758 25.1055 36.9758ZM25.1055 44.3181C23.7703 44.3181 22.6844 43.2204 22.6844 41.8706C22.6844 40.5209 23.7703 39.4232 25.1055 39.4232C26.4407 39.4232 27.5266 40.5209 27.5266 41.8706C27.5266 43.2204 26.4395 44.3181 25.1055 44.3181Z" fill="#462E8D"/>
<path d="M31.1582 24.7387C28.4878 24.7387 26.3161 26.934 26.3161 29.6335C26.3161 32.333 28.4878 34.5284 31.1582 34.5284C33.8287 34.5284 36.0004 32.333 36.0004 29.6335C36.0004 26.934 33.8287 24.7387 31.1582 24.7387ZM31.1582 32.0809C29.823 32.0809 28.7372 30.9833 28.7372 29.6335C28.7372 28.2838 29.823 27.1861 31.1582 27.1861C32.4935 27.1861 33.5793 28.2838 33.5793 29.6335C33.5793 30.9833 32.4923 32.0809 31.1582 32.0809Z" fill="#462E8D"/>
<path d="M42.0532 16.1727C39.3827 16.1727 37.211 18.368 37.211 21.0675C37.211 23.767 39.3827 25.9624 42.0532 25.9624C44.7236 25.9624 46.8954 23.767 46.8954 21.0675C46.8954 18.368 44.7236 16.1727 42.0532 16.1727ZM42.0532 23.5149C40.7179 23.5149 39.6321 22.4173 39.6321 21.0675C39.6321 19.7178 40.7179 18.6201 42.0532 18.6201C43.3884 18.6201 44.4743 19.7178 44.4743 21.0675C44.4743 22.4173 43.3872 23.5149 42.0532 23.5149Z" fill="#462E8D"/>
<path d="M55.3692 11.2778C52.6987 11.2778 50.527 13.4732 50.527 16.1727C50.527 18.8722 52.6987 21.0675 55.3692 21.0675C58.0397 21.0675 60.2114 18.8722 60.2114 16.1727C60.2114 13.4732 58.0397 11.2778 55.3692 11.2778ZM55.3692 18.6201C54.034 18.6201 52.9481 17.5224 52.9481 16.1727C52.9481 14.8229 54.034 13.7252 55.3692 13.7252C56.7044 13.7252 57.7903 14.8229 57.7903 16.1727C57.7903 17.5224 56.7032 18.6201 55.3692 18.6201Z" fill="#462E8D"/>
</svg>
