<svg width="77" height="77" viewBox="0 0 77 77" fill="none" xmlns="http://www.w3.org/2000/svg">
<path d="M76.0168 21.0715C75.5009 20.5547 74.727 20.5547 74.2109 21.0715C73.8533 21.4297 73.4979 21.7616 73.1436 22.0696L54.8891 3.78406C55.1626 3.47516 55.4536 3.16506 55.7654 2.85284C56.2813 2.33605 56.2813 1.56078 55.7654 1.04384C55.2495 0.527052 54.4756 0.527052 53.9595 1.04384C50.6258 4.44621 49.2557 7.69534 48.9955 11.3748C48.9224 11.5904 48.9104 11.8182 48.9603 12.0377C48.8477 15.254 49.5214 18.8156 50.4367 23.0968C46.8512 22.443 43.4768 22.2422 40.4131 22.4697C40.0623 22.3019 39.6857 22.3349 39.3452 22.5684C35.2037 23.0225 31.6813 24.2924 29.0428 26.3124C28.8651 26.3756 28.6961 26.4797 28.5485 26.6275C28.4704 26.7057 28.4055 26.7905 28.351 26.879C28.108 27.0903 27.8707 27.3064 27.6455 27.532C25.044 30.1379 23.894 33.3333 23.7264 37.3106C23.6295 37.57 23.6219 37.8492 23.7057 38.1115C23.6762 41.1731 24.1815 44.6817 25.0301 48.7229C14.0746 46.5736 6.81952 48.2642 1.07346 54.0201C0.557546 54.5369 0.557546 55.3121 1.07346 55.8291C1.33149 56.0875 1.58937 56.2167 1.97634 56.2167C2.36331 56.2167 2.62134 56.0875 2.75028 55.9582C3.4175 55.2899 4.10211 54.6866 4.80893 54.1441L22.8894 72.2552C22.3776 72.9169 21.8151 73.5566 21.1959 74.1769C20.68 74.6936 20.68 75.4689 21.1959 75.9859C21.454 76.2443 21.7118 76.3735 22.0988 76.3735C22.3568 76.3735 22.7438 76.2443 23.1308 75.8567C28.8203 70.1575 30.5333 62.9786 28.4837 52.1846C38.0768 54.1757 44.6433 54.1783 49.3159 49.4978C54.0688 44.8588 55.5957 36.4127 53.683 26.3407C63.4116 28.434 69.541 29.3675 76.0168 22.8805C76.5327 22.3637 76.5327 21.5884 76.0168 21.0715ZM71.0653 23.6058C69.344 24.6577 67.5893 25.1935 65.6564 25.3604C65.5986 25.2603 65.5271 25.1648 65.4395 25.0769L51.4969 11.2364C51.6826 9.309 52.2434 7.56255 53.3302 5.84047L71.0653 23.6058ZM61.7872 25.278C59.3041 25.0138 56.4819 24.4028 53.1162 23.6545C52.369 20.2379 51.7689 17.3999 51.5331 14.9139L61.7872 25.278ZM51.0089 25.7663C51.5975 28.6277 51.8965 31.3546 51.9149 33.8827L42.9774 24.9299C45.4891 24.9251 48.1897 25.1987 51.0089 25.7663ZM49.2105 45.516L31.4652 27.7404C33.6653 26.3386 36.5073 25.4456 39.79 25.0966L51.3795 36.7059C51.5098 36.8364 51.6404 36.9337 51.7873 36.9984C51.4773 40.3606 50.6053 43.2601 49.2105 45.516ZM26.4435 41.0579L36.034 50.6649C33.621 50.4543 30.9104 49.9786 27.8748 49.3284C27.174 46.2516 26.6704 43.5038 26.4435 41.0579ZM25.644 51.5712C26.2503 54.5412 26.5816 57.1961 26.6336 59.5962L17.546 50.4931C19.961 50.5741 22.6388 50.939 25.644 51.5712ZM6.98957 52.7105C9.08012 51.5506 11.388 50.8544 14.0349 50.5938L26.4953 63.0755C26.206 65.7139 25.4877 68.0128 24.3305 70.081L6.98957 52.7105ZM39.7365 50.7558L26.3324 37.3288C26.4858 34.0017 27.4221 31.3738 29.4514 29.341L47.6357 47.5563C47.5935 47.6001 47.5529 47.646 47.5101 47.6888C45.5217 49.6804 42.9629 50.5906 39.7365 50.7558Z" fill="#462E8D"/>
</svg>
