<svg width="56" height="69" viewBox="0 0 56 69" fill="none" xmlns="http://www.w3.org/2000/svg">
<path d="M38.5844 15.938V9.2649C40.5542 8.75309 42.0197 6.95464 42.0197 4.83038C42.0197 2.31119 39.9585 0.25 37.4393 0.25H19.1176C16.5984 0.25 14.5372 2.31119 14.5372 4.83038C14.5372 6.95464 16.0027 8.75309 17.9725 9.2649V15.938C7.66654 20.1749 0.795898 30.2519 0.795898 41.4738C0.795898 44.1923 1.1978 46.821 1.9419 49.3057C1.96297 49.3769 1.98404 49.4482 2.00577 49.5192C2.03141 49.6024 2.05771 49.6852 2.08414 49.768C2.13594 49.9317 2.18908 50.0949 2.24383 50.2574C2.24558 50.2623 2.24732 50.2674 2.24893 50.2724C3.21176 53.1193 4.63755 55.755 6.4317 58.0954C11.0848 64.188 18.2169 68.2983 26.287 68.8833C26.3123 68.8851 26.3376 68.8863 26.3629 68.8881C26.553 68.9014 26.7433 68.9136 26.9344 68.923C27.0231 68.9274 27.1121 68.9297 27.201 68.9332C27.3336 68.9384 27.4659 68.9444 27.5988 68.9478C27.8249 68.9533 28.0514 68.9564 28.2785 68.9564C28.7508 68.9564 29.2205 68.9443 29.6872 68.9204C44.1547 68.1808 55.761 56.1169 55.761 41.4738C55.761 30.2517 48.8904 20.0604 38.5844 15.938ZM16.8274 4.83038C16.8274 3.57072 17.858 2.54012 19.1177 2.54012H37.4393C38.699 2.54012 39.7296 3.57072 39.7296 4.83038C39.7296 6.09004 38.699 7.12064 37.4393 7.12064H19.1176C17.858 7.12064 16.8274 6.09004 16.8274 4.83038ZM19.4611 17.7701C19.9191 17.6557 20.2626 17.1975 20.2626 16.7395V9.4109H36.2942V16.8541C36.2942 17.3121 36.6377 17.7703 37.0957 17.8847C45.2845 20.9675 51.2844 28.1032 52.9826 36.5636C49.011 34.8509 44.7453 33.7799 39.9584 38.2676C37.0957 41.1303 35.378 40.7868 29.7669 38.0385C23.5833 34.2597 17.0562 31.8549 11.1017 39.5271C8.89762 42.4325 5.46659 42.7083 3.10883 42.5017C3.09501 42.1606 3.08602 41.8182 3.08602 41.4737C3.08616 30.9388 9.72773 21.549 19.4611 17.7701ZM28.2785 66.6661C28.0729 66.6661 27.8678 66.6632 27.6633 66.6582C27.571 66.6559 27.4791 66.6518 27.387 66.6484C27.2785 66.6445 27.1699 66.6412 27.0616 66.6359C26.9356 66.6298 26.8099 66.6217 26.6843 66.6137C26.6145 66.6092 26.5446 66.6052 26.475 66.6002C26.3218 66.5891 26.1691 66.5764 26.0165 66.5625C25.9799 66.5592 25.9432 66.5561 25.9066 66.5527C25.7261 66.5356 25.5462 66.5166 25.3666 66.4956L25.3608 66.4949C18.2923 65.6617 12.023 61.8438 7.95505 56.3131C7.92888 56.2775 7.90285 56.2418 7.87695 56.2061C7.80274 56.104 7.72947 56.0012 7.65674 55.898C7.60239 55.8206 7.54831 55.7429 7.49477 55.6648C7.44794 55.5968 7.40124 55.5286 7.35508 55.46C7.27174 55.3359 7.18922 55.2111 7.10803 55.0855C7.09018 55.058 7.0722 55.0306 7.05449 55.0031C5.86366 53.1459 4.90983 51.1241 4.23578 48.9812C4.2288 48.9588 4.22169 48.9367 4.21471 48.9143C4.16936 48.7688 4.12628 48.6224 4.08347 48.4758C4.06415 48.4092 4.04429 48.3426 4.02564 48.2756C4.00135 48.1896 3.97853 48.1032 3.95518 48.0168C3.67338 46.9682 3.45733 45.8928 3.31495 44.7944C7.43734 45.138 10.7582 43.7638 12.9338 40.9011C17.5142 35.0611 22.3237 36.2061 28.7363 40.0996C34.2328 42.7334 37.5537 44.1075 41.6761 39.9851C45.684 36.3207 48.7758 37.1224 53.3561 39.1836C53.3705 39.2982 53.383 39.4093 53.394 39.5172C53.4449 40.1641 53.4706 40.8167 53.4706 41.4737C53.4707 55.3296 42.1342 66.6661 28.2785 66.6661Z" fill="#462E8D"/>
<path d="M15.6823 24.2973H20.2626C20.9497 24.2973 21.4077 23.8393 21.4077 23.1522C21.4077 22.4652 20.9497 22.0072 20.2626 22.0072H15.6823C14.9952 22.0072 14.5372 22.4652 14.5372 23.1522C14.5372 23.8393 14.9952 24.2973 15.6823 24.2973Z" fill="#462E8D"/>
<path d="M12.2469 28.8777H15.6822C16.3693 28.8777 16.8273 28.4197 16.8273 27.7326C16.8273 27.0455 16.3693 26.5875 15.6822 26.5875H12.2469C11.5598 26.5875 11.1019 27.0455 11.1019 27.7326C11.1019 28.4197 11.5598 28.8777 12.2469 28.8777Z" fill="#462E8D"/>
<path d="M8.81161 33.4581H14.5372C15.2243 33.4581 15.6823 33.0001 15.6823 32.3131C15.6823 31.626 15.2243 31.168 14.5372 31.168H8.81161C8.12455 31.168 7.66655 31.626 7.66655 32.3131C7.66655 33.0001 8.12455 33.4581 8.81161 33.4581Z" fill="#462E8D"/>
</svg>
