<svg width="51" height="71" viewBox="0 0 51 71" fill="none" xmlns="http://www.w3.org/2000/svg">
<path d="M26.908 17.9984C24.9848 17.9984 23.426 19.57 23.426 21.509C23.426 23.4481 24.9848 25.0197 26.908 25.0197C27.716 25.0251 28.4994 24.7427 29.121 24.2229C29.9249 23.5551 30.3914 22.5595 30.3901 21.509C30.3914 21.0784 30.3125 20.652 30.1575 20.2515C29.6325 18.9021 28.3457 18.0094 26.908 17.9984ZM27.6412 22.4196C27.4344 22.591 27.1746 22.6843 26.908 22.6788C26.2674 22.6788 25.7478 22.1549 25.7478 21.509C25.7478 20.8631 26.2674 20.3379 26.908 20.3379C27.3895 20.3503 27.8193 20.6492 27.9989 21.1004C28.0479 21.2307 28.0723 21.3692 28.0696 21.5077C28.0683 21.8615 27.9105 22.1961 27.6412 22.4196Z" fill="#462E8D"/>
<path d="M2.53372 55.4455H16.4618V60.1259H6.01575C2.93497 60.1259 1.3735 61.3066 1.3735 63.6365V69.4866C1.3735 70.1325 1.89308 70.6577 2.53372 70.6577H46.6399C47.2805 70.6577 47.8015 70.1339 47.8015 69.4866V63.6365C47.8015 61.3066 46.2386 60.1259 43.1592 60.1259H39.1263C46.7854 55.3495 51.0115 46.5346 49.9641 37.5153C48.9168 28.496 42.7879 20.9029 34.242 18.0382C32.8995 15.1748 30.0486 13.34 26.9079 13.318C24.7221 13.318 22.6288 14.208 21.1055 15.7878V13.318C21.0987 11.8356 20.1697 10.5164 18.7836 10.0227V7.25125C20.1697 6.75757 21.0987 5.43835 21.1055 3.95593V1.61643C21.1055 0.970534 20.5859 0.445312 19.9439 0.445312H6.01575C5.37511 0.445312 4.85417 0.969163 4.85417 1.61643V3.95593C4.86097 5.43835 5.78996 6.75757 7.17597 7.25125V10.0227C5.78996 10.5178 4.86097 11.8356 4.85417 13.318V32.0409C4.85417 32.056 4.86233 32.0697 4.86233 32.0848C4.86777 32.2082 4.89225 32.3289 4.93442 32.4441C4.9453 32.4701 4.95074 32.4962 4.96162 32.5209C4.9725 32.5456 4.96978 32.5497 4.97658 32.5648L7.17597 36.9983V37.8924C7.17597 41.1233 9.77389 43.7439 12.9798 43.7439C16.1844 43.7439 18.7836 41.1233 18.7836 37.8924V36.9983L20.9885 32.5648C20.9953 32.551 20.9966 32.536 21.0034 32.5209C21.0102 32.5072 21.0198 32.4688 21.0306 32.4441C21.0728 32.3289 21.0973 32.2068 21.1027 32.0834C21.1027 32.0697 21.1109 32.056 21.1109 32.0409V27.2303C23.8598 30.0936 28.264 30.5201 31.5026 28.2368C37.2425 30.4639 40.5899 36.5019 39.4636 42.5975C38.3374 48.693 33.0586 53.1115 26.9079 53.1046H25.7477V50.7638C25.7477 49.4706 24.7085 48.4229 23.4259 48.4229H2.53372C1.25108 48.4243 0.211914 49.472 0.211914 50.7638V53.1046C0.211914 54.3978 1.25108 55.4455 2.53372 55.4455ZM45.4783 63.6365V68.3169H3.69394V63.6365C3.69394 63.088 3.69394 62.4654 6.01575 62.4654H43.1578C45.4783 62.4667 45.4783 63.088 45.4783 63.6365ZM9.49778 7.46655H16.4618V9.80742H9.49778V7.46655ZM18.7836 2.78618V3.9573C18.7836 4.6032 18.2641 5.12705 17.6221 5.12705H8.3362C7.69556 5.12705 7.17461 4.6032 7.17461 3.9573V2.78618H18.7836ZM16.9053 35.5515H9.05437L7.89278 33.2107H18.0655L16.9053 35.5515ZM12.9798 41.403C11.0565 41.403 9.49778 39.8315 9.49778 37.8924H16.4618C16.4605 39.8315 14.9017 41.403 12.9798 41.403ZM18.7836 30.8712H7.17597V13.318C7.17597 12.6721 7.69556 12.1469 8.33756 12.1469H17.6221C18.2627 12.1469 18.7836 12.6708 18.7836 13.318V30.8712ZM21.1041 21.509C21.0987 18.6868 23.0927 16.2637 25.8456 15.7467C28.5986 15.2297 31.323 16.7683 32.3255 19.4027C32.5825 20.0746 32.7145 20.7891 32.7104 21.509C32.7131 23.2561 31.9392 24.9127 30.6021 26.0248C29.5657 26.8943 28.2559 27.3674 26.9079 27.3592C23.7034 27.3564 21.1082 24.7385 21.1041 21.509ZM41.9963 40.2319C42.0017 34.3516 38.638 28.9952 33.3633 26.4856C33.3782 26.4692 33.3878 26.4459 33.4014 26.4267C33.6204 26.1304 33.8176 25.8205 33.9944 25.4983C34.042 25.4132 34.0883 25.3268 34.1331 25.2391C34.314 24.8908 34.4691 24.5301 34.597 24.1585C34.6024 24.142 34.6065 24.1242 34.6106 24.1077C34.7275 23.7471 34.82 23.3782 34.8853 23.0052C34.9044 22.9051 34.9193 22.8077 34.9356 22.7062C34.9968 22.3099 35.0295 21.9081 35.0322 21.5063C35.0322 21.2718 35.0213 21.0387 35.0036 20.8042C42.9824 24.1845 48.0681 32.1753 47.7906 40.897C47.5131 49.6173 41.9323 57.2639 33.7564 60.1231H18.7836V55.4428H26.9079C35.2362 55.4359 41.9867 48.63 41.9963 40.2319ZM2.53372 50.7638H23.4259V53.1046H2.53372V50.7638Z" fill="#462E8D"/>
</svg>
