<svg width="70" height="65" viewBox="0 0 70 65" fill="none" xmlns="http://www.w3.org/2000/svg">
<path d="M69.3752 19.296C68.3744 8.15214 60.5683 0.0703125 50.798 0.0703125C44.8722 0.0703125 39.2517 3.05694 35.7614 8.06109C35.4897 8.45133 35.1432 8.51117 34.9552 8.51117C34.7594 8.52417 34.4194 8.45523 34.1476 8.05329C30.7076 2.98019 25.3601 0.0703125 19.4742 0.0703125C9.70398 0.0703125 1.89912 8.15214 0.897107 19.296C0.818543 19.7812 0.493985 22.3685 1.48183 26.6C2.90628 32.6981 6.19566 38.2408 10.9945 42.631L34.9307 64.5702L59.2778 42.631C60.509 41.5045 61.6385 40.2987 62.665 39.0304C62.6843 39.0109 62.6947 38.9875 62.7127 38.9667C65.6608 35.3075 67.7382 31.106 68.7917 26.6C69.7796 22.3685 69.4537 19.7812 69.3752 19.296ZM34.9474 61.0698L12.7255 40.7019C12.267 40.2831 11.8342 39.846 11.4066 39.405H15.3979C15.9041 39.405 16.3613 39.1071 16.5699 38.6428L21.7616 27.1073L28.3687 43.7913C28.5542 44.257 28.9869 44.5744 29.4828 44.6056C29.5098 44.6069 29.5381 44.6082 29.5639 44.6082C30.0288 44.6082 30.4616 44.3532 30.6895 43.9396L36.0422 34.2084L38.7597 38.8197C39.0328 39.2801 39.5608 39.5286 40.0773 39.4375C40.6002 39.3504 41.0162 38.9471 41.1257 38.4216L44.8375 20.5799L47.6091 38.3072C47.707 38.9393 48.2466 39.405 48.8803 39.405H58.8656C58.4393 39.8447 58.0079 40.2792 57.5519 40.6967L34.9474 61.0698ZM66.2828 26.0029C65.3697 29.9144 63.5962 33.5723 61.1105 36.8034H49.9853L46.2928 13.1862C46.1962 12.5657 45.6759 12.104 45.0539 12.0884C44.3906 12.0428 43.8896 12.5072 43.7608 13.1212L39.2865 34.6233L37.1125 30.9343C36.8755 30.5349 36.493 30.3164 35.9868 30.2995C35.5257 30.306 35.1033 30.5622 34.8805 30.9681L29.7558 40.2844L23.0341 23.3129C22.8422 22.829 22.3837 22.5077 21.8685 22.496C21.3726 22.4583 20.8781 22.7835 20.6656 23.2583L14.5698 36.8034H9.16563C6.67863 33.571 4.90515 29.9131 3.99201 26.0003C3.05311 21.99 3.4382 19.7214 3.44077 19.7071L3.46009 19.5757C4.32172 9.77944 11.0576 2.6706 19.4755 2.6706C24.4972 2.6706 29.0706 5.16813 32.0226 9.52188C32.7013 10.5248 33.7626 11.1037 34.932 11.1115C36.0847 11.0906 37.1717 10.5534 37.8672 9.55961C40.8758 5.24747 45.7107 2.6719 50.798 2.6719C59.2159 2.6719 65.9531 9.78204 66.8302 19.7019C66.8366 19.724 67.2217 21.9913 66.2828 26.0029Z" fill="#462E8D"/>
</svg>
