<svg width="34" height="71" viewBox="0 0 34 71" fill="none" xmlns="http://www.w3.org/2000/svg">
<path d="M33.2173 5.52152C33.2173 2.95091 31.114 0.847656 28.5433 0.847656H5.17386C2.60326 0.847656 0.5 2.95091 0.5 5.52152C0.5 7.68899 1.99542 9.52428 4.00543 10.0465V58.1029C4.00529 65.2307 9.73091 70.9562 16.8586 70.9562C17.0814 70.9562 17.3026 70.9506 17.5225 70.9395C24.3387 70.5969 29.7154 65.008 29.8287 58.1029V48.054C29.8287 47.9069 29.7855 47.7603 29.7119 47.6218V10.0465C31.7219 9.52428 33.2173 7.68913 33.2173 5.52152ZM2.83686 5.52152C2.83686 4.23615 3.88849 3.18452 5.17386 3.18452H28.5434C29.8288 3.18452 30.8804 4.23615 30.8804 5.52152C30.8804 6.80688 29.8288 7.85851 28.5434 7.85851H5.17386C3.88849 7.85851 2.83686 6.80688 2.83686 5.52152ZM27.3749 47.2809C22.9547 48.7721 17.7206 45.6444 14.171 42.0949C11.9814 40.1138 9.23317 38.8795 6.34229 38.4702V10.1955H27.3749V47.2809ZM16.8586 68.6192C11.0161 68.6192 6.34229 63.9454 6.34229 58.1029V40.8095C8.67929 41.2769 10.7825 42.2117 12.5353 43.7307C16.3912 47.5867 22.1167 50.8583 27.3749 49.5731V58.1029C27.3749 63.9454 22.701 68.6192 16.8586 68.6192Z" fill="#462E8D"/>
<path d="M9.84776 17.2063H16.8586C17.5597 17.2063 18.027 16.739 18.027 16.0379C18.027 15.3368 17.5597 14.8693 16.8586 14.8693H9.84776C9.14668 14.8693 8.67933 15.3367 8.67933 16.0378C8.67933 16.7388 9.14668 17.2063 9.84776 17.2063Z" fill="#462E8D"/>
<path d="M9.84776 21.8802H13.3532C14.0543 21.8802 14.5216 21.4129 14.5216 20.7118C14.5216 20.0107 14.0543 19.5434 13.3532 19.5434H9.84776C9.14668 19.5434 8.67933 20.0107 8.67933 20.7118C8.67933 21.4129 9.14668 21.8802 9.84776 21.8802Z" fill="#462E8D"/>
<path d="M9.84776 26.5541H16.8586C17.5597 26.5541 18.027 26.0868 18.027 25.3857C18.027 24.6846 17.5597 24.2172 16.8586 24.2172H9.84776C9.14668 24.2172 8.67933 24.6846 8.67933 25.3857C8.67933 26.0868 9.14668 26.5541 9.84776 26.5541Z" fill="#462E8D"/>
<path d="M9.84776 31.2281H13.3532C14.0543 31.2281 14.5216 30.7608 14.5216 30.0597C14.5216 29.3586 14.0543 28.8912 13.3532 28.8912H9.84776C9.14668 28.8912 8.67933 29.3586 8.67933 30.0597C8.67933 30.7606 9.14668 31.2281 9.84776 31.2281Z" fill="#462E8D"/>
<path d="M9.84776 35.902H16.8586C17.5597 35.902 18.027 35.4347 18.027 34.7336C18.027 34.0325 17.5597 33.5651 16.8586 33.5651H9.84776C9.14668 33.5651 8.67933 34.0325 8.67933 34.7336C8.67933 35.4347 9.14668 35.902 9.84776 35.902Z" fill="#462E8D"/>
</svg>
