<svg width="33" height="59" viewBox="0 0 33 59" fill="none" xmlns="http://www.w3.org/2000/svg">
<path d="M31.4175 28.64C30.8599 28.64 30.4073 29.0849 30.4073 29.6353V35.6071C30.4073 43.2908 24.0631 49.5413 16.2641 49.5413C8.46507 49.5413 2.12081 43.2908 2.12081 35.6071V29.6353C2.12081 29.0849 1.66822 28.64 1.11057 28.64C0.552926 28.64 0.100342 29.0849 0.100342 29.6353V35.6071C0.100342 44.0522 6.81233 50.9636 15.2538 51.4812V56.5085H10.2027C9.64502 56.5085 9.19243 56.9534 9.19243 57.5038C9.19243 58.0542 9.64502 58.4991 10.2027 58.4991H22.3255C22.8831 58.4991 23.3357 58.0542 23.3357 57.5038C23.3357 56.9534 22.8831 56.5085 22.3255 56.5085H17.2743V51.4812C25.7158 50.9636 32.4278 44.0512 32.4278 35.6071V29.6353C32.4278 29.0849 31.9752 28.64 31.4175 28.64Z" fill="white"/>
<path d="M16.2641 46.5554C22.3911 46.5554 27.3766 41.6436 27.3766 35.6071V11.7198C27.3766 5.6833 22.3911 0.771484 16.2641 0.771484C10.137 0.771484 5.1515 5.6833 5.1515 11.7198V35.6071C5.1515 41.6436 10.137 46.5554 16.2641 46.5554ZM7.17197 11.7198C7.17197 6.78013 11.2513 2.76209 16.2641 2.76209C21.2768 2.76209 25.3562 6.78013 25.3562 11.7198V35.6071C25.3562 40.5468 21.2768 44.5648 16.2641 44.5648C11.2513 44.5648 7.17197 40.5468 7.17197 35.6071V11.7198Z" fill="white"/>
</svg>
