<svg width="61" height="17" viewBox="0 0 61 17" fill="none" xmlns="http://www.w3.org/2000/svg">
<path d="M8.2505 0.181641C3.8368 0.181641 0.245605 3.80737 0.245605 8.2635C0.245605 12.7196 3.8368 16.3454 8.2505 16.3454C12.6642 16.3454 16.2554 12.7196 16.2554 8.2635C16.2554 3.80737 12.6642 0.181641 8.2505 0.181641ZM8.2505 14.3249C4.93947 14.3249 2.24683 11.6064 2.24683 8.2635C2.24683 4.92064 4.93947 2.20211 8.2505 2.20211C11.5615 2.20211 14.2542 4.92064 14.2542 8.2635C14.2542 11.6064 11.5615 14.3249 8.2505 14.3249Z" fill="white"/>
<path d="M52.2774 0.181641C47.8637 0.181641 44.2725 3.80737 44.2725 8.2635C44.2725 12.7196 47.8637 16.3454 52.2774 16.3454C56.6911 16.3454 60.2823 12.7196 60.2823 8.2635C60.2823 3.80737 56.6911 0.181641 52.2774 0.181641ZM52.2774 14.3249C48.9664 14.3249 46.2737 11.6064 46.2737 8.2635C46.2737 4.92064 48.9664 2.20211 52.2774 2.20211C55.5884 2.20211 58.2811 4.92064 58.2811 8.2635C58.2811 11.6064 55.5884 14.3249 52.2774 14.3249Z" fill="white"/>
<path d="M30.2639 0.181641C25.8502 0.181641 22.2591 3.80737 22.2591 8.2635C22.2591 12.7196 25.8502 16.3454 30.2639 16.3454C34.6776 16.3454 38.2688 12.7196 38.2688 8.2635C38.2688 3.80737 34.6776 0.181641 30.2639 0.181641ZM30.2639 14.3249C26.9529 14.3249 24.2603 11.6064 24.2603 8.2635C24.2603 4.92064 26.9529 2.20211 30.2639 2.20211C33.575 2.20211 36.2676 4.92064 36.2676 8.2635C36.2676 11.6064 33.575 14.3249 30.2639 14.3249Z" fill="white"/>
</svg>
