<svg width="70" height="70" viewBox="0 0 70 70" fill="none" xmlns="http://www.w3.org/2000/svg">
<path d="M65.6425 27.2865H59.2304C58.1998 27.2865 57.3506 26.7192 56.9559 25.7673C56.5612 24.8153 56.7617 23.8127 57.489 23.0841L62.0227 18.5517C62.689 17.8854 63.0558 16.9982 63.0558 16.0564C63.0558 15.1134 62.689 14.2275 62.0227 13.5599L56.2439 7.78108C54.9112 6.4484 52.5872 6.44586 51.252 7.78108L46.7196 12.3135C45.9911 13.0408 44.9859 13.2438 44.0365 12.8478C43.0846 12.4531 42.5172 11.604 42.5172 10.5734V4.16126C42.5172 2.21554 40.9345 0.632812 38.9888 0.632812H30.815C28.8693 0.632812 27.2865 2.21554 27.2865 4.16126V10.5734C27.2865 11.604 26.7192 12.4531 25.7673 12.8478C24.8179 13.2451 23.8127 13.0408 23.0841 12.3135L18.5517 7.78108C17.2165 6.44586 14.8926 6.4484 13.5599 7.78108L7.78109 13.5599C7.11474 14.2262 6.74794 15.1134 6.74794 16.0564C6.74794 16.9982 7.11474 17.8841 7.78109 18.5517L12.3148 23.0841C13.042 23.8127 13.2413 24.8153 12.8478 25.7673C12.4544 26.7192 11.604 27.2865 10.5734 27.2865H4.16126C2.21554 27.2865 0.632812 28.8692 0.632812 30.815V38.9875C0.632812 40.9345 2.21554 42.5172 4.16126 42.5172H10.5734C11.604 42.5172 12.4531 43.0846 12.8478 44.0365C13.2426 44.9884 13.042 45.9911 12.3148 46.7196L7.78109 51.252C7.11474 51.9184 6.74794 52.8055 6.74794 53.7473C6.74794 54.6903 7.11474 55.5763 7.78109 56.2439L13.5599 62.0227C14.8938 63.3566 17.2165 63.3592 18.5517 62.0227L23.0841 57.489C23.8127 56.7617 24.8141 56.5612 25.7673 56.9559C26.7192 57.3506 27.2865 58.1998 27.2865 59.2304V65.6425C27.2865 67.5882 28.8693 69.1709 30.815 69.1709H38.9875C40.9332 69.1709 42.516 67.5882 42.516 65.6425V59.2304C42.516 58.1998 43.0833 57.3506 44.0352 56.9559C44.9884 56.5599 45.9898 56.7617 46.7184 57.489L51.2508 62.0227C52.586 63.3579 54.9099 63.3553 56.2426 62.0227L62.0214 56.2439C62.6877 55.5775 63.0545 54.6903 63.0545 53.7473C63.0545 52.8055 62.6877 51.9196 62.0214 51.252L57.4877 46.7196C56.7605 45.9911 56.5612 44.9884 56.9547 44.0365C57.3481 43.0846 58.1998 42.5172 59.2304 42.5172H65.6425C67.5882 42.5172 69.1709 40.9345 69.1709 38.9888V30.815C69.1709 28.8692 67.5882 27.2865 65.6425 27.2865ZM66.6325 38.9888C66.6325 39.5345 66.1883 39.9788 65.6425 39.9788H59.2304C57.1691 39.9788 55.3986 41.1617 54.6104 43.0655C53.8209 44.9694 54.236 47.0585 55.6943 48.5156L60.228 53.048C60.6151 53.4351 60.6151 54.0634 60.228 54.4492L54.4492 60.228C54.0634 60.6138 53.4351 60.6164 53.048 60.228L48.5156 55.6943C47.0572 54.236 44.9694 53.8235 43.0655 54.6104C41.1617 55.3986 39.9788 57.1691 39.9788 59.2304V65.6425C39.9788 66.1883 39.5345 66.6325 38.9888 66.6325H30.815C30.2692 66.6325 29.825 66.1883 29.825 65.6425V59.2304C29.825 57.1691 28.6421 55.3986 26.7382 54.6104C26.0998 54.3451 25.4423 54.2157 24.7925 54.2157C23.5055 54.2157 22.2579 54.7234 21.2882 55.693L16.7558 60.2267C16.3674 60.6151 15.7391 60.6126 15.3545 60.2267L9.57577 54.4479C9.18865 54.0608 9.18865 53.4326 9.57577 53.0467L14.1094 48.5143C15.5665 47.0572 15.9828 44.9681 15.1934 43.0643C14.4052 41.1617 12.6346 39.9788 10.5734 39.9788H4.16126C3.61549 39.9788 3.17126 39.5345 3.17126 38.9888V30.815C3.17126 30.2692 3.61549 29.825 4.16126 29.825H10.5734C12.6346 29.825 14.4052 28.6421 15.1934 26.7382C15.9828 24.8344 15.5678 22.7452 14.1094 21.2882L9.57577 16.7558C9.18865 16.3687 9.18865 15.7404 9.57577 15.3545L15.3545 9.57577C15.7404 9.18865 16.3687 9.18865 16.7558 9.57577L21.2882 14.1082C22.744 15.564 24.8318 15.9815 26.7382 15.1921C28.6421 14.4052 29.825 12.6346 29.825 10.5734V4.16126C29.825 3.61549 30.2692 3.17126 30.815 3.17126H38.9875C39.5345 3.17126 39.9788 3.61549 39.9788 4.16126V10.5734C39.9788 12.6346 41.1617 14.4052 43.0655 15.1934C44.9719 15.9828 47.0585 15.5665 48.5156 14.1094L53.048 9.57704C53.4364 9.18992 54.0646 9.18992 54.4492 9.57704L60.228 15.3558C60.6151 15.7429 60.6151 16.3712 60.228 16.757L55.6943 21.2894C54.2372 22.7465 53.8209 24.8357 54.6104 26.7395C55.3986 28.6433 57.1691 29.8262 59.2304 29.8262H65.6425C66.1883 29.825 66.6325 30.2692 66.6325 30.815V38.9888Z" fill="#462E8D"/>
<path d="M34.9019 23.4789C28.6027 23.4789 23.4789 28.6027 23.4789 34.9019C23.4789 41.201 28.6027 46.3249 34.9019 46.3249C41.201 46.3249 46.3249 41.201 46.3249 34.9019C46.3249 28.6027 41.201 23.4789 34.9019 23.4789ZM34.9019 43.7864C30.0039 43.7864 26.0173 39.7998 26.0173 34.9019C26.0173 30.0039 30.0039 26.0173 34.9019 26.0173C39.7998 26.0173 43.7864 30.0039 43.7864 34.9019C43.7864 39.7998 39.7998 43.7864 34.9019 43.7864Z" fill="#462E8D"/>
</svg>
