<svg width="48" height="70" viewBox="0 0 48 70" fill="none" xmlns="http://www.w3.org/2000/svg">
<path d="M24.0935 15.7465C19.2964 15.7465 15.3919 19.6876 15.3919 24.5297C15.3919 29.3718 19.2964 33.313 24.0935 33.313C28.8906 33.313 32.7952 29.3718 32.7952 24.5297C32.7952 19.6876 28.8906 15.7465 24.0935 15.7465ZM24.0935 30.8035C20.6663 30.8035 17.8781 27.9891 17.8781 24.5297C17.8781 21.0704 20.6663 18.256 24.0935 18.256C27.5207 18.256 30.309 21.0704 30.309 24.5297C30.309 27.9891 27.5207 30.8035 24.0935 30.8035Z" fill="#462E8D"/>
<path d="M40.7298 7.73739C36.2273 3.19268 30.2406 0.689453 23.8735 0.689453C17.5051 0.689453 11.5197 3.19268 7.01718 7.73739C-1.31526 16.1467 -2.35076 31.9691 4.77464 41.5554L23.8735 69.3958L42.9438 41.5943C50.0978 31.9691 49.0623 16.1467 40.7298 7.73739ZM40.9275 40.1275L23.8735 64.9866L6.79218 40.0886C0.32935 31.3907 1.25545 17.1016 8.77616 9.51161C12.8087 5.44119 18.1702 3.19895 23.8735 3.19895C29.5768 3.19895 34.9383 5.44119 38.9721 9.51161C46.4928 17.1016 47.4189 31.3907 40.9275 40.1275Z" fill="#462E8D"/>
</svg>
