<svg width="54" height="52" viewBox="0 0 54 52" fill="none" xmlns="http://www.w3.org/2000/svg">
<path d="M7.98744 38.5684V1.80403C7.98744 1.28379 7.56257 0.863281 7.03906 0.863281C6.51555 0.863281 6.09068 1.28379 6.09068 1.80403V38.5684C2.87851 39.0274 0.400391 41.7678 0.400391 45.0783C0.400391 48.7087 3.37831 51.6635 7.03906 51.6635C10.6998 51.6635 13.6777 48.7087 13.6777 45.0783C13.6777 41.7678 11.1996 39.0274 7.98744 38.5684ZM7.03906 49.7821C4.42437 49.7821 2.29715 47.672 2.29715 45.0783C2.29715 42.4847 4.42437 40.3746 7.03906 40.3746C9.65375 40.3746 11.781 42.4847 11.781 45.0783C11.781 47.672 9.65375 49.7821 7.03906 49.7821Z" fill="white"/>
<path d="M27.9034 19.3913V1.80403C27.9034 1.28379 27.4786 0.863281 26.9551 0.863281C26.4316 0.863281 26.0067 1.28379 26.0067 1.80403V19.332C22.5906 19.7045 19.9238 22.5832 19.9238 26.0687C19.9238 29.5541 22.5906 32.4328 26.0067 32.8054V50.7228C26.0067 51.243 26.4316 51.6635 26.9551 51.6635C27.4786 51.6635 27.9034 51.243 27.9034 50.7228V32.7461C31.1279 32.2033 33.5937 29.4196 33.5937 26.0687C33.5937 22.7177 31.1279 19.9341 27.9034 19.3913ZM26.7588 30.9671C24.0359 30.9671 21.8205 28.7696 21.8205 26.0687C21.8205 23.3678 24.035 21.1702 26.7588 21.1702C29.4825 21.1702 31.697 23.3678 31.697 26.0687C31.697 28.7696 29.4816 30.9671 26.7588 30.9671Z" fill="white"/>
<path d="M53.5098 7.4485C53.5098 3.81816 50.5318 0.863281 46.8711 0.863281C43.2103 0.863281 40.2324 3.81816 40.2324 7.4485C40.2324 10.759 42.7105 13.4994 45.9227 13.9585V50.7228C45.9227 51.243 46.3476 51.6635 46.8711 51.6635C47.3946 51.6635 47.8195 51.243 47.8195 50.7228V13.9585C51.0316 13.4994 53.5098 10.759 53.5098 7.4485ZM46.8711 12.1522C44.2564 12.1522 42.1292 10.0421 42.1292 7.4485C42.1292 4.85486 44.2564 2.74477 46.8711 2.74477C49.4858 2.74477 51.613 4.85486 51.613 7.4485C51.613 10.0421 49.4858 12.1522 46.8711 12.1522Z" fill="white"/>
</svg>
