<svg width="58" height="59" viewBox="0 0 58 59" fill="none" xmlns="http://www.w3.org/2000/svg">
<path d="M53.5029 52.4775L39.6488 38.0067C43.1823 34.4476 45.3732 29.5397 45.3732 24.126C45.3732 13.28 36.5909 4.45703 25.7948 4.45703C14.9986 4.45703 6.21631 13.28 6.21631 24.126C6.21631 34.9721 14.9986 43.795 25.7948 43.795C30.5309 43.795 34.8848 42.0904 38.269 39.2712L52.1604 53.7794C52.3469 53.9761 52.5893 54.0697 52.8317 54.0697C53.0648 54.0697 53.2978 53.9855 53.475 53.8075C53.8479 53.4422 53.8572 52.8521 53.5029 52.4775ZM25.7948 41.9218C16.0242 41.9218 8.08092 33.9418 8.08092 24.126C8.08092 14.3103 16.0242 6.33027 25.7948 6.33027C35.5653 6.33027 43.5086 14.3103 43.5086 24.126C43.5086 33.9418 35.5653 41.9218 25.7948 41.9218Z" fill="white"/>
</svg>
