<svg width="59" height="52" viewBox="0 0 59 52" fill="none" xmlns="http://www.w3.org/2000/svg">
<path d="M57.8554 0.821567C57.5963 0.568359 57.2135 0.490004 56.8766 0.621541L0.84224 22.4497C0.509196 22.5794 0.280722 22.89 0.255286 23.2473C0.22985 23.6046 0.411973 23.9446 0.723086 24.1205L12.3354 30.6831L16.3658 50.443C16.3909 50.5827 16.4475 50.7128 16.5288 50.8245C16.5369 50.8357 16.5436 50.8443 16.5504 50.8529C16.6924 51.0311 16.8937 51.1555 17.1284 51.1931C17.1584 51.1979 17.1884 51.2013 17.2183 51.2031C17.2376 51.2043 17.2568 51.2049 17.2761 51.2049C17.4523 51.2049 17.6193 51.1544 17.7616 51.0657C17.8098 51.0357 17.8556 51.0011 17.8981 50.9619C17.9113 50.9497 17.9228 50.9387 17.934 50.9272L26.6754 42.1369C27.0355 41.7746 27.0349 41.1879 26.6737 40.8267C26.3121 40.4652 25.7277 40.4661 25.3674 40.8284L18.5008 47.7334L19.9845 34.9886L40.9547 46.5337C41.1658 46.6493 41.4005 46.6741 41.6156 46.6221C41.6392 46.6163 41.6608 46.6102 41.6821 46.6033C41.8945 46.5342 42.0808 46.3904 42.1992 46.1841C42.2052 46.1734 42.2105 46.1638 42.2157 46.1541C42.2397 46.1083 42.2589 46.0634 42.2742 46.0178L58.0802 1.79777C58.2022 1.45623 58.1145 1.07455 57.8554 0.821567ZM3.33148 23.4678L49.1316 5.62629L13.1228 29.0013L3.33148 23.4678ZM18.6484 32.7915C18.562 32.861 18.4868 32.9473 18.428 33.0485C18.4203 33.0618 18.4131 33.0752 18.4061 33.0887C18.35 33.1974 18.3175 33.3123 18.3067 33.4273L17.0255 44.4329L14.1872 30.5175L45.2878 10.3286L18.6484 32.7915ZM40.8951 44.387L20.8532 33.353L55.187 4.40197L40.8951 44.387Z" fill="white"/>
</svg>
