<svg width="52" height="57" viewBox="0 0 52 57" fill="none" xmlns="http://www.w3.org/2000/svg">
<path d="M35.5876 40.3129C35.1037 40.8051 34.6871 41.3462 34.3269 41.9183L18.3667 32.0651C18.7888 30.9905 19.028 29.8219 19.028 28.596C19.028 27.3701 18.7888 26.2016 18.3676 25.1269L34.3315 15.349C35.9709 17.9679 38.8453 19.7133 42.1186 19.7133C47.2115 19.7133 51.3548 15.4993 51.3548 10.3195C51.3548 5.13982 47.2115 0.925781 42.1186 0.925781C37.0257 0.925781 32.8823 5.13982 32.8823 10.3195C32.8823 11.4994 33.1068 12.6248 33.4984 13.6656L17.5132 23.4567C15.8618 20.8979 13.0189 19.2023 9.79081 19.2023C4.69794 19.2023 0.554565 23.4163 0.554565 28.596C0.554565 33.7758 4.69794 37.9898 9.79081 37.9898C13.0189 37.9898 15.8609 36.2942 17.5123 33.7354L33.4947 43.6016C33.0975 44.6594 32.8814 45.7894 32.8814 46.9552C32.8814 49.4643 33.842 51.824 35.5867 53.5975C37.3869 55.4284 39.7523 56.3443 42.1177 56.3443C44.4831 56.3443 46.8485 55.4284 48.6486 53.5975C50.3933 51.823 51.3539 49.4643 51.3539 46.9552C51.3539 44.4461 50.3933 42.0864 48.6486 40.3129C45.0474 36.6493 39.1888 36.6493 35.5876 40.3129ZM42.1186 2.80453C46.1927 2.80453 49.5076 6.17595 49.5076 10.3195C49.5076 14.4631 46.1927 17.8345 42.1186 17.8345C38.0445 17.8345 34.7296 14.4631 34.7296 10.3195C34.7296 6.17595 38.0436 2.80453 42.1186 2.80453ZM9.79173 36.111C5.71763 36.111 2.40274 32.7396 2.40274 28.596C2.40274 24.4524 5.71763 21.081 9.79173 21.081C13.8658 21.081 17.1807 24.4524 17.1807 28.596C17.1807 32.7396 13.8658 36.111 9.79173 36.111ZM47.3426 52.2692C44.4618 55.1992 39.7744 55.1992 36.8936 52.2692C35.498 50.8498 34.7296 48.9617 34.7296 46.9552C34.7296 44.9487 35.498 43.0605 36.8936 41.6411C38.3345 40.1757 40.2261 39.4439 42.1186 39.4439C44.0111 39.4439 45.9027 40.1757 47.3435 41.6411C48.7391 43.0605 49.5076 44.9487 49.5076 46.9552C49.5076 48.9617 48.7391 50.8498 47.3426 52.2692Z" fill="white"/>
</svg>
