<svg width="69" height="68" viewBox="0 0 69 68" fill="none" xmlns="http://www.w3.org/2000/svg">
<path d="M67.8842 39.5925L64.3875 36.0581C62.9593 34.6146 60.6368 34.6171 59.2086 36.0581L40.3263 55.1453L37.724 64.7924L37.0872 65.436C36.6111 65.9172 36.6099 66.6936 37.0798 67.1785L37.0737 67.2033L37.097 67.197C37.335 67.4327 37.6442 67.5542 37.9546 67.5542C38.2687 67.5542 38.5828 67.4327 38.8221 67.1909L39.4601 66.546L49.0031 63.9156L67.8854 44.8285C69.3136 43.3849 69.3136 41.0361 67.8842 39.5925ZM43.1592 55.7901L55.7266 43.0885L60.9325 48.3492L48.3651 61.0521L43.1592 55.7901ZM42.0513 58.1774L46.002 62.1707L40.5692 63.6688L42.0513 58.1774ZM66.1493 43.0749L62.6661 46.5957L57.4603 41.335L60.9435 37.8142C61.4159 37.3367 62.1827 37.3379 62.6538 37.8129L66.1506 41.3473C66.6217 41.8223 66.6217 42.5987 66.1493 43.0749Z" fill="#462E8D"/>
<path d="M33.377 15.133C32.6997 15.133 32.15 15.6874 32.15 16.3732C32.15 17.059 32.6997 17.6133 33.377 17.6133H55.4616C56.1389 17.6133 56.6885 17.059 56.6885 16.3732C56.6885 15.6874 56.1389 15.133 55.4616 15.133H33.377Z" fill="#462E8D"/>
<path d="M56.6885 33.7353C56.6885 33.0495 56.1389 32.4952 55.4616 32.4952H33.377C32.6997 32.4952 32.15 33.0495 32.15 33.7353C32.15 34.4211 32.6997 34.9755 33.377 34.9755H55.4616C56.1389 34.9755 56.6885 34.4199 56.6885 33.7353Z" fill="#462E8D"/>
<path d="M25.5001 9.23117C24.9872 8.78472 24.2118 8.843 23.7701 9.36511L16.1043 18.4033L11.415 14.8491C10.8727 14.4398 10.1047 14.5489 9.69732 15.0971C9.28998 15.644 9.4004 16.4216 9.9427 16.8321L15.551 21.0845C15.7718 21.2519 16.0295 21.3326 16.2871 21.3326C16.6343 21.3326 16.9779 21.185 17.2196 20.8985L25.6326 10.9773C26.0731 10.4589 26.0142 9.67638 25.5001 9.23117Z" fill="#462E8D"/>
<path d="M25.5001 26.5933C24.9872 26.1468 24.2118 26.2051 23.7701 26.7272L16.1043 35.7654L11.415 32.2112C10.8727 31.8007 10.1047 31.9123 9.69732 32.4592C9.28998 33.0061 9.4004 33.7837 9.9427 34.1942L15.551 38.4466C15.7718 38.6141 16.0295 38.6947 16.2871 38.6947C16.6343 38.6947 16.9779 38.5471 17.2196 38.2606L25.6326 28.3394C26.0731 27.821 26.0142 27.0385 25.5001 26.5933Z" fill="#462E8D"/>
<path d="M23.7689 45.3295L16.1031 54.3665L11.415 50.8122C10.8727 50.4017 10.1047 50.5133 9.69732 51.0602C9.28998 51.6071 9.4004 52.3847 9.9427 52.7952L15.551 57.0477C15.7718 57.2151 16.0295 57.2957 16.2871 57.2957C16.6343 57.2957 16.9779 57.1481 17.2196 56.8616L25.6326 46.9417C26.0731 46.4221 26.0142 45.6395 25.5001 45.1943C24.986 44.7491 24.2106 44.8086 23.7689 45.3295Z" fill="#462E8D"/>
<path d="M30.9231 64.7391H15.189C8.30476 64.7391 2.70385 59.0778 2.70385 52.1193V15.3501C2.70385 8.39159 8.30476 2.73154 15.189 2.73154H51.5649C58.4492 2.73154 64.0501 8.39159 64.0501 15.3501V30.0136C64.0501 30.6994 64.5997 31.2538 65.277 31.2538C65.9543 31.2538 66.5039 30.6994 66.5039 30.0136V15.3501C66.5039 7.0237 59.8025 0.25 51.5649 0.25H15.189C6.95146 0.25124 0.25 7.0237 0.25 15.3501V52.1181C0.25 60.4444 6.95146 67.2181 15.189 67.2181H30.9231C31.6004 67.2181 32.15 66.6638 32.15 65.978C32.15 65.2922 31.6004 64.7391 30.9231 64.7391Z" fill="#462E8D"/>
</svg>
