<svg width="69" height="68" viewBox="0 0 69 68" fill="none" xmlns="http://www.w3.org/2000/svg">
<path d="M67.8842 39.5925L64.3875 36.0581C62.9593 34.6146 60.6368 34.6171 59.2086 36.0581L40.3263 55.1453L37.724 64.7924L37.0872 65.436C36.6111 65.9172 36.6099 66.6935 37.0798 67.1784L37.0737 67.2033L37.097 67.197C37.335 67.4327 37.6442 67.5542 37.9546 67.5542C38.2687 67.5542 38.5828 67.4327 38.8221 67.1908L39.4601 66.546L49.0031 63.9156L67.8854 44.8285C69.3136 43.3849 69.3136 41.0361 67.8842 39.5925ZM43.1592 55.7901L55.7266 43.0885L60.9325 48.3492L48.3651 61.0521L43.1592 55.7901ZM42.0513 58.1774L46.002 62.1707L40.5692 63.6688L42.0513 58.1774ZM66.1493 43.0749L62.6661 46.5957L57.4603 41.335L60.9435 37.8142C61.4159 37.3367 62.1827 37.3379 62.6538 37.8129L66.1506 41.3473C66.6217 41.8223 66.6217 42.5987 66.1493 43.0749Z" fill="#462E8D"/>
<path d="M10.9152 15.133C10.2379 15.133 9.68828 15.6874 9.68828 16.3732C9.68828 17.059 10.2379 17.6133 10.9152 17.6133H55.4616C56.1389 17.6133 56.6885 17.059 56.6885 16.3732C56.6885 15.6874 56.1389 15.133 55.4616 15.133H10.9152Z" fill="#462E8D"/>
<path d="M56.6886 33.7352C56.6886 33.0494 56.1389 32.4951 55.4616 32.4951H10.9152C10.238 32.4951 9.68831 33.0494 9.68831 33.7352C9.68831 34.421 10.238 34.9754 10.9152 34.9754H55.4616C56.1389 34.9754 56.6886 34.4198 56.6886 33.7352Z" fill="#462E8D"/>
<path d="M36.8694 51.1686C36.8694 50.4828 36.3197 49.9285 35.6424 49.9285H10.9152C10.238 49.9285 9.68831 50.4828 9.68831 51.1686C9.68831 51.8544 10.238 52.4088 10.9152 52.4088H35.6424C36.3197 52.4088 36.8694 51.8532 36.8694 51.1686Z" fill="#462E8D"/>
<path d="M30.9231 64.7391H15.189C8.30476 64.7391 2.70385 59.0778 2.70385 52.1193V15.3501C2.70385 8.39159 8.30476 2.73154 15.189 2.73154H51.5649C58.4492 2.73154 64.0501 8.39159 64.0501 15.3501V30.0136C64.0501 30.6994 64.5997 31.2538 65.277 31.2538C65.9543 31.2538 66.5039 30.6994 66.5039 30.0136V15.3501C66.5039 7.0237 59.8025 0.25 51.5649 0.25H15.189C6.95146 0.25124 0.25 7.0237 0.25 15.3501V52.1181C0.25 60.4444 6.95146 67.2181 15.189 67.2181H30.9231C31.6004 67.2181 32.15 66.6638 32.15 65.978C32.15 65.2922 31.6004 64.7391 30.9231 64.7391Z" fill="#462E8D"/>
</svg>
