<svg width="57" height="70" viewBox="0 0 57 70" fill="none" xmlns="http://www.w3.org/2000/svg">
<path d="M48.547 26.5613V19.4196C48.547 9.24728 39.3972 0.970703 28.1518 0.970703C16.9064 0.970703 7.7566 9.24728 7.7566 19.4196C7.7566 20.1232 8.3264 20.692 9.03131 20.692C9.73622 20.692 10.306 20.1232 10.306 19.4196C10.306 10.6494 18.3111 3.51538 28.1518 3.51538C37.9925 3.51538 45.9976 10.6494 45.9976 19.4196V26.4175H9.32321C4.24225 26.4175 0.108398 30.5437 0.108398 35.6153V60.4793C0.108398 65.5509 4.24225 69.6771 9.32321 69.6771H46.9804C52.0614 69.6771 56.1952 65.5509 56.1952 60.4793V35.6153C56.1952 31.0781 52.8823 27.3069 48.547 26.5613ZM53.6458 60.4793C53.6458 64.1475 50.6554 67.1324 46.9804 67.1324H9.32321C5.64825 67.1324 2.6578 64.1475 2.6578 60.4793V35.6153C2.6578 31.9471 5.64825 28.9622 9.32321 28.9622H46.9804C50.6554 28.9622 53.6458 31.9471 53.6458 35.6153V60.4793Z" fill="#462E8D"/>
<path d="M28.1518 36.5962C25.3398 36.5962 23.053 38.8788 23.053 41.6856V49.3196C23.053 52.1264 25.3398 54.409 28.1518 54.409C30.9638 54.409 33.2506 52.1264 33.2506 49.3196V41.6856C33.2506 38.8788 30.9638 36.5962 28.1518 36.5962ZM30.7012 49.3196C30.7012 50.723 29.5578 51.8643 28.1518 51.8643C26.7458 51.8643 25.6024 50.723 25.6024 49.3196V41.6856C25.6024 40.2822 26.7458 39.1409 28.1518 39.1409C29.5578 39.1409 30.7012 40.2822 30.7012 41.6856V49.3196Z" fill="#462E8D"/>
</svg>
