<svg width="97" height="68" viewBox="0 0 97 68" fill="none" xmlns="http://www.w3.org/2000/svg">
<path d="M40.5211 56.524C44.1328 57.956 55.3655 60.0897 61.2395 60.553C70.8591 61.3132 87.5861 60.6714 95.6616 55.6984C95.9744 55.506 96.1572 55.1623 96.1394 54.7998C96.1217 54.4372 95.9062 54.1124 95.576 53.9505C94.6688 53.5062 92.0453 52.0882 90.7936 51.3843C83.9647 47.4673 85.3916 51.3331 77.8655 44.3645V38.5342C79.8143 36.7171 80.9406 35.1406 81.0659 32.3578C83.1815 31.3033 84.6078 29.2635 84.8524 26.9426C85.0563 25.9398 85.4691 23.2322 84.5467 21.7189C87.741 15.1194 85.7789 6.67664 78.5779 5.81322C77.5729 4.44437 74.186 0.675781 67.3774 0.675781C59.3905 0.675781 52.3842 7.1941 52.3842 14.6149C52.4102 16.8013 52.7738 18.9711 53.4626 21.05C51.7676 22.2293 52.3027 25.7693 52.5361 26.9416C52.7797 29.2618 54.2043 31.3014 56.3185 32.3568C56.4429 35.1296 57.5569 36.706 59.519 38.5352V44.3686C58.0703 45.7629 56.4981 47.0275 54.8212 48.1472C53.9763 48.6402 53.0554 48.9949 52.0947 49.1971C47.0221 50.0799 47.7445 52.9439 42.2824 53.7098C41.8462 53.9384 41.2785 54.1109 41.2448 54.7969C41.226 55.1605 40.2073 56.3311 40.5211 56.524ZM89.7744 53.1232C90.8252 53.7138 91.8914 54.2904 92.9636 54.861C88.9188 56.5331 84.6507 57.6243 80.2903 58.1011C82.0739 56.0306 83.252 53.5221 83.6986 50.8438C85.4619 51.4324 86.2743 51.1175 89.7744 53.1232ZM82.8435 26.6046C82.8352 26.6454 82.8294 26.6866 82.8262 26.728C82.6803 28.0178 82.0354 29.2028 81.0251 30.0373C80.907 28.7158 81.0068 27.3843 81.3207 26.0942C81.3434 26.0096 81.3567 25.9229 81.3605 25.8355C81.3605 24.9219 81.334 24.1808 81.3085 23.6293C81.3432 23.3525 81.5419 22.7348 82.6396 22.7348C82.6774 22.7348 82.7569 22.7438 82.816 22.7458C83.1167 23.1389 83.1911 24.8828 82.8435 26.6026V26.6046ZM67.3774 2.68142C74.2971 2.68142 77.0246 7.10986 77.1357 7.29438C77.3178 7.60464 77.6542 7.79578 78.0184 7.79579H78.2925C78.5249 7.80983 83.981 8.19691 83.981 15.5175C83.9701 17.3219 83.5567 19.1021 82.7701 20.7321C82.7042 20.7286 82.6382 20.7286 82.5724 20.7321C82.0692 20.7324 81.5711 20.8306 81.1067 21.021C80.2016 13.0987 77.2101 11.2345 76.8503 11.0389C76.373 10.7791 75.7723 10.9351 75.4876 11.3929C72.8018 15.705 66.353 16.3268 66.3785 16.3288H61.058C57.9106 16.3288 55.9618 17.845 55.8415 20.3771C55.8334 20.5266 55.8283 20.696 55.8272 20.8785C55.7267 20.8471 55.6247 20.8207 55.5215 20.7993C54.8224 18.8087 54.4514 16.7209 54.4227 14.6149C54.4227 8.3694 60.5973 2.68142 67.3774 2.68142ZM54.5634 26.731C54.5602 26.6876 54.5544 26.6444 54.546 26.6016C54.174 24.7795 54.281 22.9233 54.596 22.7167C55.1861 22.802 55.8476 22.7558 55.921 23.3766C55.9781 23.878 55.9546 24.3453 56.1921 26.6407C56.3963 27.7591 56.4531 28.8986 56.3613 30.0313C55.3535 29.1992 54.7097 28.0174 54.5634 26.731ZM58.3427 31.6448C58.4994 29.9674 58.4631 28.278 58.2347 26.6087C58.0062 24.5698 57.8868 22.5206 57.877 20.4694C57.9024 19.9399 57.9789 18.3254 61.058 18.3254H66.4672C66.7526 18.3013 73.0414 17.7086 76.5099 13.4366C78.8378 16.3448 79.3159 21.9776 79.323 25.6921C79.0871 26.7043 78.9607 27.7383 78.9459 28.7767C78.9459 31.9356 79.7541 34.1308 76.6801 36.8695C73.1392 40.0344 73.2136 42.7941 70.4249 42.7941C65.5906 42.7941 65.6345 43.2133 63.6979 40.4124C62.967 39.3159 62.1308 38.291 61.2007 37.3518C59.3233 35.5067 58.3886 34.571 58.3427 31.6428V31.6448ZM59.519 47.0832V48.811C59.519 49.3649 59.9753 49.8139 60.5382 49.8139C61.1011 49.8139 61.5575 49.3649 61.5575 48.811V40.8948C63.0598 42.9947 64.0169 44.7998 66.9595 44.7998C72.5776 44.7998 72.7234 45.242 75.827 40.8948V48.811C75.827 49.3649 76.2833 49.8139 76.8462 49.8139C77.4091 49.8139 77.8655 49.3649 77.8655 48.811V47.0832C79.0616 48.1909 80.374 49.1704 81.7804 50.0054C81.4063 52.2948 80.1282 57.2016 75.9615 58.5564C71.1266 58.933 66.269 58.933 61.4341 58.5564C57.2552 57.2056 55.9781 52.2958 55.604 50.0044C57.0102 49.1694 58.3225 48.1902 59.519 47.0832ZM47.6172 53.1171C51.0989 51.1215 51.9317 51.4294 53.6858 50.8417C54.1323 53.5201 55.3104 56.0287 57.0942 58.0991C52.7337 57.6223 45.2883 57.48 41.2435 55.808C42.3157 55.2374 46.5612 53.7108 47.6172 53.1171Z" fill="#462E8D"/>
<path d="M1.26443 62.8341C6.58516 66.16 16.1293 67.455 22.4831 67.8209C25.9822 68.0272 29.4902 68.0329 32.99 67.8379C33.0131 67.8379 33.0372 67.8309 33.0603 67.8289C39.418 67.4711 49.0576 66.174 54.4024 62.8341C54.7619 62.6093 54.9411 62.1832 54.8501 61.7696C54.2611 58.9879 51.8185 56.9864 48.9712 56.9522C46.5925 56.9757 44.2289 56.5723 41.993 55.7613C44.5284 55.0135 46.9873 54.0277 49.3366 52.8174C49.6025 52.6707 49.7876 52.4118 49.8401 52.1131C49.8926 51.8143 49.8068 51.5079 49.6067 51.2797C42.9478 43.6807 49.1138 28.7914 46.8128 19.6207C44.8823 11.9105 39.3387 7.8358 30.7804 7.8358C23.1928 7.8358 19.5747 11.2038 18.359 12.6713C14.1115 11.5135 10.0948 13.4601 8.72147 19.6468C6.6735 28.8456 12.5946 43.6797 5.93362 51.2797C5.73364 51.5081 5.64797 51.8146 5.70064 52.1133C5.7533 52.412 5.93862 52.6709 6.20467 52.8174C8.5771 54.039 11.061 55.0316 13.6226 55.7814C11.3994 56.583 9.0501 56.9796 6.68655 56.9522C3.83988 56.9863 1.39907 58.9904 0.815687 61.7726C0.726302 62.1855 0.905772 62.61 1.26443 62.8341ZM15.7749 65.1486C15.6013 61.3395 14.5803 59.1163 13.6818 57.8854C14.5384 57.6024 15.3732 57.2574 16.1795 56.8529C16.5239 58.9479 17.4284 62.8561 19.631 65.5946C18.3138 65.4723 17.0228 65.327 15.7749 65.1486ZM22.8615 65.8372C19.3559 63.6881 18.2927 57.5937 18.0508 55.7684C18.9269 55.1836 19.7415 54.5119 20.4823 53.7636C21.427 52.8043 21.3858 51.7198 21.2974 50.3505C25.9415 54.9735 29.5094 55.0617 34.2378 50.3505C34.1515 51.7208 34.1083 52.7492 35.0761 53.7325C35.8131 54.4709 36.6234 55.1325 37.4945 55.7072C37.2656 57.4674 36.2155 63.6671 32.6687 65.8392C29.402 66.0149 26.1282 66.0143 22.8615 65.8372ZM16.818 30.3531C17.7176 28.8242 18.4346 27.1953 18.9543 25.4997C19.5446 26.3802 20.3059 27.1335 21.193 27.7149C21.5009 27.9173 21.8952 27.935 22.22 27.7609C22.5448 27.5868 22.7479 27.249 22.7491 26.8809C22.7943 25.6891 23.134 24.5269 23.738 23.4979C27.4892 27.9512 32.7586 30.8606 38.5306 31.6653C38.0728 33.3531 38.0607 35.1306 38.4954 36.8245C39.0807 39.6822 38.2163 42.2874 35.5098 45.8188C33.1325 48.9261 30.9611 50.8768 29.0466 51.6205C28.2196 51.9478 27.2987 51.9478 26.4716 51.6205C24.5642 50.8788 22.3947 48.9282 20.0175 45.8208C17.3119 42.2914 16.4466 39.6853 17.0308 36.8315C17.7316 33.4966 17.1162 33.1839 16.818 30.3501V30.3531ZM39.3668 56.7988C40.1799 57.207 41.0214 57.5564 41.8846 57.8443C40.9811 59.0692 39.934 61.3065 39.7614 65.1676C38.5115 65.344 37.2164 65.4874 35.8983 65.6067C38.129 62.8411 39.0325 58.8817 39.3668 56.7988ZM52.6616 61.529C49.2244 63.1791 45.5567 64.2994 41.7832 64.8519C42.0553 60.676 43.4899 58.9519 44.038 58.4367C45.6589 58.7867 47.3129 58.9611 48.9712 58.9569C50.6204 58.9548 52.095 59.9825 52.6616 61.529ZM8.2406 51.5945C14.4066 42.9851 8.77267 28.6401 10.6781 20.0818C11.2674 17.4355 12.3526 15.6874 13.9067 14.8845C15.3106 14.2631 16.904 14.2224 18.3379 14.7712C18.7981 14.9693 19.3341 14.7982 19.5938 14.3703C19.6219 14.3202 22.4098 9.84055 30.7804 9.84055C38.4201 9.84055 43.1586 13.2947 44.8652 20.1079C46.9925 28.584 41.1558 42.9901 47.2977 51.5935C44.7062 52.7893 42.0105 53.7459 39.2443 54.4512C38.2475 53.8628 37.3285 53.1519 36.5087 52.3352C36.337 52.1706 36.2332 51.9479 36.2176 51.7107C36.1838 50.2937 36.3566 48.8792 36.7306 47.5118C39.4341 44.0817 41.3415 40.6626 40.4671 36.4195C40.0814 34.9157 40.1071 33.3362 40.5414 31.8457C40.964 31.8677 41.3847 31.8928 41.8234 31.8928C42.3778 31.8928 42.8273 31.444 42.8273 30.8904C42.8273 30.3368 42.3778 29.888 41.8234 29.888C35.0555 29.8586 28.6859 26.6893 24.5873 21.3117C24.4202 21.0625 24.15 20.901 23.8511 20.8717C23.5521 20.8424 23.2557 20.9483 23.0432 21.1604C22.0393 22.2048 21.3384 23.502 21.0154 24.9133C20.2703 24.0636 19.8218 22.9952 19.7374 21.869C19.7387 21.3421 19.3312 20.9041 18.8047 20.8667C18.2818 20.8376 17.8217 21.2083 17.7396 21.7247C17.2201 25.5993 15.5732 29.2365 13.0031 32.1855C12.623 32.5791 12.6288 33.2043 13.0164 33.5906C13.4039 33.977 14.03 33.982 14.4237 33.6018C14.4658 33.5597 14.7479 33.2721 15.1585 32.7629C15.4393 33.9703 15.4086 35.2292 15.0692 36.4215C14.2018 40.6606 16.1012 44.0757 18.8017 47.5048C19.185 48.8936 19.358 50.3319 19.3147 51.7719C19.3016 51.9941 19.2073 52.2038 19.0497 52.3613C18.2439 53.1709 17.3409 53.8779 16.3612 54.4663C13.572 53.7592 10.8537 52.7979 8.2406 51.5945ZM6.68655 58.9569C8.3133 58.9623 9.93612 58.7973 11.5284 58.4647C12.1016 59.015 13.481 60.7492 13.7521 64.8298C10.023 64.2774 6.39931 63.1641 3.00421 61.528C3.56794 59.983 5.0397 58.9554 6.68655 58.9569Z" fill="#462E8D"/>
</svg>
