<svg width="63" height="69" viewBox="0 0 63 69" fill="none" xmlns="http://www.w3.org/2000/svg">
<path d="M0.876603 63.1291C6.46881 66.6289 16.2088 68.1456 22.8101 68.6749C33.6211 69.5432 52.4195 68.8101 61.4951 63.1291C61.8466 62.9094 62.052 62.5167 62.0321 62.1026C62.0121 61.6884 61.7699 61.3173 61.3988 61.1324C60.3794 60.6249 57.4309 59.005 56.0243 58.2008C48.3496 53.7262 49.9533 58.1424 41.4951 50.1818V43.5214C43.6852 41.4456 44.951 39.6447 45.0919 36.4658C47.4695 35.2611 49.0724 32.931 49.3473 30.2796C49.5764 29.134 50.0403 26.041 49.0037 24.3123C52.5936 16.7732 50.3886 7.12859 42.2958 6.14224C41.1663 4.57853 37.3599 0.273438 29.7082 0.273438C20.7322 0.273438 12.8583 7.71971 12.8583 16.197C12.8875 18.6947 13.2961 21.1733 14.0702 23.5482C12.1652 24.8954 12.7666 28.9393 13.0289 30.2785C13.3027 32.929 14.9038 35.2589 17.2798 36.4646C17.4195 39.6321 18.6715 41.433 20.8766 43.5225V50.1864C19.2485 51.7792 17.4817 53.2238 15.5971 54.5029C14.6475 55.0662 13.6126 55.4713 12.5329 55.7023C9.21107 56.29 7.37831 57.7117 1.50547 60.8574C1.01521 61.1186 0.377177 61.3157 0.339376 62.0993C0.318242 62.5146 0.523872 62.9088 0.876603 63.1291ZM54.8788 60.1873C56.0598 60.862 57.258 61.5207 58.463 62.1726C53.9173 64.0826 49.1206 65.3292 44.2202 65.8739C46.2246 63.5086 47.5487 60.643 48.0506 57.5834C50.0323 58.2558 50.9453 57.8961 54.8788 60.1873ZM47.0896 29.8936C47.0803 29.9401 47.0738 29.9872 47.0701 30.0345C46.9062 31.5079 46.1814 32.8616 45.0461 33.8149C44.9133 32.3053 45.0255 30.7842 45.3783 29.3105C45.4037 29.2138 45.4187 29.1147 45.4229 29.0149C45.4229 27.9713 45.3931 27.1247 45.3645 26.4946C45.4035 26.1784 45.6268 25.4728 46.8605 25.4728C46.9029 25.4728 46.9922 25.4831 47.0587 25.4854C47.3966 25.9344 47.4802 27.9266 47.0896 29.8913V29.8936ZM29.7082 2.5646C37.4848 2.5646 40.5501 7.62348 40.6749 7.83427C40.8796 8.1887 41.2577 8.40705 41.6669 8.40706H41.9751C42.2362 8.42309 48.3679 8.86529 48.3679 17.228C48.3557 19.2894 47.8912 21.3229 47.0071 23.185C46.9331 23.181 46.8589 23.181 46.7849 23.185C46.2195 23.1853 45.6597 23.2975 45.1377 23.515C44.1205 14.4649 40.7586 12.3353 40.3542 12.1119C39.8178 11.8151 39.1427 11.9933 38.8227 12.5163C35.8044 17.4422 28.557 18.1525 28.5856 18.1548H22.6062C19.069 18.1548 16.8789 19.8869 16.7437 22.7795C16.7345 22.9502 16.7288 23.1438 16.7277 23.3523C16.6147 23.3164 16.5 23.2862 16.384 23.2618C15.5984 20.9878 15.1815 18.6027 15.1492 16.197C15.1492 9.06233 22.0885 2.5646 29.7082 2.5646ZM15.3073 30.0379C15.3037 29.9883 15.2972 29.939 15.2878 29.8901C14.8697 27.8086 14.99 25.6881 15.3439 25.4521C16.0072 25.5495 16.7506 25.4968 16.8331 26.2059C16.8972 26.7787 16.8709 27.3126 17.1377 29.9348C17.3672 31.2123 17.4311 32.5141 17.3279 33.808C16.1953 32.8574 15.4717 31.5075 15.3073 30.0379ZM19.5547 35.6512C19.7307 33.7351 19.69 31.8052 19.4333 29.8981C19.1765 27.569 19.0423 25.2281 19.0312 22.8849C19.0598 22.28 19.1458 20.4356 22.6062 20.4356H28.6853C29.006 20.4082 36.0736 19.7311 39.9716 14.8509C42.5879 18.1731 43.1251 24.6079 43.1331 28.8511C42.868 30.0074 42.7259 31.1886 42.7093 32.3749C42.7093 35.9835 43.6177 38.4911 40.1629 41.6197C36.1835 45.2352 36.2672 48.3878 33.1331 48.3878C27.7002 48.3878 27.7494 48.8667 25.573 45.6671C24.7517 44.4144 23.8119 43.2436 22.7666 42.1707C20.6566 40.0629 19.6062 38.994 19.5547 35.649V35.6512ZM20.8766 53.2875V55.2613C20.8766 55.894 21.3894 56.4069 22.022 56.4069C22.6547 56.4069 23.1675 55.894 23.1675 55.2613V46.2181C24.8559 48.6169 25.9315 50.679 29.2385 50.679C35.5524 50.679 35.7162 51.1842 39.2041 46.2181V55.2613C39.2041 55.894 39.717 56.4069 40.3496 56.4069C40.9823 56.4069 41.4951 55.894 41.4951 55.2613V53.2875C42.8394 54.5528 44.3142 55.6719 45.8949 56.6257C45.4745 59.241 44.038 64.8464 39.3554 66.394C33.9217 66.8242 28.4626 66.8242 23.0289 66.394C18.3325 64.8509 16.8972 59.2422 16.4768 56.6245C18.0571 55.6707 19.532 54.5521 20.8766 53.2875ZM7.50088 60.1804C11.4138 57.9007 12.3497 58.2524 14.321 57.5811C14.8228 60.6408 16.1468 63.5065 18.1515 65.8717C13.251 65.3269 8.45437 64.0803 3.90867 62.1703C5.11371 61.5184 6.31417 60.8586 7.50088 60.1804Z" fill="#462E8D"/>
</svg>
