<svg width="62" height="69" viewBox="0 0 62 69" fill="none" xmlns="http://www.w3.org/2000/svg">
<path d="M0.592539 63.1013C6.66246 66.9007 17.5505 68.3801 24.7989 68.7981C28.7907 69.0337 32.7927 69.0402 36.7853 68.8176C36.8116 68.8176 36.8391 68.8095 36.8655 68.8072C44.1184 68.3985 55.1153 66.9167 61.2127 63.1013C61.6228 62.8446 61.8273 62.3578 61.7235 61.8853C61.0515 58.7076 58.265 56.4211 55.0168 56.3821C52.3032 56.4089 49.6067 55.9482 47.056 55.0217C49.9484 54.1674 52.7535 53.0413 55.4337 51.6586C55.737 51.4911 55.9482 51.1953 56.008 50.854C56.0679 50.5128 55.97 50.1628 55.7418 49.9021C48.1452 41.2213 55.1794 24.2123 52.5545 13.7361C50.3521 4.92816 44.028 0.273438 34.2646 0.273438C25.6086 0.273438 21.4811 4.12089 20.0942 5.79727C15.2485 4.47471 10.6663 6.69845 9.09959 13.7658C6.76324 24.2742 13.518 41.2201 5.91918 49.9021C5.69104 50.1629 5.59332 50.5131 5.65339 50.8543C5.71347 51.1956 5.92489 51.4913 6.2284 51.6586C8.93488 53.0542 11.7686 54.188 14.6908 55.0446C12.1546 55.9604 9.47449 56.4134 6.77813 56.3821C3.53063 56.421 0.746133 58.7104 0.0806045 61.8887C-0.0213668 62.3604 0.183375 62.8454 0.592539 63.1013V63.1013ZM17.1462 65.7453C16.9481 61.394 15.7834 58.8543 14.7584 57.4481C15.7356 57.1249 16.688 56.7307 17.6078 56.2687C18.0006 58.6619 19.0325 63.1265 21.5452 66.2549C20.0426 66.1152 18.5698 65.9491 17.1462 65.7453V65.7453ZM25.2307 66.532C21.2314 64.0769 20.0186 57.1149 19.7426 55.0297C20.742 54.3617 21.6713 53.5944 22.5164 52.7396C23.5941 51.6437 23.5471 50.4048 23.4464 48.8406C28.7444 54.1217 32.8146 54.2224 38.2089 48.8406C38.1104 50.4059 38.0611 51.5808 39.1652 52.7041C40.006 53.5476 40.9304 54.3034 41.9241 54.9599C41.663 56.9706 40.465 64.0529 36.4188 66.5343C32.6921 66.735 28.9573 66.7342 25.2307 66.532V66.532ZM18.3362 25.9964C19.3624 24.2498 20.1804 22.3889 20.7733 20.4519C21.4467 21.4578 22.3152 22.3183 23.3272 22.9825C23.6785 23.2138 24.1282 23.234 24.4988 23.0351C24.8694 22.8363 25.1011 22.4503 25.1024 22.0298C25.154 20.6683 25.5415 19.3407 26.2305 18.1652C30.51 23.2525 36.5213 26.5761 43.106 27.4953C42.5838 29.4234 42.57 31.4539 43.0659 33.389C43.7336 36.6536 42.7476 39.6296 39.6599 43.6637C36.9479 47.2134 34.4707 49.4418 32.2867 50.2914C31.3432 50.6653 30.2926 50.6653 29.3491 50.2914C27.1731 49.4441 24.6981 47.2157 21.9861 43.666C18.8996 39.6342 17.9124 36.657 18.579 33.397C19.3784 29.5873 18.6763 29.2301 18.3362 25.9929V25.9964ZM44.06 56.2069C44.9876 56.6732 45.9475 57.0724 46.9324 57.4012C45.9016 58.8004 44.7071 61.3563 44.5101 65.7671C43.0843 65.9686 41.6069 66.1324 40.1031 66.2686C42.6479 63.1094 43.6787 58.5863 44.06 56.2069ZM59.2268 61.6105C55.3057 63.4954 51.1215 64.7753 46.8167 65.4064C47.1271 60.636 48.7636 58.6665 49.389 58.0779C51.2381 58.4778 53.1249 58.677 55.0168 58.6722C56.8982 58.6698 58.5804 59.8438 59.2268 61.6105V61.6105ZM8.551 50.2616C15.5852 40.4266 9.15799 24.0394 11.3317 14.2628C12.004 11.2398 13.242 9.2428 15.0149 8.3256C16.6166 7.61579 18.4342 7.56926 20.0701 8.1962C20.5951 8.42244 21.2065 8.22697 21.5028 7.73817C21.5349 7.68092 24.7153 2.56359 34.2646 2.56359C42.98 2.56359 48.3857 6.50951 50.3327 14.2926C52.7595 23.9753 46.1009 40.4323 53.1076 50.2605C50.1512 51.6266 47.0759 52.7193 43.9203 53.5251C42.7831 52.8529 41.7347 52.0408 40.7994 51.1078C40.6036 50.9198 40.4851 50.6654 40.4673 50.3945C40.4288 48.7756 40.6259 47.1598 41.0526 45.5977C44.1368 41.6793 46.3128 37.7735 45.3152 32.9264C44.8752 31.2085 44.9045 29.4041 45.4 27.7014C45.8821 27.7266 46.362 27.7552 46.8625 27.7552C47.495 27.7552 48.0078 27.2425 48.0078 26.6101C48.0078 25.9777 47.495 25.4651 46.8625 25.4651C39.1416 25.4314 31.8752 21.8109 27.1994 15.6678C27.0088 15.3831 26.7006 15.1986 26.3596 15.1651C26.0185 15.1317 25.6803 15.2527 25.438 15.4949C24.2927 16.6881 23.493 18.1699 23.1245 19.7821C22.2746 18.8114 21.763 17.591 21.6666 16.3045C21.6681 15.7025 21.2032 15.2021 20.6027 15.1594C20.0061 15.1262 19.4812 15.5496 19.3875 16.1396C18.7948 20.5658 16.9161 24.7208 13.9842 28.0896C13.5504 28.5392 13.5571 29.2534 13.9992 29.6948C14.4413 30.1361 15.1556 30.1418 15.6047 29.7076C15.6528 29.6595 15.9746 29.3308 16.443 28.7491C16.7633 30.1285 16.7283 31.5665 16.3411 32.9287C15.3516 37.7712 17.5184 41.6724 20.5992 45.5897C21.0365 47.1763 21.2338 48.8194 21.1844 50.4643C21.1695 50.7182 21.0619 50.9578 20.8821 51.1376C19.9628 52.0625 18.9326 52.8702 17.8151 53.5423C14.6331 52.7345 11.5321 51.6363 8.551 50.2616V50.2616ZM6.77813 58.6722C8.63393 58.6783 10.4853 58.4899 12.3018 58.11C12.9557 58.7386 14.5293 60.7196 14.8385 65.3812C10.5844 64.7501 6.45045 63.4784 2.57729 61.6093C3.22039 59.8444 4.89939 58.6705 6.77813 58.6722V58.6722Z" fill="#462E8D"/>
</svg>
