<svg width="73" height="52" viewBox="0 0 73 52" fill="none" xmlns="http://www.w3.org/2000/svg">
<path d="M71.662 15.2759C62.229 5.93101 49.6651 0.785156 36.2886 0.785156C22.912 0.785156 10.3494 5.92972 0.915121 15.2759C0.405897 15.7803 0.405897 16.5955 0.915121 17.0999C1.42434 17.6043 2.24744 17.6043 2.75666 17.0999C11.6987 8.24143 23.6075 3.36389 36.2886 3.36389C48.9697 3.36389 60.8784 8.24142 69.8205 17.0986C70.0744 17.3502 70.4078 17.4766 70.7412 17.4766C71.0746 17.4766 71.408 17.3502 71.662 17.0986C72.1712 16.5955 72.1712 15.779 71.662 15.2759Z" fill="#462E8D"/>
<path d="M8.5704 22.8573C8.06118 23.3617 8.06118 24.1769 8.5704 24.6813C8.82436 24.9329 9.15777 25.0593 9.49117 25.0593C9.82457 25.0593 10.158 24.9329 10.4119 24.6813C24.6793 10.548 47.8952 10.548 62.1639 24.6813C62.6731 25.1857 63.4962 25.1857 64.0054 24.6813C64.5146 24.1769 64.5146 23.3617 64.0054 22.8573C48.7235 7.72026 23.8549 7.71768 8.5704 22.8573Z" fill="#462E8D"/>
<path d="M36.2886 22.2226C28.7023 22.2226 21.5784 25.1419 16.227 30.4412C15.7178 30.9456 15.7178 31.7609 16.227 32.2653C16.7362 32.7697 17.5593 32.7697 18.0685 32.2653C22.9276 27.4536 29.3978 24.8026 36.2886 24.8026C43.1794 24.8026 49.6495 27.4536 54.5086 32.2653C54.7626 32.5169 55.096 32.6433 55.4294 32.6433C55.7628 32.6433 56.0962 32.5169 56.3501 32.2653C56.8594 31.7609 56.8594 30.9456 56.3501 30.4412C51 25.1419 43.8748 22.2226 36.2886 22.2226Z" fill="#462E8D"/>
<path d="M36.2886 34.359C31.5844 34.359 27.7568 38.1503 27.7568 42.8112C27.7568 47.472 31.5844 51.2633 36.2886 51.2633C40.994 51.2633 44.8216 47.472 44.8216 42.8112C44.8216 38.1503 40.994 34.359 36.2886 34.359ZM36.2886 48.682C33.0196 48.682 30.3615 46.0478 30.3615 42.8099C30.3615 39.5719 33.0209 36.9377 36.2886 36.9377C39.5562 36.9377 42.2169 39.5719 42.2169 42.8099C42.2169 46.0478 39.5575 48.682 36.2886 48.682Z" fill="#462E8D"/>
</svg>
