<svg width="69" height="70" viewBox="0 0 69 70" fill="none" xmlns="http://www.w3.org/2000/svg">
<path d="M66.7007 22.5581C61.6254 9.24003 48.8502 0.442009 34.5979 0.449275C31.428 0.443489 28.2729 0.880315 25.2237 1.74697L25.1779 1.7607C16.7153 4.15342 9.50163 9.7179 5.03904 17.2957C4.96004 17.4291 4.9089 17.5773 4.88858 17.731C4.3402 18.4629 3.88507 19.2602 3.53356 20.1046L3.44743 20.2905C-1.49344 30.9329 -0.666752 43.36 5.64045 53.254C11.9476 63.1479 22.8645 69.1428 34.5979 69.1556C42.4856 69.1623 50.1332 66.4416 56.2445 61.4546C56.7395 61.4971 57.2048 61.2129 57.3928 60.7529C57.4287 60.6469 57.4491 60.5364 57.4536 60.4246C68.0962 50.9451 71.7761 35.8762 66.7007 22.5581ZM25.0573 4.19419C26.5755 6.05629 28.8127 7.18657 31.2125 7.30392C31.8687 7.32088 32.5252 7.29221 33.1774 7.21779C34.2324 6.97865 35.3374 7.11013 36.3067 7.58989C36.8493 7.88003 37.1488 8.48184 37.0532 9.08971C36.8039 9.54753 36.4621 9.94829 36.0495 10.2668C35.0233 10.963 34.4049 12.1192 34.3959 13.3593C34.4735 14.1314 34.8868 14.8301 35.5259 15.2701C36.4707 15.9013 37.6351 16.1122 38.7413 15.8523C39.3541 15.6918 39.9511 15.4758 40.5246 15.2069C41.0461 14.9504 41.5979 14.761 42.1668 14.643C43.6206 14.4386 45.1135 15.3997 46.6374 16.493C47.4011 17.0454 48.6447 18.0892 48.3875 18.8816C48.1899 19.489 47.4482 19.9277 46.665 20.3939C46.348 20.5811 46.038 20.7648 45.6796 21.014C44.4111 21.9745 43.021 22.7625 41.5455 23.3579C40.9878 23.5435 40.4201 23.6969 39.8448 23.8172C38.6468 24.0267 37.4956 24.447 36.4445 25.0586C34.3349 26.4206 34.5922 28.6002 34.7541 29.9104C34.7162 29.8978 34.6748 29.8828 34.63 29.8633C34.4337 29.783 34.2407 29.6911 34.0489 29.6014C32.8615 28.8004 31.3233 28.7388 30.0755 29.4425C28.8278 30.146 28.0845 31.4942 28.1556 32.9249C28.1556 35.65 30.179 37.2393 31.8051 38.515L32.37 38.9629C32.7289 39.2926 33.0519 39.6595 33.3334 40.0573C31.0252 39.4762 28.7155 38.9046 26.4042 38.3428C24.4612 37.8731 22.4998 37.2943 21.6959 35.8565C21.3887 35.2051 21.1816 34.5109 21.0816 33.7976C20.936 32.6657 20.538 31.581 19.9171 30.6235C18.7385 29.3081 17.1503 28.4292 15.4098 28.1293L15.1996 28.0696C13.4771 27.5574 12.5332 26.9408 12.2254 26.1335C12.0335 25.0857 12.2044 24.0038 12.71 23.0661C13.3592 21.7157 13.5757 20.1977 13.3301 18.7195C13.0724 17.586 12.3148 16.6303 11.2699 16.1208C10.6491 15.8317 9.97143 15.6861 9.28672 15.6947C9.14084 15.6947 8.99268 15.7016 8.84343 15.7132C12.8771 10.2384 18.5598 6.20109 25.0573 4.19419ZM29.7725 66.4859L29.7828 66.4963C29.3323 66.2464 28.8952 65.9726 28.4737 65.6763C27.5454 65.0981 26.9108 64.1484 26.7316 63.0695C26.7957 62.3768 27.0198 61.7086 27.3862 61.1172C27.6428 60.5706 27.8326 59.9949 27.9511 59.4028C28.0241 58.8651 28.2206 58.3519 28.5254 57.9029C28.8649 57.5934 29.2584 57.349 29.6863 57.1818C30.1656 56.9695 30.6212 56.7078 31.0459 56.4008C31.9622 55.671 32.7222 54.7641 33.2807 53.7344C33.5505 53.2612 33.7837 52.7457 34.0087 52.2416C34.3142 51.4422 34.7401 50.6944 35.2719 50.0241C36.4203 48.8148 38.6826 49.7128 39.599 50.1515C41.3477 50.9369 42.9553 52.004 44.3578 53.3106L44.4898 53.4461C45.9758 55.0167 47.557 56.4945 49.2246 57.8708C50.6041 58.9365 52.1156 59.8193 53.7216 60.4971C46.8598 65.6141 38.235 67.7708 29.7725 66.4859ZM55.7507 58.863C53.9295 58.1892 52.2168 57.2525 50.6669 56.0828C49.0729 54.7636 47.5608 53.3486 46.1389 51.8454L46.0069 51.7111C44.4236 50.2108 42.5989 48.988 40.6095 48.0937C37.7042 46.6997 35.1572 46.8305 33.6172 48.4543C32.8993 49.3044 32.3276 50.268 31.9256 51.3056C31.7202 51.758 31.5203 52.2048 31.2987 52.5952C30.8902 53.3587 30.3339 54.0333 29.6623 54.5796C29.3604 54.7898 29.0385 54.9695 28.7011 55.1159C28.0015 55.4031 27.3663 55.827 26.8327 56.363C26.2511 57.0893 25.8683 57.9543 25.7222 58.8733C25.6423 59.2841 25.5171 59.6846 25.349 60.0677C24.8019 60.981 24.4887 62.0152 24.4373 63.0786C24.4541 63.9129 24.698 64.7266 25.1423 65.4327C16.2972 62.6907 9.06723 56.2624 5.3094 47.7989C1.55156 39.3354 1.63163 29.6612 5.52929 21.2611L5.61663 21.0716C5.9283 20.2484 6.39366 19.4921 6.9878 18.8427C7.19894 18.6321 7.44791 18.4629 7.72163 18.3443C8.21686 18.1227 8.75233 18.0055 9.29493 17.9998C9.63029 17.992 9.96336 18.0586 10.2699 18.1951C10.7035 18.4138 11.0113 18.8209 11.1036 19.2975C11.2043 20.325 11.0129 21.3599 10.5513 22.2833C9.81829 23.7284 9.64926 25.3944 10.0771 26.9572C10.8476 28.9703 12.995 29.8155 14.5557 30.2794L14.7854 30.3437C16.0263 30.5426 17.1758 31.1187 18.0777 31.9939C18.4852 32.6857 18.7439 33.4551 18.8369 34.2527C18.978 35.2024 19.2687 36.1237 19.6981 36.9824C20.9521 39.2298 23.544 40.0186 25.8729 40.5813C28.3718 41.1884 30.8729 41.8078 33.3763 42.4394C33.8797 42.6035 34.4231 42.5967 34.9221 42.4198C35.5041 42.1938 35.9209 41.6739 36.0153 41.0567C36.2772 39.317 33.8736 37.2246 33.8335 37.1947L33.2294 36.7147C31.8043 35.5963 30.4584 34.5397 30.4584 32.9251C30.4448 32.2469 30.8356 31.6254 31.4529 31.3439C31.8812 31.1658 32.2395 31.2957 33.0744 31.6884C33.3041 31.7963 33.5337 31.9043 33.7439 31.9893C34.6361 32.4678 35.7335 32.3296 36.4792 31.6448C36.9643 31.1033 37.169 30.3665 37.0327 29.6524C36.8444 28.1217 36.9179 27.4889 37.6896 26.9894C38.5228 26.5314 39.4275 26.2173 40.3653 26.0603C41.0259 25.9188 41.6778 25.739 42.3176 25.5217C44.0117 24.8457 45.6075 23.9458 47.0626 22.846C47.2923 22.6841 47.5576 22.5301 47.824 22.3728C49.0531 21.8219 50.0312 20.8303 50.5652 19.5937C51.106 17.9332 50.2344 16.2634 47.9722 14.6316C46.5195 13.59 44.3169 12.0156 41.8296 12.3728C41.0578 12.5145 40.3088 12.7602 39.6029 13.1031C39.1532 13.3152 38.6859 13.4881 38.2065 13.6199C37.7461 13.7262 37.2626 13.65 36.8571 13.4074C36.6883 13.2856 36.679 13.1903 36.6757 13.1548C36.6504 12.8562 37.0202 12.4876 37.5944 11.9581C38.3019 11.4024 38.8589 10.6784 39.2148 9.85207C39.6872 8.2279 38.99 6.49109 37.5255 5.64449C36.1348 4.87957 34.5197 4.62725 32.962 4.93139C32.4155 4.99571 31.8654 5.02182 31.3152 5.00944C29.9424 4.93502 28.6324 4.41032 27.5877 3.51661C41.8815 0.296803 56.5384 7.18374 63.1833 20.2422C69.8278 33.3009 66.7676 49.2033 55.7507 58.863Z" fill="#462E8D"/>
</svg>
